<svg width="263" height="282" viewBox="0 0 263 282" fill="none" xmlns="http://www.w3.org/2000/svg">
<rect x="0.00170898" y="0.999268" width="262" height="281" fill="white"/>
<path d="M159.002 177.499C159.002 175.899 158.002 174.833 157.502 174.499C152.401 172.759 147.517 187.715 134.502 190.999C133.168 191.499 131.502 189.799 135.502 178.999C140.502 165.499 142.502 162.999 148.502 145.999C153.302 132.399 154.502 126.333 154.502 124.999C154.668 121.666 152.902 114.599 144.502 112.999C136.102 111.399 126.668 114.666 123.002 116.499C120.168 117.833 113.002 121.999 107.002 127.999C101.002 133.999 97.8351 138.499 97.0017 139.999C96.8351 140.499 96.8017 141.799 98.0017 142.999C99.2017 144.199 102.168 142.166 103.502 140.999L114.502 128.999C115.502 128.166 118.202 126.399 121.002 125.999C123.802 125.599 123.835 129.166 123.502 130.999L102.002 183.999C99.7613 192.434 97.0001 209.396 113.502 207.999C131.111 206.509 147.168 192.666 153.002 185.999C155.002 183.833 159.002 179.099 159.002 177.499Z" fill="black" stroke="white"/>
<path d="M262 230.5V136.5L128 1H66C140.404 92.6833 183.354 142.891 262 230.5Z" fill="#EE2E53" stroke="#EE2E53"/>
<ellipse cx="151.5" cy="90" rx="24.5" ry="23" fill="white"/>
<ellipse cx="151.002" cy="89.9993" rx="17" ry="16" fill="black"/>
</svg>
