<svg width="1035" height="832" viewBox="0 0 1035 832" fill="none" xmlns="http://www.w3.org/2000/svg">
<path d="M117.14 260H88.596C87.508 260 86.996 259.36 86.996 258.144V245.664C86.996 236.384 90.644 232.416 99.604 232.416H109.652C111.764 232.416 112.852 231.584 112.852 229.984C112.852 228.32 111.764 227.488 109.652 227.488H94.228C90.324 227.488 88.276 225.376 88.212 221.216V220.96C88.212 216.928 90.196 214.944 94.164 214.944H109.588C118.996 214.944 123.732 219.744 123.732 229.408C123.732 238.624 120.788 242.912 111.316 242.912H100.756C98.772 242.912 97.812 243.68 97.812 245.28L97.94 247.52H117.204C121.876 247.52 123.732 249.568 123.732 253.728C123.732 257.888 121.556 260 117.14 260ZM166.627 231.648V243.296C166.627 255.776 160.739 260 151.715 260H144.355C135.331 260 129.443 255.776 129.443 243.296V231.648C129.443 219.168 135.331 214.944 144.355 214.944H151.715C160.739 214.944 166.627 219.168 166.627 231.648ZM144.675 247.456H151.395C153.635 247.456 154.467 246.56 154.467 242.976V231.968C154.467 228.384 153.635 227.488 151.395 227.488H144.675C142.435 227.488 141.603 228.384 141.603 231.968V242.976C141.603 246.56 142.435 247.456 144.675 247.456ZM29.464 281.376L26.2 289.504H32.216L29.464 281.376ZM37.4 304.224L35.608 299.296H22.296L20.312 304.224C19.096 306.976 16.984 308.256 14.872 308.256C11.544 308.256 8.152 305.952 8.152 302.368C8.152 301.28 8.28 300.448 8.6 299.872L23.832 266.464C24.856 264.224 26.2 262.752 29.592 262.752C32.856 262.752 34.264 264.224 35.224 266.528L49.112 299.872C49.432 300.512 49.56 301.344 49.56 302.368C49.56 305.76 46.232 308.256 42.904 308.256C40.152 308.256 38.36 306.912 37.4 304.224ZM60.079 262.944H82.223C86.319 262.944 88.367 265.056 88.367 269.216V302.048C88.367 306.144 85.551 308.192 82.223 308.192C78.895 308.192 76.015 306.144 76.015 302.048V275.424H66.287V302.048C66.287 306.144 63.407 308.192 60.079 308.192C56.751 308.192 53.935 306.144 53.935 302.048V269.216C53.935 265.056 55.983 262.944 60.079 262.944ZM106.667 274.848V301.856C106.667 306.144 104.619 308.256 100.459 308.256C96.2985 308.256 94.1865 306.144 94.1865 301.984V269.216C94.1865 265.056 96.1705 262.944 100.203 262.944H112.875C123.691 262.944 128.555 268.576 128.555 277.472C128.555 285.664 123.882 291.936 116.075 291.936H113.899C109.803 291.936 108.395 289.888 108.395 286.624C108.395 283.36 110.378 281.888 113.131 281.888H114.155C116.267 281.888 117.547 280.8 117.547 278.496C117.547 275.936 116.011 274.848 113.387 274.848H106.667ZM159.637 308H138.517C134.421 308 132.373 305.888 132.373 301.728V269.216C132.373 265.056 134.421 262.944 138.517 262.944H159.637C163.541 262.944 165.845 265.824 165.845 269.216C165.845 272.608 163.541 275.488 159.637 275.488H144.725V279.776H157.141C160.725 279.776 162.837 282.4 162.837 285.472C162.837 288.544 160.725 291.168 157.141 291.168H144.725V295.52H159.637C163.541 295.52 165.845 298.336 165.845 301.728C165.845 305.12 163.541 308 159.637 308ZM186.861 262.944H204.013C208.109 262.944 210.157 265.056 210.157 269.216V302.048C210.157 306.144 207.341 308.192 204.013 308.192C200.685 308.192 197.805 306.144 197.805 302.048V275.424H193.069C192.493 287.136 189.037 294.816 183.981 302.432C181.805 305.696 179.309 308.192 175.597 308.192C171.181 308.192 169.325 304.864 169.325 301.856C169.325 300.256 169.965 298.912 172.205 296.928C175.405 294.048 180.717 281.824 180.717 269.216C180.717 265.056 182.765 262.944 186.861 262.944ZM234.943 290.976L227.455 305.056C226.175 307.296 224.191 308.256 222.143 308.256C218.815 308.256 215.423 305.76 215.423 302.112C215.423 301.024 215.743 299.616 216.703 298.272L222.655 288.928C218.303 287.2 215.039 282.784 215.039 276.64C215.039 269.792 219.775 262.944 230.335 262.944H243.711C247.743 262.944 249.727 265.056 249.727 269.216V301.728C249.727 305.824 247.807 308 243.455 308C239.295 308 237.247 305.888 237.247 301.6V274.848H230.591C227.839 274.848 226.687 275.68 226.687 277.984C226.687 280.48 227.839 281.696 230.207 281.696H231.039C234.047 281.696 235.903 283.744 235.903 287.008C235.903 289.184 235.391 290.208 234.943 290.976Z" fill="white"/>
<path d="M931.103 656.008L887.713 580.252H974.494L931.103 656.008Z" fill="#FF204E"/>
<circle cx="931.5" cy="558.5" r="48.5" fill="#FF204E"/>
<circle cx="931.5" cy="558.5" r="22.8471" fill="white"/>
<path d="M441.518 573.866C427.556 562.022 418.059 551.055 413.811 545.93C400.737 530.167 391.929 515.12 386.095 503.465C374.229 479.769 369.141 455.498 367.914 449.647C359.474 409.613 363.279 369.692 364.666 357.312C354.783 372.453 344.899 387.603 335.006 402.744C335.081 412.053 335.77 424.33 338.234 438.538C338.725 441.365 340.802 453.076 346.032 469.895C349.213 480.127 354.858 498.264 365.554 518.323C383.962 552.864 405.192 573.065 410.866 578.303C423.969 589.892 444.066 607.455 474.983 624.49C499.347 637.916 521.701 646.207 539.09 651.436C526.157 637.68 513.215 623.915 500.282 610.159C473.18 598.438 453.818 584.286 441.527 573.866H441.518Z" fill="#F2F2F2"/>
<path d="M717.573 597.807C709.266 602.64 683.155 617.122 647.084 624.706C620.869 630.218 598.383 630.209 586.187 629.7C583.222 629.577 580.768 629.417 579.097 629.304C595.976 636.097 612.845 642.891 629.724 649.674C638.4 648.958 647.235 647.573 656.175 645.378C731.233 626.911 773.911 561.042 790.592 531.156C777.735 549.114 754.531 576.325 717.583 597.807H717.573Z" fill="#F2F2F2"/>
<path d="M503.784 179.915C522.834 173.744 547.284 168.449 575.718 168.665C664.633 169.334 726.39 223.313 745.412 241.412C733.121 231.764 715.251 219.676 691.821 209.67C679.095 204.233 650.275 193.238 611.543 190.863C596.684 189.95 556.724 188.857 512.158 205.354C488.841 213.985 471.65 224.688 465.562 228.627C453.063 236.711 443.897 244.39 439.781 247.951C433.381 253.482 428.122 258.654 424.016 262.96C405.362 271.167 386.709 279.364 368.055 287.57C397.367 237.983 444.425 198.599 503.775 179.925L503.784 179.915Z" fill="#F2F2F2"/>
<path d="M759.742 253.557C687.261 370.643 604.302 459.888 534.361 523.938C550.569 490.472 566.778 456.995 582.977 423.529C631.282 379.83 686.515 322.921 739.512 251.616C729.911 250.231 719.046 248.055 706.802 244.766C706.132 244.587 705.424 244.38 704.744 244.192C681.767 273.918 655.325 305.51 624.787 338.138C595.154 369.786 553.212 411.44 498.101 456.958L545.811 376.381C591.879 336.574 639.57 290.821 686.402 238.614C685.156 238.199 683.919 237.794 682.645 237.361C678.18 235.834 673.611 234.553 668.957 233.488C610.485 296.455 549.625 348.737 492.4 391.626C512.696 359.554 532.982 327.491 553.278 295.419C579.295 276.895 607.729 254.989 637.229 229.39C565.617 226.431 488.963 260.303 488.963 260.303C488.963 260.303 423.723 290.237 383.867 322.29L391.844 336.432L352.281 296.502C352.281 296.502 349.562 296.455 347.835 298.179C346.107 299.903 330.22 317.287 330.22 317.287C330.22 317.287 329.455 319.011 330.805 320.359C332.155 321.706 502.963 467.689 563.134 706.017L593.2 697.509L539.269 548.577C539.269 548.577 586.262 507.865 610.447 506.103C634.633 504.341 694.313 519.83 694.313 519.83C694.313 519.83 744.694 539.56 846.326 518.822L848.327 518.427L796.756 249.487C796.756 249.487 785.145 254.631 759.742 253.557Z" fill="#FF204E"/>
<path d="M802.713 59.4369C821.055 30.1064 837.216 1.20929 851.49 -27C822.018 23.3791 780.425 84.0187 722.161 147.127C693.661 177.993 664.973 205.317 637.238 229.39C648.019 229.833 658.686 231.114 668.957 233.479C716.148 182.657 761.79 124.882 802.713 59.4463V59.4369Z" fill="#FF204E"/>
<path d="M805.866 94.9012C829.069 56.9213 846.769 24.5758 858.749 1.80298C841.606 31.4444 822.565 61.8207 801.372 92.6588C764.65 146.109 725.833 194.632 686.402 238.595C692.821 240.725 698.938 242.581 704.753 244.182C750.698 184.721 782.756 132.721 805.866 94.8918V94.9012Z" fill="#FF204E"/>
<path d="M774.874 228.457C816.684 157.086 846.288 89.5871 867.547 29.918C843.428 86.1104 809.425 151.951 760.988 221.739C753.889 231.971 746.724 241.921 739.521 251.616C747.045 252.7 753.776 253.303 759.751 253.557C764.849 245.322 769.89 236.965 774.874 228.457Z" fill="#FF204E"/>
<path d="M353.48 217.678L344.927 230.04L370.302 247.536L366.422 253.142L341.047 235.646L332.476 248.026L326.859 244.154L347.872 213.796L353.489 217.669L353.48 217.678Z" fill="#F2F2F2"/>
<path d="M394.865 218.093L386.492 227.119C385.822 227.835 384.991 228.495 383.99 229.079C382.99 229.663 381.885 230.059 380.667 230.247C379.449 230.435 378.185 230.351 376.863 229.983C375.541 229.616 374.229 228.834 372.936 227.637L359.135 214.88L363.779 209.877L377.58 222.634C378.232 223.237 378.893 223.529 379.563 223.501C380.233 223.473 380.875 223.124 381.507 222.446L389.843 213.457L394.856 218.093H394.865ZM403.371 212.939C404.23 213.73 404.9 214.559 405.391 215.407C405.872 216.265 406.212 217.103 406.401 217.951C406.59 218.79 406.646 219.619 406.571 220.429C406.495 221.24 406.335 222.012 406.089 222.747C405.834 223.482 405.523 224.16 405.145 224.792C404.768 225.423 404.352 225.969 403.918 226.441L395.545 235.467L390.532 230.831L398.905 221.805C399.519 221.136 399.812 220.476 399.774 219.826C399.736 219.167 399.387 218.545 398.736 217.933L375.891 196.818L380.535 191.815L403.38 212.929L403.371 212.939Z" fill="#F2F2F2"/>
<path d="M427.197 185.389C427.508 185.776 427.726 186.181 427.848 186.614C427.971 187.048 428.018 187.481 427.971 187.915C427.924 188.348 427.792 188.753 427.584 189.149C427.376 189.544 427.084 189.884 426.715 190.185L414.679 199.852C414.028 200.38 413.263 200.87 412.404 201.313C411.545 201.765 410.611 202.104 409.62 202.358C408.628 202.613 407.59 202.745 406.504 202.773C405.419 202.811 404.324 202.66 403.238 202.339C402.143 202.019 401.057 201.501 399.981 200.794C398.905 200.088 397.886 199.136 396.913 197.939L387.03 185.681L392.354 181.404L402.237 193.662C402.794 194.359 403.417 194.887 404.107 195.245C404.786 195.603 405.494 195.82 406.221 195.885C406.948 195.951 407.675 195.867 408.392 195.631C409.11 195.396 409.799 195.028 410.441 194.51L419.749 187.029L406.221 170.258L411.536 165.98L427.187 185.38L427.197 185.389Z" fill="#F2F2F2"/>
<path d="M455.395 172.801L449.4 176.08L440.347 159.592C439.922 158.81 439.384 158.329 438.752 158.15C438.11 157.971 437.383 158.103 436.571 158.546L428.783 162.805L439.148 181.686L433.154 184.965L421.137 163.068C420.91 162.654 420.778 162.23 420.731 161.778C420.684 161.335 420.731 160.901 420.863 160.477C420.986 160.063 421.203 159.667 421.486 159.319C421.769 158.961 422.118 158.678 422.534 158.442L433.343 152.535C434.173 152.083 435.146 151.743 436.26 151.508C437.374 151.282 438.535 151.253 439.752 151.423L438.742 149.586L446.851 145.148C447.418 144.837 448.05 144.573 448.758 144.357C449.457 144.14 450.193 144.008 450.967 143.942C451.741 143.876 452.534 143.904 453.337 144.036C454.149 144.159 454.932 144.422 455.706 144.809C456.48 145.195 457.217 145.723 457.925 146.392C458.633 147.061 459.265 147.909 459.831 148.936L468.884 165.424L462.89 168.703L453.837 152.214C453.412 151.432 452.884 150.942 452.27 150.754C451.656 150.566 450.939 150.688 450.127 151.131L444.737 154.08C445.341 154.711 445.879 155.446 446.351 156.304L455.404 172.792L455.395 172.801Z" fill="#F2F2F2"/>
<path d="M496.487 136.452C496.78 137.347 496.94 138.364 496.969 139.504C496.997 140.644 496.808 141.775 496.393 142.896C495.977 144.017 495.307 145.063 494.363 146.034C493.419 147.004 492.135 147.767 490.502 148.304L478.806 152.167L476.767 146.015L488.463 142.152C489.341 141.86 489.936 141.37 490.238 140.663C490.54 139.966 490.559 139.212 490.295 138.421C490.021 137.573 489.53 136.998 488.822 136.697C488.114 136.395 487.387 136.367 486.622 136.621L474.926 140.484C474.048 140.776 473.453 141.266 473.151 141.963C472.849 142.661 472.83 143.414 473.095 144.206L476.087 153.241C476.37 154.108 476.861 154.683 477.569 154.994C478.268 155.295 479.023 155.314 479.816 155.05L491.465 151.206L493.514 157.378L481.817 161.241C480.921 161.533 479.901 161.702 478.749 161.731C477.607 161.759 476.474 161.57 475.351 161.156C474.228 160.741 473.18 160.072 472.207 159.13C471.235 158.188 470.47 156.907 469.932 155.286L466.921 146.194C466.628 145.299 466.468 144.281 466.44 143.141C466.411 142.001 466.6 140.87 467.015 139.749C467.431 138.628 468.11 137.582 469.045 136.612C469.989 135.641 471.273 134.888 472.906 134.341L484.602 130.478C485.499 130.186 486.519 130.016 487.67 129.988C488.812 129.96 489.945 130.148 491.069 130.563C492.192 130.977 493.24 131.646 494.212 132.589C495.194 133.531 495.949 134.812 496.487 136.433V136.452Z" fill="#F2F2F2"/>
<path d="M536.645 148.794L529.895 149.868L527.403 134.332C527.262 133.455 526.988 132.683 526.572 132.033C526.157 131.383 525.657 130.846 525.053 130.431C524.448 130.016 523.778 129.724 523.042 129.574C522.296 129.413 521.522 129.404 520.71 129.536L508.91 131.42L512.327 152.676L505.578 153.75L501.622 129.103C501.547 128.631 501.566 128.189 501.67 127.755C501.783 127.322 501.962 126.926 502.227 126.577C502.491 126.229 502.812 125.927 503.199 125.692C503.586 125.456 504.011 125.296 504.483 125.221L519.681 122.79C520.531 122.658 521.437 122.601 522.409 122.648C523.382 122.686 524.363 122.846 525.355 123.12C526.346 123.393 527.318 123.789 528.262 124.297C529.206 124.806 530.075 125.475 530.868 126.295C531.661 127.114 532.35 128.094 532.926 129.244C533.501 130.393 533.907 131.722 534.153 133.248L536.645 148.785V148.794Z" fill="#F2F2F2"/>
<path d="M575.717 148.493L551.069 148.436C550.437 148.436 549.757 148.361 549.03 148.21C548.303 148.059 547.586 147.824 546.878 147.513C546.17 147.193 545.49 146.787 544.848 146.288C544.197 145.789 543.63 145.186 543.13 144.479C542.63 143.772 542.233 142.943 541.941 142.011C541.648 141.078 541.497 140.023 541.506 138.854L541.553 120.397C541.553 119.765 541.629 119.087 541.78 118.361C541.931 117.636 542.167 116.92 542.479 116.213C542.79 115.507 543.205 114.828 543.715 114.188C544.225 113.547 544.839 112.972 545.547 112.473C546.255 111.973 547.076 111.578 548.01 111.286C548.945 110.994 549.993 110.843 551.163 110.843L575.811 110.899L575.793 117.721L551.145 117.664C550.248 117.664 549.568 117.9 549.096 118.371C548.624 118.842 548.388 119.539 548.379 120.463L548.341 138.873C548.341 139.749 548.577 140.428 549.058 140.908C549.54 141.389 550.219 141.634 551.097 141.634L575.745 141.69L575.726 148.512L575.717 148.493Z" fill="#F2F2F2"/>
<path d="M619.122 123.666L604.226 121.452L599.676 151.903L592.917 150.895L597.467 120.444L582.552 118.22L583.562 111.474L620.123 116.92L619.113 123.666H619.122Z" fill="#F2F2F2"/>
<path d="M659.592 134.643L633.217 127.322L624.957 156.982L618.377 155.154L627.543 122.234C627.666 121.782 627.874 121.377 628.157 121.018C628.44 120.66 628.77 120.368 629.148 120.152C629.526 119.926 629.941 119.794 630.394 119.737C630.847 119.681 631.31 119.718 631.782 119.85L661.424 128.076L659.592 134.643ZM652.512 148.681L631.706 142.906L633.547 136.282L654.353 142.058L652.512 148.681Z" fill="#F2F2F2"/>
<path d="M271.224 638.018L142 801.496C247.253 760.378 405.087 648.542 509.5 562C501 544 492.5 527 478 504C401.778 560.664 323.243 613.492 271.224 638.018Z" fill="#FF204E" stroke="#FF204E"/>
<path d="M220.439 551.099L80.9998 705.956C190.099 671.216 358.31 566.436 468 486.339L431 432.5C352.702 483.079 272.926 530.352 220.439 551.099Z" fill="#FF204E" stroke="#FF204E"/>
<path d="M153.247 474.986L1.99997 618.332C118.897 591.07 306.644 492.208 421.5 419.829C406.368 401.027 397.458 390.181 380 369.711C295.746 415.381 208.742 457.986 153.247 474.986Z" fill="#FF204E" stroke="#FF204E"/>
<ellipse cx="944.546" cy="398.486" rx="59.5457" ry="59.4855" fill="#FF204E"/>
<path d="M928.498 405.624C922.92 409.213 908.251 402.035 908.871 402.234C909.491 402.433 907.321 401.536 908.871 399.841C910.11 398.485 912.624 397.481 913.726 397.149L946.782 383.29L957.628 379.003L964.653 376.41C965.686 375.978 968.041 375.134 969.198 375.214C970.644 375.314 972.917 375.114 973.02 378.105C973.103 380.498 971.953 388.741 971.367 392.563L966.409 420.879C966.03 422.441 965.211 425.585 963.723 426.462C961.864 427.559 958.868 426.562 956.595 425.366C954.777 424.408 943.649 416.99 938.311 413.401C937.451 412.67 935.853 410.908 936.349 409.712C936.968 408.216 937.485 407.947 954.736 391.865C958.074 388.753 957.112 388.674 956.802 388.475C955.769 388.076 939.488 398.083 928.498 405.624Z" fill="white" stroke="white"/>
<rect x="843" y="193" width="102.261" height="102.261" rx="31" fill="#FF204E"/>
<path d="M898.48 224.123H887.461V254.381C876.258 247.598 873.047 240.89 872.383 224.123H860.784C864.36 256.598 872.621 266.324 898.48 268.584V252.529C907.3 253.1 910.82 257.428 915.878 268.584H927.476C925.707 259.651 923.337 254.645 910.658 245.736C919.705 239.251 922.466 234.368 924.576 224.123H913.558C909.66 234.553 906.327 238.095 898.48 240.796V224.123Z" fill="white" stroke="white"/>
<path d="M378.5 369C437 437 458 463.5 512 567" stroke="#1C1C1C"/>
<path d="M703.414 696.771L669.338 703.241L666.972 690.801C666.849 690.167 666.793 689.477 666.812 688.729C666.812 687.982 666.916 687.235 667.086 686.468C667.266 685.702 667.54 684.955 667.909 684.226C668.278 683.498 668.77 682.817 669.376 682.192C669.982 681.568 670.71 681.019 671.571 680.556C672.432 680.092 673.435 679.742 674.59 679.524L689.749 676.649C690.658 676.478 691.292 676.119 691.651 675.58C692.001 675.04 692.096 674.331 691.926 673.451L691.358 670.48C691.188 669.563 690.828 668.92 690.298 668.541C689.759 668.163 689.059 668.049 688.197 668.219L666.594 672.325L665.316 665.599L686.92 661.493C688.055 661.276 689.115 661.228 690.081 661.351C691.046 661.474 691.935 661.711 692.721 662.07C693.516 662.43 694.216 662.884 694.84 663.423C695.465 663.962 695.995 664.558 696.449 665.192C696.903 665.826 697.263 666.498 697.547 667.179C697.831 667.869 698.029 668.522 698.143 669.147L698.72 672.174C699.051 673.915 699.013 675.447 698.616 676.762C698.209 678.077 697.613 679.203 696.809 680.13C696.004 681.057 695.086 681.795 694.055 682.344C693.023 682.883 692.03 683.252 691.084 683.432L675.867 686.326C675.319 686.43 674.893 686.591 674.59 686.809C674.287 687.026 674.079 687.282 673.946 687.575C673.814 687.868 673.738 688.19 673.71 688.531C673.682 688.871 673.682 689.212 673.691 689.552L674.779 695.266L702.127 690.073L703.404 696.799L703.414 696.771Z" fill="#F2F2F2"/>
<path d="M748.324 657.917C749.043 659.28 749.554 660.661 749.857 662.07C750.16 663.48 750.264 664.861 750.179 666.242C750.094 667.614 749.838 668.948 749.403 670.235C748.968 671.521 748.39 672.723 747.671 673.848C746.952 674.974 746.091 676.005 745.088 676.932C744.085 677.86 742.987 678.645 741.776 679.288L730.865 685.078C729.645 685.731 728.367 686.204 727.033 686.516C725.708 686.818 724.374 686.96 723.03 686.923C721.686 686.885 720.371 686.686 719.065 686.327C717.759 685.967 716.52 685.428 715.337 684.728C714.154 684.018 713.075 683.157 712.072 682.117C711.079 681.086 710.218 679.884 709.498 678.522L706.612 673.082C705.524 671.039 704.918 668.957 704.776 666.838C704.644 664.729 704.89 662.714 705.524 660.793C706.158 658.882 707.133 657.132 708.448 655.543C709.763 653.963 711.334 652.686 713.17 651.711L724.081 645.922C725.292 645.278 726.56 644.805 727.885 644.503C729.209 644.2 730.544 644.058 731.887 644.096C733.231 644.134 734.546 644.332 735.852 644.692C737.158 645.051 738.407 645.581 739.59 646.281C740.773 646.981 741.871 647.852 742.864 648.883C743.858 649.914 744.719 651.115 745.438 652.478L748.324 657.917ZM739.335 655.713C738.701 654.521 737.906 653.547 736.959 652.799C736.004 652.052 734.982 651.522 733.893 651.21C732.805 650.898 731.679 650.803 730.544 650.936C729.399 651.068 728.31 651.418 727.279 651.976L716.368 657.766C715.356 658.286 714.466 658.977 713.7 659.847C712.943 660.718 712.375 661.692 712.006 662.77C711.637 663.849 711.495 665.003 711.571 666.223C711.646 667.444 712.015 668.655 712.649 669.866L715.536 675.305C716.179 676.516 716.974 677.491 717.93 678.238C718.885 678.985 719.907 679.506 721.005 679.808C722.103 680.111 723.229 680.196 724.374 680.064C725.528 679.931 726.617 679.581 727.648 679.014L738.559 673.224C739.751 672.59 740.726 671.824 741.492 670.906C742.249 669.998 742.788 669.014 743.101 667.955C743.413 666.895 743.498 665.779 743.356 664.615C743.214 663.452 742.836 662.288 742.23 661.143L739.344 655.704L739.335 655.713ZM734.357 652.686C734.773 652.903 735.124 653.187 735.407 653.547C735.691 653.906 735.9 654.285 736.023 654.71C736.146 655.136 736.183 655.571 736.136 656.025C736.089 656.479 735.947 656.915 735.71 657.34L725.169 676.914C725.008 677.254 724.819 677.538 724.582 677.765C724.345 677.992 724.081 678.181 723.787 678.342C723.286 678.607 722.756 678.739 722.179 678.749C721.601 678.749 721.062 678.616 720.56 678.333C720.144 678.115 719.794 677.831 719.51 677.472C719.226 677.122 719.018 676.734 718.885 676.318C718.753 675.901 718.706 675.466 718.744 675.021C718.781 674.577 718.923 674.142 719.16 673.716L729.749 654.124C729.966 653.707 730.25 653.357 730.61 653.074C730.969 652.79 731.357 652.582 731.774 652.459C732.2 652.336 732.625 652.298 733.08 652.336C733.524 652.374 733.96 652.506 734.376 652.724L734.357 652.686Z" fill="#F2F2F2"/>
<path d="M791.266 641.201L765.366 664.265L756.935 654.805C756.5 654.322 756.102 653.755 755.724 653.111C755.355 652.468 755.042 651.768 754.796 651.021C754.56 650.273 754.408 649.488 754.342 648.675C754.285 647.861 754.352 647.028 754.55 646.177C754.749 645.326 755.099 644.484 755.591 643.642C756.093 642.8 756.774 641.986 757.654 641.201L769.18 630.937C769.871 630.322 770.24 629.688 770.259 629.045C770.287 628.401 769.994 627.739 769.407 627.077L767.391 624.816C766.767 624.125 766.133 623.747 765.48 623.699C764.827 623.652 764.174 623.917 763.512 624.504L747.094 639.129L742.542 634.021L758.96 619.395C759.831 618.629 760.701 618.042 761.6 617.645C762.499 617.247 763.37 617.002 764.24 616.897C765.101 616.793 765.943 616.822 766.757 616.964C767.571 617.115 768.338 617.342 769.047 617.654C769.757 617.966 770.419 618.345 771.016 618.79C771.612 619.234 772.123 619.688 772.539 620.161L774.592 622.46C775.775 623.785 776.523 625.118 776.864 626.452C777.195 627.786 777.261 629.063 777.043 630.274C776.835 631.485 776.419 632.592 775.813 633.585C775.208 634.579 774.545 635.402 773.826 636.045L762.262 646.347C761.846 646.726 761.562 647.076 761.42 647.416C761.278 647.757 761.222 648.088 761.259 648.4C761.297 648.722 761.392 649.034 761.553 649.337C761.714 649.649 761.874 649.942 762.064 650.226L765.934 654.568L786.714 636.055L791.266 641.163V641.201Z" fill="#F2F2F2"/>
<path d="M812.974 599.737C813.485 600.143 813.967 600.626 814.44 601.193C814.914 601.761 815.32 602.385 815.68 603.086C816.04 603.786 816.314 604.524 816.513 605.328C816.712 606.122 816.787 606.955 816.73 607.825C816.683 608.695 816.484 609.585 816.134 610.502C815.784 611.42 815.254 612.328 814.535 613.236L798.921 632.885L793.556 628.628L809.17 608.979C809.7 608.308 809.908 607.626 809.785 606.936C809.662 606.245 809.293 605.649 808.668 605.157L806.274 603.256C805.574 602.698 804.893 602.452 804.24 602.518C803.587 602.584 802.972 602.972 802.404 603.681L792.799 615.762C791.692 617.153 790.519 618.127 789.251 618.676C787.992 619.234 786.743 619.509 785.522 619.499C784.301 619.49 783.138 619.272 782.049 618.837C780.952 618.402 780.034 617.891 779.277 617.285L769.341 609.386L788.967 584.685L794.323 588.942L778.955 608.279L783.535 611.912C784.254 612.48 784.935 612.716 785.588 612.631C786.241 612.546 786.847 612.148 787.405 611.448L797.038 599.33C797.625 598.592 798.41 597.882 799.376 597.22C800.341 596.558 801.42 596.085 802.612 595.811C803.804 595.536 805.082 595.527 806.444 595.792C807.807 596.057 809.179 596.738 810.57 597.845L812.964 599.746L812.974 599.737Z" fill="#F2F2F2"/>
<g filter="url(#filter0_d_78_1052)">
<path d="M280.589 662.896L290.588 656.324C292.438 655.108 293.989 655.454 295.224 657.332L304.969 672.158C306.184 674.008 305.521 675.768 304.018 676.756C302.515 677.744 300.607 677.674 299.391 675.824L291.489 663.802L287.096 666.689L294.998 678.711C296.214 680.561 295.521 682.341 294.018 683.328C292.516 684.316 290.636 684.227 289.421 682.377L279.676 667.552C278.441 665.673 278.739 664.112 280.589 662.896Z" fill="black"/>
<path d="M306.474 654.1L314.497 666.291C315.771 668.227 315.474 669.789 313.596 671.024C311.718 672.26 310.137 671.934 308.901 670.056L299.168 655.265C297.932 653.387 298.2 651.845 300.02 650.647L305.74 646.883C310.622 643.67 314.491 644.767 317.134 648.783C319.567 652.48 319.321 656.699 315.797 659.019L314.815 659.665C312.966 660.882 311.722 660.376 310.752 658.902C309.783 657.429 310.241 656.175 311.483 655.358L311.945 655.054C312.899 654.426 313.153 653.555 312.469 652.515C311.708 651.359 310.692 651.324 309.507 652.104L306.474 654.1Z" fill="black"/>
<path d="M322.927 651.68C319.017 646.017 320.426 638.32 326.09 634.409C331.753 630.499 339.479 631.889 343.389 637.552C347.3 643.215 345.862 650.933 340.198 654.843C334.535 658.753 326.837 657.344 322.927 651.68ZM328.593 647.895C330.381 650.484 333.853 651.071 336.415 649.302C338.976 647.534 339.687 644.059 337.899 641.469C336.111 638.879 332.57 638.256 330.009 640.024C327.448 641.793 326.804 645.305 328.593 647.895Z" fill="black"/>
<path d="M343.508 624.294L349.325 620.552C351.07 619.43 352.843 620.14 353.835 621.681C354.826 623.223 354.719 625.101 352.974 626.224L349.978 628.151L357.762 640.25C358.959 642.112 358.249 643.884 356.736 644.857C355.224 645.83 353.346 645.723 352.148 643.861L342.55 628.941C341.333 627.05 341.647 625.492 343.508 624.294Z" fill="black"/>
<path d="M365.304 617.479L373.468 629.576C374.764 631.497 374.485 633.062 372.621 634.32C370.758 635.577 369.174 635.269 367.916 633.406L358.012 618.728C356.755 616.865 357.005 615.319 358.811 614.1L364.487 610.27C369.332 607.001 373.213 608.054 375.902 612.038C378.378 615.708 378.181 619.929 374.683 622.289L373.709 622.947C371.874 624.185 370.624 623.693 369.638 622.231C368.651 620.769 369.095 619.51 370.328 618.678L370.786 618.369C371.732 617.731 371.977 616.856 371.281 615.824C370.507 614.678 369.49 614.655 368.315 615.448L365.304 617.479Z" fill="black"/>
<path d="M386.999 606.418L388.065 611.029L390.732 609.169L386.999 606.418ZM397.58 614.091L395.262 612.46L389.362 616.576L390.006 619.373C390.318 620.969 389.778 622.189 388.842 622.842C387.367 623.871 385.151 623.898 384.043 622.31C383.707 621.827 383.506 621.419 383.47 621.065L379.893 601.55C379.654 600.24 379.795 599.172 381.298 598.124C382.745 597.115 383.824 597.332 384.962 598.056L401.425 608.541C401.765 608.726 402.079 609.055 402.395 609.509C403.444 611.012 402.74 613.147 401.266 614.176C400.046 615.027 398.836 614.985 397.58 614.091Z" fill="black"/>
<path d="M454.412 559.38L455.478 563.992L458.145 562.132L454.412 559.38ZM464.993 567.053L462.675 565.423L456.775 569.539L457.419 572.336C457.731 573.932 457.191 575.152 456.255 575.805C454.78 576.834 452.564 576.861 451.456 575.273C451.12 574.79 450.919 574.382 450.883 574.028L447.306 554.512C447.068 553.203 447.208 552.135 448.711 551.087C450.158 550.078 451.237 550.295 452.375 551.019L468.838 561.504C469.178 561.689 469.492 562.018 469.808 562.472C470.857 563.975 470.154 566.11 468.679 567.139C467.459 567.99 466.249 567.948 464.993 567.053Z" fill="black"/>
<path d="M412.402 596.392C411.671 596.916 410.715 597.007 409.58 596.672L405.661 595.483L411.732 603.939C413.003 605.709 412.424 607.572 410.992 608.601C409.503 609.67 407.573 609.65 406.282 607.852L395.976 593.496C394.665 591.67 395.275 589.615 396.764 588.546C397.747 587.84 399.13 587.571 400.477 587.966L407.924 590.155L408.259 582.379C408.316 580.976 408.985 579.772 409.968 579.066C411.457 577.997 413.628 578.056 414.939 579.882L425.245 594.238C426.536 596.036 425.937 597.871 424.449 598.94C422.988 599.989 421.086 599.949 419.795 598.151L413.724 589.695L413.626 593.768C413.605 595.102 413.16 595.847 412.402 596.392Z" fill="black"/>
<path d="M434.999 579.845C434.276 580.379 433.32 580.482 432.182 580.161L428.248 579.023L434.427 587.4C435.721 589.154 435.166 591.024 433.747 592.071C432.272 593.159 430.342 593.164 429.028 591.383L418.538 577.161C417.203 575.352 417.787 573.289 419.262 572.201C420.236 571.482 421.615 571.196 422.968 571.573L430.442 573.666L430.677 565.887C430.716 564.483 431.369 563.271 432.343 562.552C433.818 561.464 435.989 561.495 437.324 563.304L447.814 577.526C449.128 579.307 448.553 581.15 447.078 582.238C445.631 583.305 443.729 583.29 442.415 581.509L436.236 573.131L436.189 577.205C436.186 578.54 435.751 579.291 434.999 579.845Z" fill="black"/>
</g>
<g filter="url(#filter1_d_78_1052)">
<path d="M223.393 590.989L230.621 603.668C231.769 605.681 231.373 607.22 229.42 608.334C227.467 609.447 225.91 609.021 224.797 607.068L216.027 591.686C214.913 589.733 215.279 588.211 217.172 587.131L223.121 583.74C228.198 580.845 231.989 582.187 234.37 586.363C236.562 590.209 236.048 594.403 232.383 596.493L231.361 597.075C229.438 598.172 228.229 597.587 227.356 596.055C226.482 594.523 227.019 593.301 228.311 592.564L228.792 592.29C229.783 591.725 230.093 590.871 229.476 589.79C228.791 588.588 227.779 588.489 226.547 589.191L223.393 590.989Z" fill="black"/>
<path d="M259.382 591.587L249.471 597.245C247.548 598.343 246.021 597.9 244.907 595.948L236.197 580.691C235.082 578.739 235.477 577.199 237.4 576.101L247.311 570.443C249.143 569.397 250.996 570.132 251.904 571.723C252.813 573.315 252.504 575.284 250.671 576.33L243.674 580.325L244.822 582.337L250.649 579.011C252.331 578.051 254.025 578.716 254.848 580.158C255.671 581.599 255.383 583.397 253.701 584.357L247.874 587.683L249.04 589.726L256.038 585.73C257.87 584.685 259.706 585.389 260.615 586.981C261.523 588.572 261.214 590.541 259.382 591.587Z" fill="black"/>
<path d="M258.707 564.312L264.636 560.75C266.415 559.682 268.165 560.446 269.109 562.017C270.053 563.588 269.888 565.462 268.109 566.531L265.056 568.365L272.465 580.698C273.605 582.595 272.841 584.345 271.299 585.271C269.758 586.197 267.883 586.032 266.743 584.135L257.607 568.927C256.449 567 256.81 565.452 258.707 564.312Z" fill="black"/>
<path d="M280.112 555.308L283.95 562.196L284.886 550.946C284.995 549.578 285.693 548.556 286.69 548.001C288.109 547.21 290.045 547.556 291.055 549.369L299.858 565.169C300.868 566.982 300.138 568.655 298.658 569.48C297.087 570.356 295.28 570.096 294.27 568.283L290.415 561.365L289.508 572.599C289.403 574.043 288.658 575.052 287.692 575.591C286.272 576.382 284.306 576.052 283.279 574.209L274.492 558.439C273.482 556.627 274.243 554.936 275.723 554.111C277.294 553.236 279.102 553.496 280.112 555.308Z" fill="black"/>
<path d="M310.781 542.311L308.663 543.552C305.441 545.442 305.159 548.654 306.524 550.981C307.923 553.367 310.881 554.72 314.073 552.848L316.221 551.589C318.19 550.434 319.972 551.354 320.812 552.786C321.721 554.337 321.571 556.269 319.632 557.406L317.514 558.648C310.563 562.724 304.063 559.639 301.002 554.418C297.906 549.138 298.367 541.651 305.647 537.383L307.318 536.403C309.227 535.284 311.128 536.134 312.003 537.625C312.895 539.147 312.69 541.191 310.781 542.311Z" fill="black"/>
<path d="M328.581 532.495L336.031 544.763C337.18 546.654 336.442 548.438 334.875 549.389C333.338 550.323 331.445 550.137 330.296 548.245L322.846 535.978L320.836 537.198C319.033 538.293 317.161 537.61 316.21 536.043C315.258 534.476 315.515 532.5 317.318 531.405L327.013 525.517C328.817 524.422 330.718 525.088 331.669 526.654C332.621 528.221 332.335 530.215 330.532 531.31L328.581 532.495Z" fill="black"/>
<path d="M343.407 523.5L351.151 535.87C352.381 537.834 352.048 539.388 350.143 540.581C348.238 541.774 346.665 541.412 345.472 539.507L336.076 524.499C334.883 522.593 335.186 521.057 337.033 519.901L342.837 516.267C347.791 513.166 351.633 514.351 354.184 518.425C356.533 522.177 356.192 526.39 352.616 528.629L351.619 529.253C349.743 530.427 348.511 529.893 347.575 528.398C346.639 526.903 347.126 525.66 348.386 524.871L348.855 524.577C349.822 523.971 350.097 523.106 349.436 522.051C348.702 520.878 347.687 520.82 346.485 521.573L343.407 523.5Z" fill="black"/>
<path d="M366.005 514.073L366.901 518.721L369.634 516.961L366.005 514.073ZM376.296 522.131L374.04 520.416L367.993 524.312L368.533 527.131C368.786 528.737 368.201 529.937 367.242 530.555C365.73 531.528 363.515 531.474 362.466 529.846C362.148 529.352 361.962 528.936 361.939 528.581L359.083 508.947C358.893 507.63 359.073 506.568 360.614 505.575C362.096 504.62 363.167 504.877 364.277 505.643L380.343 516.727C380.676 516.924 380.977 517.264 381.277 517.729C382.27 519.27 381.488 521.378 379.976 522.352C378.726 523.157 377.519 523.071 376.296 522.131Z" fill="black"/>
<path d="M398.253 508.943L388.265 515.532C386.417 516.751 384.865 516.407 383.627 514.531L373.858 499.722C372.696 497.961 373.3 496.112 374.801 495.122C376.302 494.132 378.268 494.285 379.429 496.046L387.352 508.055L391.74 505.161L383.817 493.152C382.656 491.391 383.288 489.523 384.789 488.533C386.291 487.543 388.227 487.715 389.389 489.476L397.34 501.466C399.188 500.248 400.74 500.591 401.978 502.467L404.625 506.48C405.843 508.327 405.183 510.089 403.681 511.079C402.18 512.07 400.272 512.003 399.053 510.155L398.253 508.943Z" fill="black"/>
<path d="M402.533 482.399L406.946 488.933L406.917 477.644C406.908 476.272 407.516 475.194 408.462 474.555C409.809 473.646 411.766 473.826 412.928 475.545L423.051 490.535C424.212 492.254 423.628 493.984 422.223 494.933C420.733 495.939 418.91 495.835 417.749 494.115L413.316 487.552L413.374 498.822C413.392 500.271 412.737 501.339 411.82 501.959C410.473 502.868 408.486 502.708 407.306 500.959L397.202 485.999C396.041 484.279 396.654 482.53 398.058 481.581C399.548 480.575 401.371 480.679 402.533 482.399Z" fill="black"/>
<path d="M433.37 477.301L434.092 485.888C434.166 487.28 433.546 488.297 432.616 488.897C431.104 489.871 428.833 489.731 427.765 488.074C427.446 487.58 427.18 486.846 427.222 485.955L427.19 479.968C424.707 480.458 421.932 479.408 420.133 476.617C418.128 473.507 418.274 469.01 423.07 465.918L429.146 462.002C430.977 460.822 432.496 461.2 433.714 463.09L443.233 477.856C444.432 479.716 444.197 481.267 442.221 482.541C440.331 483.759 438.783 483.399 437.527 481.452L429.695 469.301L426.672 471.25C425.422 472.056 425.142 472.771 425.817 473.817C426.548 474.951 427.427 475.166 428.502 474.473L428.88 474.229C430.246 473.349 431.689 473.735 432.645 475.218C433.282 476.206 433.349 476.821 433.37 477.301Z" fill="black"/>
</g>
<g filter="url(#filter2_d_78_1052)">
<path d="M120.412 534.633C118.561 528.005 122.403 521.187 129.032 519.337C135.661 517.486 142.511 521.319 144.362 527.948C146.212 534.576 142.337 541.403 135.708 543.253C129.08 545.104 122.262 541.262 120.412 534.633ZM127.002 532.901C127.848 535.933 130.94 537.619 133.938 536.782C136.936 535.945 138.74 532.892 137.894 529.861C137.048 526.83 133.904 525.086 130.906 525.923C127.908 526.76 126.156 529.87 127.002 532.901Z" fill="black"/>
<path d="M174.936 515.864C174.12 516.24 173.163 516.148 172.113 515.605L168.49 513.696L172.85 523.148C173.763 525.127 172.842 526.846 171.241 527.585C169.576 528.353 167.685 527.968 166.758 525.959L159.355 509.912C158.414 507.87 159.402 505.967 161.066 505.199C162.166 504.692 163.574 504.69 164.822 505.333L171.72 508.892L173.521 501.32C173.843 499.953 174.727 498.898 175.826 498.391C177.49 497.623 179.611 498.092 180.553 500.133L187.955 516.18C188.882 518.19 187.947 519.878 186.283 520.646C184.65 521.399 182.79 521.001 181.863 518.991L177.503 509.538L176.635 513.519C176.361 514.825 175.784 515.473 174.936 515.864Z" fill="black"/>
<path d="M207.479 509.94L197.119 514.726C195.11 515.655 193.626 515.083 192.684 513.042L185.316 497.093C184.373 495.052 184.899 493.552 186.908 492.624L197.269 487.838C199.184 486.953 200.967 487.844 201.735 489.508C202.504 491.172 202.027 493.106 200.111 493.991L192.796 497.371L193.768 499.474L199.859 496.66C201.617 495.848 203.248 496.657 203.944 498.164C204.64 499.671 204.199 501.436 202.44 502.249L196.35 505.062L197.336 507.197L204.651 503.818C206.566 502.933 208.335 503.792 209.103 505.456C209.872 507.12 209.394 509.055 207.479 509.94Z" fill="black"/>
<path d="M213.472 487.661L219.362 501.014C220.297 503.134 219.745 504.625 217.688 505.532C215.631 506.439 214.126 505.856 213.219 503.799L206.074 487.598C205.167 485.541 205.687 484.064 207.68 483.185L213.946 480.422C219.293 478.063 222.926 479.787 224.866 484.185C226.653 488.236 225.71 492.355 221.85 494.058L220.774 494.533C218.749 495.426 217.606 494.72 216.894 493.106C216.183 491.493 216.843 490.332 218.203 489.732L218.71 489.509C219.754 489.048 220.149 488.231 219.647 487.092C219.089 485.826 218.092 485.623 216.795 486.196L213.472 487.661Z" fill="black"/>
<path d="M229.171 487.576C226.35 481.299 229.129 473.983 235.406 471.162C241.684 468.341 249.03 471.105 251.852 477.383C254.673 483.66 251.863 490.99 245.585 493.811C239.308 496.632 231.993 493.853 229.171 487.576ZM235.428 484.878C236.718 487.748 240.028 488.953 242.867 487.677C245.706 486.401 247.033 483.112 245.743 480.242C244.453 477.371 241.084 476.118 238.245 477.394C235.406 478.67 234.138 482.007 235.428 484.878Z" fill="black"/>
<path d="M251.956 464.118L262.494 458.45C264.444 457.401 265.959 457.882 267.024 459.862L275.427 475.487C276.475 477.436 275.66 479.132 274.076 479.984C272.492 480.835 270.597 480.598 269.549 478.649L262.734 465.978L258.105 468.468L264.919 481.138C265.967 483.088 265.121 484.8 263.537 485.651C261.953 486.503 260.089 486.249 259.041 484.3L250.637 468.675C249.573 466.695 250.007 465.166 251.956 464.118Z" fill="black"/>
<path d="M278.172 457.598L285.091 470.448C286.189 472.488 285.756 474.017 283.777 475.083C281.797 476.149 280.251 475.685 279.186 473.706L270.791 458.115C269.725 456.136 270.128 454.623 272.047 453.59L278.076 450.344C283.222 447.573 286.979 449.006 289.258 453.239C291.357 457.137 290.74 461.318 287.026 463.318L285.99 463.875C284.041 464.925 282.847 464.311 282.011 462.758C281.175 461.205 281.741 459.996 283.051 459.291L283.538 459.029C284.543 458.488 284.873 457.642 284.283 456.546C283.627 455.328 282.617 455.204 281.369 455.876L278.172 457.598Z" fill="black"/>
<path d="M295.59 444.369L299.184 451.387L300.514 440.176C300.671 438.814 301.403 437.817 302.419 437.296C303.866 436.555 305.788 436.97 306.734 438.817L314.98 454.915C315.926 456.762 315.137 458.409 313.629 459.181C312.029 460.001 310.231 459.678 309.285 457.832L305.675 450.783L304.376 461.978C304.22 463.418 303.441 464.4 302.456 464.905C301.009 465.646 299.056 465.247 298.095 463.369L289.864 447.302C288.918 445.455 289.737 443.792 291.246 443.02C292.846 442.2 294.644 442.523 295.59 444.369Z" fill="black"/>
<path d="M325.687 442.556L325.665 451.174C325.619 452.567 324.914 453.527 323.935 454.044C322.345 454.884 320.095 454.549 319.173 452.806C318.899 452.286 318.696 451.533 318.815 450.648L319.299 444.681C316.784 444.955 314.109 443.669 312.558 440.734C310.828 437.462 311.362 432.995 316.407 430.328L322.797 426.95C324.723 425.932 326.204 426.44 327.255 428.428L335.465 443.96C336.499 445.916 336.131 447.441 334.052 448.54C332.065 449.59 330.553 449.099 329.47 447.05L322.715 434.27L319.535 435.951C318.22 436.645 317.88 437.334 318.462 438.435C319.092 439.627 319.949 439.917 321.081 439.319L321.478 439.109C322.915 438.349 324.319 438.859 325.143 440.418C325.693 441.458 325.707 442.076 325.687 442.556Z" fill="black"/>
<path d="M343.002 423.728L349.847 436.343C350.903 438.288 350.079 440.033 348.468 440.908C346.887 441.765 345.006 441.488 343.95 439.542L337.105 426.928L335.038 428.049C333.184 429.056 331.347 428.282 330.473 426.671C329.599 425.059 329.951 423.098 331.805 422.092L341.775 416.682C343.629 415.675 345.496 416.433 346.37 418.044C347.245 419.655 346.862 421.633 345.008 422.639L343.002 423.728Z" fill="black"/>
<path d="M354.76 412.942L358.596 419.832L359.536 408.581C359.646 407.214 360.343 406.192 361.34 405.637C362.761 404.846 364.696 405.194 365.705 407.007L374.503 422.81C375.513 424.623 374.782 426.296 373.301 427.121C371.73 427.996 369.923 427.735 368.913 425.922L365.061 419.003L364.151 430.236C364.045 431.681 363.3 432.689 362.333 433.227C360.913 434.018 358.948 433.687 357.921 431.844L349.14 416.071C348.13 414.258 348.891 412.568 350.372 411.744C351.943 410.869 353.751 411.129 354.76 412.942Z" fill="black"/>
<path d="M375.485 400.965L379.172 407.935L380.353 396.707C380.492 395.342 381.211 394.336 382.22 393.802C383.657 393.042 385.584 393.431 386.554 395.265L395.012 411.253C395.983 413.087 395.216 414.745 393.718 415.537C392.129 416.378 390.327 416.079 389.357 414.245L385.654 407.244L384.503 418.456C384.366 419.898 383.6 420.89 382.622 421.408C381.185 422.168 379.227 421.795 378.241 419.93L369.799 403.973C368.828 402.139 369.625 400.465 371.123 399.673C372.713 398.832 374.514 399.131 375.485 400.965Z" fill="black"/>
</g>
<g filter="url(#filter3_d_78_1052)">
<path d="M280.589 662.896L290.588 656.324C292.438 655.108 293.989 655.454 295.224 657.332L304.969 672.158C306.184 674.008 305.521 675.768 304.018 676.756C302.515 677.744 300.607 677.674 299.391 675.824L291.489 663.802L287.096 666.689L294.998 678.711C296.214 680.561 295.521 682.341 294.018 683.328C292.516 684.316 290.636 684.227 289.421 682.377L279.676 667.552C278.441 665.673 278.739 664.112 280.589 662.896Z" fill="black"/>
<path d="M306.474 654.1L314.497 666.291C315.771 668.227 315.474 669.789 313.596 671.024C311.718 672.26 310.137 671.934 308.901 670.056L299.168 655.265C297.932 653.387 298.2 651.845 300.02 650.647L305.74 646.883C310.622 643.67 314.491 644.767 317.134 648.783C319.567 652.48 319.321 656.699 315.797 659.019L314.815 659.665C312.966 660.882 311.722 660.376 310.752 658.902C309.783 657.429 310.241 656.175 311.483 655.358L311.945 655.054C312.899 654.426 313.153 653.555 312.469 652.515C311.708 651.359 310.692 651.324 309.507 652.104L306.474 654.1Z" fill="black"/>
<path d="M322.927 651.68C319.017 646.017 320.426 638.32 326.09 634.409C331.753 630.499 339.479 631.889 343.389 637.552C347.3 643.215 345.862 650.933 340.198 654.843C334.535 658.753 326.837 657.344 322.927 651.68ZM328.593 647.895C330.381 650.484 333.853 651.071 336.415 649.302C338.976 647.534 339.687 644.059 337.899 641.469C336.111 638.879 332.57 638.256 330.009 640.024C327.448 641.793 326.804 645.305 328.593 647.895Z" fill="black"/>
<path d="M343.508 624.294L349.325 620.552C351.07 619.43 352.843 620.14 353.835 621.681C354.826 623.223 354.719 625.101 352.974 626.224L349.978 628.151L357.762 640.25C358.959 642.112 358.249 643.884 356.736 644.857C355.224 645.83 353.346 645.723 352.148 643.861L342.55 628.941C341.333 627.05 341.647 625.492 343.508 624.294Z" fill="black"/>
<path d="M365.304 617.479L373.468 629.576C374.764 631.497 374.485 633.062 372.621 634.32C370.758 635.577 369.174 635.269 367.916 633.406L358.012 618.728C356.755 616.865 357.005 615.319 358.811 614.1L364.487 610.27C369.332 607.001 373.213 608.054 375.902 612.038C378.378 615.708 378.181 619.929 374.683 622.289L373.709 622.947C371.874 624.185 370.624 623.693 369.638 622.231C368.651 620.769 369.095 619.51 370.328 618.678L370.786 618.369C371.732 617.731 371.977 616.856 371.281 615.824C370.507 614.678 369.49 614.655 368.315 615.448L365.304 617.479Z" fill="black"/>
<path d="M386.999 606.418L388.065 611.029L390.732 609.169L386.999 606.418ZM397.58 614.091L395.262 612.46L389.362 616.576L390.006 619.373C390.318 620.969 389.778 622.189 388.842 622.842C387.367 623.871 385.151 623.898 384.043 622.31C383.707 621.827 383.506 621.419 383.47 621.065L379.893 601.55C379.654 600.24 379.795 599.172 381.298 598.124C382.745 597.115 383.824 597.332 384.962 598.056L401.425 608.541C401.765 608.726 402.079 609.055 402.395 609.509C403.444 611.012 402.74 613.147 401.266 614.176C400.046 615.027 398.836 614.985 397.58 614.091Z" fill="black"/>
<path d="M454.412 559.38L455.478 563.992L458.145 562.132L454.412 559.38ZM464.993 567.053L462.675 565.423L456.775 569.539L457.419 572.336C457.731 573.932 457.191 575.152 456.255 575.805C454.78 576.834 452.564 576.861 451.456 575.273C451.12 574.79 450.919 574.382 450.883 574.028L447.306 554.512C447.068 553.203 447.208 552.135 448.711 551.087C450.158 550.078 451.237 550.295 452.375 551.019L468.838 561.504C469.178 561.689 469.492 562.018 469.808 562.472C470.857 563.975 470.154 566.11 468.679 567.139C467.459 567.99 466.249 567.948 464.993 567.053Z" fill="black"/>
<path d="M412.402 596.392C411.671 596.916 410.715 597.007 409.58 596.672L405.661 595.483L411.732 603.939C413.003 605.709 412.424 607.572 410.992 608.601C409.503 609.67 407.573 609.65 406.282 607.852L395.976 593.496C394.665 591.67 395.275 589.615 396.764 588.546C397.747 587.84 399.13 587.571 400.477 587.966L407.924 590.155L408.259 582.379C408.316 580.976 408.985 579.772 409.968 579.066C411.457 577.997 413.628 578.056 414.939 579.882L425.245 594.238C426.536 596.036 425.937 597.871 424.449 598.94C422.988 599.989 421.086 599.949 419.795 598.151L413.724 589.695L413.626 593.768C413.605 595.102 413.16 595.847 412.402 596.392Z" fill="black"/>
<path d="M434.999 579.845C434.276 580.379 433.32 580.482 432.182 580.161L428.248 579.023L434.427 587.4C435.721 589.154 435.166 591.024 433.747 592.071C432.272 593.159 430.342 593.164 429.028 591.383L418.538 577.161C417.203 575.352 417.787 573.289 419.262 572.201C420.236 571.482 421.615 571.196 422.968 571.573L430.442 573.666L430.677 565.887C430.716 564.483 431.369 563.271 432.343 562.552C433.818 561.464 435.989 561.495 437.324 563.304L447.814 577.526C449.128 579.307 448.553 581.15 447.078 582.238C445.631 583.305 443.729 583.29 442.415 581.509L436.236 573.131L436.189 577.205C436.186 578.54 435.751 579.291 434.999 579.845Z" fill="black"/>
</g>
<g filter="url(#filter4_d_78_1052)">
<path d="M223.393 590.989L230.621 603.668C231.769 605.681 231.373 607.22 229.42 608.334C227.467 609.447 225.91 609.021 224.797 607.068L216.027 591.686C214.913 589.733 215.279 588.211 217.172 587.131L223.121 583.74C228.198 580.845 231.989 582.187 234.37 586.363C236.562 590.209 236.048 594.403 232.383 596.493L231.361 597.075C229.438 598.172 228.229 597.587 227.356 596.055C226.482 594.523 227.019 593.301 228.311 592.564L228.792 592.29C229.783 591.725 230.093 590.871 229.476 589.79C228.791 588.588 227.779 588.489 226.547 589.191L223.393 590.989Z" fill="black"/>
<path d="M259.382 591.587L249.471 597.245C247.548 598.343 246.021 597.9 244.907 595.948L236.197 580.691C235.082 578.739 235.477 577.199 237.4 576.101L247.311 570.443C249.143 569.397 250.996 570.132 251.904 571.723C252.813 573.315 252.504 575.284 250.671 576.33L243.674 580.325L244.822 582.337L250.649 579.011C252.331 578.051 254.025 578.716 254.848 580.158C255.671 581.599 255.383 583.397 253.701 584.357L247.874 587.683L249.04 589.726L256.038 585.73C257.87 584.685 259.706 585.389 260.615 586.981C261.523 588.572 261.214 590.541 259.382 591.587Z" fill="black"/>
<path d="M258.707 564.312L264.636 560.75C266.415 559.682 268.165 560.446 269.109 562.017C270.053 563.588 269.888 565.462 268.109 566.531L265.056 568.365L272.465 580.698C273.605 582.595 272.841 584.345 271.299 585.271C269.758 586.197 267.883 586.032 266.743 584.135L257.607 568.927C256.449 567 256.81 565.452 258.707 564.312Z" fill="black"/>
<path d="M280.112 555.308L283.95 562.196L284.886 550.946C284.995 549.578 285.693 548.556 286.69 548.001C288.109 547.21 290.045 547.556 291.055 549.369L299.858 565.169C300.868 566.982 300.138 568.655 298.658 569.48C297.087 570.356 295.28 570.096 294.27 568.283L290.415 561.365L289.508 572.599C289.403 574.043 288.658 575.052 287.692 575.591C286.272 576.382 284.306 576.052 283.279 574.209L274.492 558.439C273.482 556.627 274.243 554.936 275.723 554.111C277.294 553.236 279.102 553.496 280.112 555.308Z" fill="black"/>
<path d="M310.781 542.311L308.663 543.552C305.441 545.442 305.159 548.654 306.524 550.981C307.923 553.367 310.881 554.72 314.073 552.848L316.221 551.589C318.19 550.434 319.972 551.354 320.812 552.786C321.721 554.337 321.571 556.269 319.632 557.406L317.514 558.648C310.563 562.724 304.063 559.639 301.002 554.418C297.906 549.138 298.367 541.651 305.647 537.383L307.318 536.403C309.227 535.284 311.128 536.134 312.003 537.625C312.895 539.147 312.69 541.191 310.781 542.311Z" fill="black"/>
<path d="M328.581 532.495L336.031 544.763C337.18 546.654 336.442 548.438 334.875 549.389C333.338 550.323 331.445 550.137 330.296 548.245L322.846 535.978L320.836 537.198C319.033 538.293 317.161 537.61 316.21 536.043C315.258 534.476 315.515 532.5 317.318 531.405L327.013 525.517C328.817 524.422 330.718 525.088 331.669 526.654C332.621 528.221 332.335 530.215 330.532 531.31L328.581 532.495Z" fill="black"/>
<path d="M343.407 523.5L351.151 535.87C352.381 537.834 352.048 539.388 350.143 540.581C348.238 541.774 346.665 541.412 345.472 539.507L336.076 524.499C334.883 522.593 335.186 521.057 337.033 519.901L342.837 516.267C347.791 513.166 351.633 514.351 354.184 518.425C356.533 522.177 356.192 526.39 352.616 528.629L351.619 529.253C349.743 530.427 348.511 529.893 347.575 528.398C346.639 526.903 347.126 525.66 348.386 524.871L348.855 524.577C349.822 523.971 350.097 523.106 349.436 522.051C348.702 520.878 347.687 520.82 346.485 521.573L343.407 523.5Z" fill="black"/>
<path d="M366.005 514.073L366.901 518.721L369.634 516.961L366.005 514.073ZM376.296 522.131L374.04 520.416L367.993 524.312L368.533 527.131C368.786 528.737 368.201 529.937 367.242 530.555C365.73 531.528 363.515 531.474 362.466 529.846C362.148 529.352 361.962 528.936 361.939 528.581L359.083 508.947C358.893 507.63 359.073 506.568 360.614 505.575C362.096 504.62 363.167 504.877 364.277 505.643L380.343 516.727C380.676 516.924 380.977 517.264 381.277 517.729C382.27 519.27 381.488 521.378 379.976 522.352C378.726 523.157 377.519 523.071 376.296 522.131Z" fill="black"/>
<path d="M398.253 508.943L388.265 515.532C386.417 516.751 384.865 516.407 383.627 514.531L373.858 499.722C372.696 497.961 373.3 496.112 374.801 495.122C376.302 494.132 378.268 494.285 379.429 496.046L387.352 508.055L391.74 505.161L383.817 493.152C382.656 491.391 383.288 489.523 384.789 488.533C386.291 487.543 388.227 487.715 389.389 489.476L397.34 501.466C399.188 500.248 400.74 500.591 401.978 502.467L404.625 506.48C405.843 508.327 405.183 510.089 403.681 511.079C402.18 512.07 400.272 512.003 399.053 510.155L398.253 508.943Z" fill="black"/>
<path d="M402.533 482.399L406.946 488.933L406.917 477.644C406.908 476.272 407.516 475.194 408.462 474.555C409.809 473.646 411.766 473.826 412.928 475.545L423.051 490.535C424.212 492.254 423.628 493.984 422.223 494.933C420.733 495.939 418.91 495.835 417.749 494.115L413.316 487.552L413.374 498.822C413.392 500.271 412.737 501.339 411.82 501.959C410.473 502.868 408.486 502.708 407.306 500.959L397.202 485.999C396.041 484.279 396.654 482.53 398.058 481.581C399.548 480.575 401.371 480.679 402.533 482.399Z" fill="black"/>
<path d="M433.37 477.301L434.092 485.888C434.166 487.28 433.546 488.297 432.616 488.897C431.104 489.871 428.833 489.731 427.765 488.074C427.446 487.58 427.18 486.846 427.222 485.955L427.19 479.968C424.707 480.458 421.932 479.408 420.133 476.617C418.128 473.507 418.274 469.01 423.07 465.918L429.146 462.002C430.977 460.822 432.496 461.2 433.714 463.09L443.233 477.856C444.432 479.716 444.197 481.267 442.221 482.541C440.331 483.759 438.783 483.399 437.527 481.452L429.695 469.301L426.672 471.25C425.422 472.056 425.142 472.771 425.817 473.817C426.548 474.951 427.427 475.166 428.502 474.473L428.88 474.229C430.246 473.349 431.689 473.735 432.645 475.218C433.282 476.206 433.349 476.821 433.37 477.301Z" fill="black"/>
</g>
<g filter="url(#filter5_d_78_1052)">
<path d="M120.412 534.633C118.561 528.005 122.403 521.187 129.032 519.337C135.661 517.486 142.511 521.319 144.362 527.948C146.212 534.576 142.337 541.403 135.708 543.253C129.08 545.104 122.262 541.262 120.412 534.633ZM127.002 532.901C127.848 535.933 130.94 537.619 133.938 536.782C136.936 535.945 138.74 532.892 137.894 529.861C137.048 526.83 133.904 525.086 130.906 525.923C127.908 526.76 126.156 529.87 127.002 532.901Z" fill="black"/>
<path d="M174.936 515.864C174.12 516.24 173.163 516.148 172.113 515.605L168.49 513.696L172.85 523.148C173.763 525.127 172.842 526.846 171.241 527.585C169.576 528.353 167.685 527.968 166.758 525.959L159.355 509.912C158.414 507.87 159.402 505.967 161.066 505.199C162.166 504.692 163.574 504.69 164.822 505.333L171.72 508.892L173.521 501.32C173.843 499.953 174.727 498.898 175.826 498.391C177.49 497.623 179.611 498.092 180.553 500.133L187.955 516.18C188.882 518.19 187.947 519.878 186.283 520.646C184.65 521.399 182.79 521.001 181.863 518.991L177.503 509.538L176.635 513.519C176.361 514.825 175.784 515.473 174.936 515.864Z" fill="black"/>
<path d="M207.479 509.94L197.119 514.726C195.11 515.655 193.626 515.083 192.684 513.042L185.316 497.093C184.373 495.052 184.899 493.552 186.908 492.624L197.269 487.838C199.184 486.953 200.967 487.844 201.735 489.508C202.504 491.172 202.027 493.106 200.111 493.991L192.796 497.371L193.768 499.474L199.859 496.66C201.617 495.848 203.248 496.657 203.944 498.164C204.64 499.671 204.199 501.436 202.44 502.249L196.35 505.062L197.336 507.197L204.651 503.818C206.566 502.933 208.335 503.792 209.103 505.456C209.872 507.12 209.394 509.055 207.479 509.94Z" fill="black"/>
<path d="M213.472 487.661L219.362 501.014C220.297 503.134 219.745 504.625 217.688 505.532C215.631 506.439 214.126 505.856 213.219 503.799L206.074 487.598C205.167 485.541 205.687 484.064 207.68 483.185L213.946 480.422C219.293 478.063 222.926 479.787 224.866 484.185C226.653 488.236 225.71 492.355 221.85 494.058L220.774 494.533C218.749 495.426 217.606 494.72 216.894 493.106C216.183 491.493 216.843 490.332 218.203 489.732L218.71 489.509C219.754 489.048 220.149 488.231 219.647 487.092C219.089 485.826 218.092 485.623 216.795 486.196L213.472 487.661Z" fill="black"/>
<path d="M229.171 487.576C226.35 481.299 229.129 473.983 235.406 471.162C241.684 468.341 249.03 471.105 251.852 477.383C254.673 483.66 251.863 490.99 245.585 493.811C239.308 496.632 231.993 493.853 229.171 487.576ZM235.428 484.878C236.718 487.748 240.028 488.953 242.867 487.677C245.706 486.401 247.033 483.112 245.743 480.242C244.453 477.371 241.084 476.118 238.245 477.394C235.406 478.67 234.138 482.007 235.428 484.878Z" fill="black"/>
<path d="M251.956 464.118L262.494 458.45C264.444 457.401 265.959 457.882 267.024 459.862L275.427 475.487C276.475 477.436 275.66 479.132 274.076 479.984C272.492 480.835 270.597 480.598 269.549 478.649L262.734 465.978L258.105 468.468L264.919 481.138C265.967 483.088 265.121 484.8 263.537 485.651C261.953 486.503 260.089 486.249 259.041 484.3L250.637 468.675C249.573 466.695 250.007 465.166 251.956 464.118Z" fill="black"/>
<path d="M278.172 457.598L285.091 470.448C286.189 472.488 285.756 474.017 283.777 475.083C281.797 476.149 280.251 475.685 279.186 473.706L270.791 458.115C269.725 456.136 270.128 454.623 272.047 453.59L278.076 450.344C283.222 447.573 286.979 449.006 289.258 453.239C291.357 457.137 290.74 461.318 287.026 463.318L285.99 463.875C284.041 464.925 282.847 464.311 282.011 462.758C281.175 461.205 281.741 459.996 283.051 459.291L283.538 459.029C284.543 458.488 284.873 457.642 284.283 456.546C283.627 455.328 282.617 455.204 281.369 455.876L278.172 457.598Z" fill="black"/>
<path d="M295.59 444.369L299.184 451.387L300.514 440.176C300.671 438.814 301.403 437.817 302.419 437.296C303.866 436.555 305.788 436.97 306.734 438.817L314.98 454.915C315.926 456.762 315.137 458.409 313.629 459.181C312.029 460.001 310.231 459.678 309.285 457.832L305.675 450.783L304.376 461.978C304.22 463.418 303.441 464.4 302.456 464.905C301.009 465.646 299.056 465.247 298.095 463.369L289.864 447.302C288.918 445.455 289.737 443.792 291.246 443.02C292.846 442.2 294.644 442.523 295.59 444.369Z" fill="black"/>
<path d="M325.687 442.556L325.665 451.174C325.619 452.567 324.914 453.527 323.935 454.044C322.345 454.884 320.095 454.549 319.173 452.806C318.899 452.286 318.696 451.533 318.815 450.648L319.299 444.681C316.784 444.955 314.109 443.669 312.558 440.734C310.828 437.462 311.362 432.995 316.407 430.328L322.797 426.95C324.723 425.932 326.204 426.44 327.255 428.428L335.465 443.96C336.499 445.916 336.131 447.441 334.052 448.54C332.065 449.59 330.553 449.099 329.47 447.05L322.715 434.27L319.535 435.951C318.22 436.645 317.88 437.334 318.462 438.435C319.092 439.627 319.949 439.917 321.081 439.319L321.478 439.109C322.915 438.349 324.319 438.859 325.143 440.418C325.693 441.458 325.707 442.076 325.687 442.556Z" fill="black"/>
<path d="M343.002 423.728L349.847 436.343C350.903 438.288 350.079 440.033 348.468 440.908C346.887 441.765 345.006 441.488 343.95 439.542L337.105 426.928L335.038 428.049C333.184 429.056 331.347 428.282 330.473 426.671C329.599 425.059 329.951 423.098 331.805 422.092L341.775 416.682C343.629 415.675 345.496 416.433 346.37 418.044C347.245 419.655 346.862 421.633 345.008 422.639L343.002 423.728Z" fill="black"/>
<path d="M354.76 412.942L358.596 419.832L359.536 408.581C359.646 407.214 360.343 406.192 361.34 405.637C362.761 404.846 364.696 405.194 365.705 407.007L374.503 422.81C375.513 424.623 374.782 426.296 373.301 427.121C371.73 427.996 369.923 427.735 368.913 425.922L365.061 419.003L364.151 430.236C364.045 431.681 363.3 432.689 362.333 433.227C360.913 434.018 358.948 433.687 357.921 431.844L349.14 416.071C348.13 414.258 348.891 412.568 350.372 411.744C351.943 410.869 353.751 411.129 354.76 412.942Z" fill="black"/>
<path d="M375.485 400.965L379.172 407.935L380.353 396.707C380.492 395.342 381.211 394.336 382.22 393.802C383.657 393.042 385.584 393.431 386.554 395.265L395.012 411.253C395.983 413.087 395.216 414.745 393.718 415.537C392.129 416.378 390.327 416.079 389.357 414.245L385.654 407.244L384.503 418.456C384.366 419.898 383.6 420.89 382.622 421.408C381.185 422.168 379.227 421.795 378.241 419.93L369.799 403.973C368.828 402.139 369.625 400.465 371.123 399.673C372.713 398.832 374.514 399.131 375.485 400.965Z" fill="black"/>
</g>
<defs>
<filter id="filter0_d_78_1052" x="273.814" y="544.914" width="201.814" height="148.238" filterUnits="userSpaceOnUse" color-interpolation-filters="sRGB">
<feFlood flood-opacity="0" result="BackgroundImageFix"/>
<feColorMatrix in="SourceAlpha" type="matrix" values="0 0 0 0 0 0 0 0 0 0 0 0 0 0 0 0 0 0 127 0" result="hardAlpha"/>
<feOffset dy="4"/>
<feGaussianBlur stdDeviation="2"/>
<feComposite in2="hardAlpha" operator="out"/>
<feColorMatrix type="matrix" values="0 0 0 0 0 0 0 0 0 0 0 0 0 0 0 0 0 0 0.25 0"/>
<feBlend mode="normal" in2="BackgroundImageFix" result="effect1_dropShadow_78_1052"/>
<feBlend mode="normal" in="SourceGraphic" in2="effect1_dropShadow_78_1052" result="shape"/>
</filter>
<filter id="filter1_d_78_1052" x="210.348" y="460.241" width="238.796" height="157.771" filterUnits="userSpaceOnUse" color-interpolation-filters="sRGB">
<feFlood flood-opacity="0" result="BackgroundImageFix"/>
<feColorMatrix in="SourceAlpha" type="matrix" values="0 0 0 0 0 0 0 0 0 0 0 0 0 0 0 0 0 0 127 0" result="hardAlpha"/>
<feOffset dy="4"/>
<feGaussianBlur stdDeviation="2"/>
<feComposite in2="hardAlpha" operator="out"/>
<feColorMatrix type="matrix" values="0 0 0 0 0 0 0 0 0 0 0 0 0 0 0 0 0 0 0.25 0"/>
<feBlend mode="normal" in2="BackgroundImageFix" result="effect1_dropShadow_78_1052"/>
<feBlend mode="normal" in="SourceGraphic" in2="effect1_dropShadow_78_1052" result="shape"/>
</filter>
<filter id="filter2_d_78_1052" x="113.073" y="392.331" width="287.427" height="162.261" filterUnits="userSpaceOnUse" color-interpolation-filters="sRGB">
<feFlood flood-opacity="0" result="BackgroundImageFix"/>
<feColorMatrix in="SourceAlpha" type="matrix" values="0 0 0 0 0 0 0 0 0 0 0 0 0 0 0 0 0 0 127 0" result="hardAlpha"/>
<feOffset dy="4"/>
<feGaussianBlur stdDeviation="2"/>
<feComposite in2="hardAlpha" operator="out"/>
<feColorMatrix type="matrix" values="0 0 0 0 0 0 0 0 0 0 0 0 0 0 0 0 0 0 0.25 0"/>
<feBlend mode="normal" in2="BackgroundImageFix" result="effect1_dropShadow_78_1052"/>
<feBlend mode="normal" in="SourceGraphic" in2="effect1_dropShadow_78_1052" result="shape"/>
</filter>
<filter id="filter3_d_78_1052" x="273.814" y="544.914" width="201.814" height="148.238" filterUnits="userSpaceOnUse" color-interpolation-filters="sRGB">
<feFlood flood-opacity="0" result="BackgroundImageFix"/>
<feColorMatrix in="SourceAlpha" type="matrix" values="0 0 0 0 0 0 0 0 0 0 0 0 0 0 0 0 0 0 127 0" result="hardAlpha"/>
<feOffset dy="4"/>
<feGaussianBlur stdDeviation="2"/>
<feComposite in2="hardAlpha" operator="out"/>
<feColorMatrix type="matrix" values="0 0 0 0 0 0 0 0 0 0 0 0 0 0 0 0 0 0 0.25 0"/>
<feBlend mode="normal" in2="BackgroundImageFix" result="effect1_dropShadow_78_1052"/>
<feBlend mode="normal" in="SourceGraphic" in2="effect1_dropShadow_78_1052" result="shape"/>
</filter>
<filter id="filter4_d_78_1052" x="210.348" y="460.241" width="238.796" height="157.771" filterUnits="userSpaceOnUse" color-interpolation-filters="sRGB">
<feFlood flood-opacity="0" result="BackgroundImageFix"/>
<feColorMatrix in="SourceAlpha" type="matrix" values="0 0 0 0 0 0 0 0 0 0 0 0 0 0 0 0 0 0 127 0" result="hardAlpha"/>
<feOffset dy="4"/>
<feGaussianBlur stdDeviation="2"/>
<feComposite in2="hardAlpha" operator="out"/>
<feColorMatrix type="matrix" values="0 0 0 0 0 0 0 0 0 0 0 0 0 0 0 0 0 0 0.25 0"/>
<feBlend mode="normal" in2="BackgroundImageFix" result="effect1_dropShadow_78_1052"/>
<feBlend mode="normal" in="SourceGraphic" in2="effect1_dropShadow_78_1052" result="shape"/>
</filter>
<filter id="filter5_d_78_1052" x="113.073" y="392.331" width="287.427" height="162.261" filterUnits="userSpaceOnUse" color-interpolation-filters="sRGB">
<feFlood flood-opacity="0" result="BackgroundImageFix"/>
<feColorMatrix in="SourceAlpha" type="matrix" values="0 0 0 0 0 0 0 0 0 0 0 0 0 0 0 0 0 0 127 0" result="hardAlpha"/>
<feOffset dy="4"/>
<feGaussianBlur stdDeviation="2"/>
<feComposite in2="hardAlpha" operator="out"/>
<feColorMatrix type="matrix" values="0 0 0 0 0 0 0 0 0 0 0 0 0 0 0 0 0 0 0.25 0"/>
<feBlend mode="normal" in2="BackgroundImageFix" result="effect1_dropShadow_78_1052"/>
<feBlend mode="normal" in="SourceGraphic" in2="effect1_dropShadow_78_1052" result="shape"/>
</filter>
</defs>
</svg>
