<svg width="662" height="803" viewBox="0 0 662 803" fill="none" xmlns="http://www.w3.org/2000/svg">
<rect x="1.7782" width="658.946" height="800.371" fill="white"/>
<path d="M661.5 509.752V440.594C397.174 295.259 253.222 209.121 1 50.51V235.45L462.573 557.152C540.082 535.053 583.581 523.522 661.5 509.752Z" fill="#EE2E53"/>
<path d="M1 404.849L297.836 615.432L131.546 676.819L1 569.585V404.849Z" fill="#EE2E53"/>
<path d="M462.573 557.152C540.082 535.053 583.581 523.522 661.5 509.752V440.594C397.174 295.259 253.222 209.121 1 50.51V235.45L462.573 557.152ZM462.573 557.152L661.5 676.819M297.836 615.432L1 404.849V569.585L131.546 676.819L297.836 615.432Z" stroke="#EE2E53"/>
<path d="M132.323 676.819L296.282 801.926" stroke="#EE2E53"/>
<path d="M290.843 609.215L593.119 801.149" stroke="#EE2E53"/>
</svg>
