<svg width="47" height="23" viewBox="0 0 47 23" fill="none" xmlns="http://www.w3.org/2000/svg">
<circle cx="35.5" cy="11.5" r="11.5" fill="#FF204E"/>
<path d="M32.4006 12.88C31.3233 13.5739 28.4904 12.1861 28.6101 12.2246C28.7298 12.2632 28.3108 12.0897 28.6101 11.762C28.8495 11.4999 29.3349 11.3059 29.5477 11.2416L35.9318 8.56233L38.0266 7.73348L39.3832 7.23232C39.5827 7.1488 40.0376 6.9856 40.261 7.00102C40.5403 7.0203 40.9792 6.98175 40.9992 7.56001C41.0151 8.02262 40.793 9.61605 40.68 10.3549L39.7224 15.8291C39.6492 16.1311 39.4909 16.7389 39.2037 16.9086C38.8446 17.1206 38.266 16.9278 37.8271 16.6965C37.476 16.5115 35.3267 15.0774 34.2959 14.3835C34.1297 14.2421 33.8211 13.9016 33.9168 13.6703C34.0366 13.3812 34.1363 13.3292 37.468 10.22C38.1127 9.61839 37.9268 9.6032 37.867 9.56465C37.6675 9.48754 34.5231 11.4221 32.4006 12.88Z" fill="white" stroke="white"/>
<rect width="23" height="23" rx="5" fill="#FF204E"/>
<path d="M12.4783 7H10V13.8056C7.4802 12.2798 6.75814 10.771 6.6087 7H4C4.80426 14.3042 6.66235 16.4915 12.4783 17V13.3889C14.4621 13.5174 15.2539 14.4908 16.3913 17H19C18.6021 14.9907 18.0689 13.8648 15.2174 11.8611C17.2521 10.4024 17.8732 9.30433 18.3478 7H15.8696C14.9928 9.34586 14.2432 10.1424 12.4783 10.75V7Z" fill="white" stroke="white"/>
</svg>
