<svg width="163" height="221" viewBox="0 0 163 221" fill="none" xmlns="http://www.w3.org/2000/svg">
<g clip-path="url(#clip0_12_538)">
<path d="M34.5681 181.157C30.3592 177.586 27.4963 174.28 26.2156 172.734C22.2742 167.982 19.619 163.446 17.8603 159.932C14.2831 152.787 12.7492 145.47 12.3793 143.706C9.8351 131.636 10.982 119.6 11.4003 115.867C8.42073 120.432 5.44116 125 2.45874 129.565C2.48151 132.372 2.68925 136.073 3.43201 140.357C3.57999 141.209 4.20607 144.74 5.78266 149.81C6.7417 152.895 8.4435 158.364 11.6678 164.411C17.2172 174.825 23.6174 180.916 25.3277 182.495C29.2777 185.989 35.3365 191.284 44.6565 196.42C52.0016 200.468 58.7405 202.968 63.9825 204.544C60.0837 200.397 56.1821 196.247 52.2833 192.099C44.113 188.565 38.2762 184.299 34.571 181.157H34.5681Z" fill="#F2F2F2"/>
<path d="M117.788 188.375C115.284 189.832 107.412 194.198 96.5386 196.485C88.6357 198.147 81.857 198.144 78.1802 197.991C77.2866 197.954 76.5467 197.906 76.043 197.871C81.1313 199.92 86.2168 201.968 91.3051 204.013C93.9204 203.797 96.5841 203.379 99.2791 202.718C121.906 197.15 134.772 177.291 139.801 168.28C135.925 173.695 128.93 181.898 117.791 188.375H117.788Z" fill="#F2F2F2"/>
<path d="M53.3391 62.3836C59.0819 60.523 66.4526 58.9265 75.0242 58.9919C101.829 59.1936 120.446 75.4677 126.181 80.9246C122.475 78.0157 117.088 74.3712 110.025 71.3544C106.189 69.7153 97.5005 66.4003 85.8241 65.6844C81.3448 65.4089 69.2984 65.0794 55.8633 70.0534C48.8341 72.6554 43.6519 75.8824 41.8163 77.0698C38.0485 79.5071 35.2852 81.8222 34.0444 82.896C32.1149 84.5634 30.5298 86.1229 29.2919 87.4211C23.6686 89.8953 18.0452 92.3667 12.4219 94.8409C21.2581 79.8906 35.4445 68.0166 53.3362 62.3864L53.3391 62.3836Z" fill="#F2F2F2"/>
<path d="M130.501 84.5861C108.651 119.887 83.6415 146.794 62.5568 166.104C67.4431 156.014 72.3293 145.922 77.2128 135.832C91.7748 122.657 108.426 105.499 124.402 84.001C121.508 83.5834 118.232 82.9272 114.541 81.9358C114.339 81.8818 114.126 81.8193 113.921 81.7625C106.994 90.7248 99.0231 100.25 89.8169 110.087C80.8839 119.628 68.2399 132.187 51.626 145.91L66.0088 121.617C79.8964 109.615 94.2735 95.8209 108.392 80.0809C108.016 79.9559 107.643 79.8337 107.259 79.7031C105.913 79.2429 104.535 78.8565 103.132 78.5355C85.5055 97.5196 67.1585 113.282 49.9071 126.213C56.0256 116.543 62.1413 106.877 68.2598 97.2072C76.1029 91.6224 84.6745 85.0179 93.5677 77.2999C71.9793 76.4079 48.8713 86.62 48.8713 86.62C48.8713 86.62 29.2038 95.6448 17.1888 105.309L19.5935 109.573L7.66664 97.5338C7.66664 97.5338 6.84704 97.5196 6.32626 98.0395C5.80547 98.5593 1.01596 103.8 1.01596 103.8C1.01596 103.8 0.785448 104.32 1.1924 104.726C1.59935 105.133 53.0916 149.146 71.2309 221L80.2948 218.435L64.0366 173.533C64.0366 173.533 78.2031 161.258 85.4941 160.727C92.7851 160.196 110.776 164.866 110.776 164.866C110.776 164.866 125.964 170.814 156.603 164.562L157.206 164.443L141.659 83.359C141.659 83.359 138.159 84.91 130.501 84.5861Z" fill="#FF204E"/>
<path d="M143.455 26.0602C148.984 17.2172 153.856 8.50492 158.159 0C149.275 15.189 136.736 33.4714 119.172 52.4981C110.58 61.8041 101.932 70.042 93.5706 77.2999C96.8205 77.4334 100.036 77.8197 103.133 78.5327C117.359 63.2102 131.118 45.7913 143.455 26.063V26.0602Z" fill="#FF204E"/>
<path d="M144.405 36.7524C151.4 25.3017 156.736 15.5497 160.348 8.68387C155.18 17.6206 149.44 26.7788 143.051 36.0763C131.981 52.1913 120.279 66.8207 108.392 80.0752C110.327 80.7172 112.171 81.2768 113.924 81.7597C127.774 63.8323 137.439 48.1548 144.405 36.7495V36.7524Z" fill="#FF204E"/>
<path d="M135.063 77.0187C147.667 55.5007 156.591 35.1503 163 17.1604C155.729 34.1021 145.478 53.9525 130.876 74.9933C128.736 78.0782 126.576 81.0779 124.405 84.001C126.673 84.3277 128.702 84.5095 130.504 84.5862C132.04 82.1034 133.56 79.5838 135.063 77.0187Z" fill="#FF204E"/>
<path d="M8.0279 73.769L5.44958 77.4959L13.0991 82.771L11.9295 84.4612L4.27995 79.1861L1.69595 82.9187L0.00268555 81.7512L6.33748 72.5986L8.03074 73.7661L8.0279 73.769Z" fill="#F2F2F2"/>
<path d="M20.5038 73.8939L17.9796 76.6153C17.7776 76.8312 17.5271 77.03 17.2255 77.2061C16.9238 77.3851 16.5908 77.5016 16.2237 77.5584C15.8566 77.6152 15.4753 77.5896 15.0769 77.4788C14.6785 77.368 14.2829 77.1323 13.893 76.7715L9.73242 72.9253L11.1326 71.4169L15.2932 75.2631C15.4895 75.4449 15.6887 75.533 15.8908 75.5245C16.0928 75.5159 16.2863 75.4108 16.477 75.2063L18.9899 72.4963L20.501 73.8939H20.5038ZM23.0679 72.3401C23.3269 72.5787 23.529 72.8287 23.6769 73.0843C23.8221 73.3428 23.9245 73.5985 23.9814 73.8513C24.0384 74.1041 24.0554 74.3541 24.0327 74.5984C24.0099 74.8427 23.9615 75.0756 23.8875 75.2972C23.8107 75.5188 23.7168 75.7233 23.6029 75.9136C23.4891 76.104 23.3667 76.2687 23.233 76.4107L20.7087 79.1321L19.1976 77.7345L21.7219 75.0131C21.9068 74.8115 21.9951 74.6126 21.9837 74.4166C21.9723 74.2206 21.867 74.0303 21.6706 73.8456L14.7838 67.4797L16.1839 65.9713L23.0708 72.3372L23.0679 72.3401Z" fill="#F2F2F2"/>
<path d="M30.2508 64.034C30.3447 64.1477 30.4102 64.2726 30.4472 64.4033C30.4842 64.534 30.4984 64.6647 30.4842 64.7953C30.4699 64.926 30.4301 65.0481 30.3675 65.1674C30.3049 65.2868 30.2167 65.389 30.1057 65.4799L26.4773 68.3944C26.2809 68.5535 26.0504 68.7012 25.7914 68.8347C25.5296 68.9711 25.2507 69.0733 24.9519 69.15C24.6531 69.2239 24.34 69.2665 24.0128 69.275C23.6855 69.2836 23.3554 69.2409 23.0281 69.1444C22.698 69.0478 22.3707 68.8915 22.0463 68.6785C21.7219 68.4654 21.4145 68.1785 21.1214 67.8178L18.1418 64.1221L19.7469 62.8324L22.7265 66.5281C22.8944 66.7383 23.0822 66.8974 23.2899 67.0054C23.4948 67.1133 23.7083 67.1786 23.9274 67.1985C24.1465 67.2184 24.3657 67.1928 24.5819 67.1218C24.8011 67.0508 25.006 66.94 25.1995 66.7838L28.0055 64.5283L23.9274 59.4719L25.5296 58.1823L30.248 64.0312L30.2508 64.034Z" fill="#F2F2F2"/>
<path d="M38.7514 60.2389L36.9443 61.2275L34.2151 56.2563C34.0871 56.0206 33.9249 55.8757 33.7342 55.8217C33.5407 55.7677 33.3216 55.8075 33.0768 55.941L30.729 57.225L33.8537 62.9177L32.0466 63.9062L28.4239 57.3045C28.3556 57.1795 28.3158 57.0517 28.3015 56.9154C28.2873 56.7818 28.3015 56.6512 28.3414 56.5233C28.3812 56.3984 28.4438 56.2791 28.5292 56.1739C28.6146 56.066 28.7199 55.9779 28.8451 55.9098L32.1035 54.1287C32.354 53.9923 32.6471 53.8901 32.9829 53.819C33.3187 53.7509 33.6687 53.7423 34.0359 53.7935L33.7313 53.2396L36.1759 51.9016C36.3467 51.8079 36.5373 51.7283 36.7508 51.663C36.9614 51.5977 37.1833 51.5579 37.4167 51.538C37.65 51.5181 37.8891 51.5266 38.131 51.5664C38.3757 51.6033 38.6119 51.6829 38.8453 51.7965C39.0786 51.913 39.3006 52.072 39.5141 52.2737C39.7275 52.4754 39.9182 52.7311 40.0889 53.0407L42.8181 58.0119L41.011 59.0004L38.2818 54.0293C38.1538 53.7935 37.9944 53.6458 37.8094 53.589C37.6244 53.5321 37.4081 53.5691 37.1634 53.7026L35.5384 54.5917C35.7206 54.782 35.8828 55.0036 36.0251 55.2621L38.7542 60.2332L38.7514 60.2389Z" fill="#F2F2F2"/>
<path d="M51.1392 49.2797C51.2275 49.5495 51.2787 49.8563 51.2844 50.2C51.2929 50.5438 51.236 50.8846 51.1108 51.2227C50.9856 51.5607 50.7835 51.876 50.4989 52.1686C50.2143 52.4612 49.8273 52.6913 49.3378 52.8532L45.8119 54.0179L45.1972 52.1629L48.7231 50.9983C48.9878 50.9102 49.1671 50.7625 49.2582 50.5494C49.3492 50.3392 49.3549 50.112 49.2752 49.8734C49.1898 49.6177 49.0419 49.4444 48.8313 49.3535C48.6207 49.2626 48.3987 49.2541 48.1682 49.3308L44.6422 50.4955C44.3776 50.5835 44.1983 50.7312 44.1072 50.9414C44.0162 51.1517 44.0105 51.3789 44.0901 51.6175L44.9923 54.3417C45.0776 54.603 45.2256 54.7763 45.4391 54.8701C45.6497 54.961 45.8773 54.9667 46.1164 54.8871L49.6281 53.7281L50.2456 55.5888L46.7197 56.7534C46.4493 56.8415 46.142 56.8926 45.7948 56.9011C45.4504 56.9097 45.1089 56.8528 44.7703 56.7279C44.4316 56.6029 44.1158 56.4012 43.8226 56.1171C43.5295 55.833 43.3019 55.4467 43.1368 54.9581L42.229 52.2169C42.1408 51.947 42.0895 51.6402 42.0838 51.2965C42.0753 50.9528 42.1322 50.6119 42.2574 50.2739C42.3827 49.9359 42.5876 49.6205 42.8693 49.328C43.1539 49.0354 43.5409 48.8081 44.0332 48.6434L47.5592 47.4787C47.8295 47.3906 48.1369 47.3395 48.4841 47.331C48.8284 47.3225 49.1699 47.3793 49.5086 47.5043C49.8472 47.6292 50.1631 47.8309 50.4562 48.115C50.7494 48.3991 50.9799 48.7854 51.1421 49.2768L51.1392 49.2797Z" fill="#F2F2F2"/>
<path d="M63.2454 53.0009L61.2107 53.3248L60.4594 48.6405C60.4167 48.3763 60.3341 48.1434 60.2089 47.9474C60.0837 47.7514 59.93 47.5895 59.7508 47.4645C59.5715 47.3395 59.3666 47.2514 59.1446 47.206C58.9198 47.1577 58.6864 47.1549 58.4417 47.1946L54.8844 47.7628L55.9146 54.1713L53.8798 54.4951L52.6874 47.064C52.6647 46.9248 52.6704 46.7884 52.7017 46.6577C52.733 46.5271 52.7899 46.4078 52.8696 46.3027C52.9492 46.1976 53.046 46.1067 53.1627 46.0356C53.2794 45.9646 53.4074 45.9163 53.5497 45.8936L58.1315 45.1607C58.3876 45.1209 58.6608 45.1067 58.9539 45.1181C59.247 45.1295 59.543 45.1778 59.8418 45.2601C60.1406 45.3425 60.4338 45.4618 60.7183 45.6152C61.0029 45.7686 61.2647 45.9703 61.5038 46.2174C61.7428 46.4646 61.9506 46.76 62.1242 47.1066C62.2978 47.4531 62.4201 47.8537 62.4941 48.3138L63.2454 52.9981V53.0009Z" fill="#F2F2F2"/>
<path d="M75.027 52.91L67.5966 52.893C67.4059 52.893 67.201 52.8703 66.9819 52.8248C66.7627 52.7794 66.5465 52.7083 66.333 52.6146C66.1196 52.5209 65.9147 52.3959 65.7212 52.2453C65.5248 52.0948 65.3541 51.913 65.2032 51.6999C65.0524 51.4869 64.9329 51.2369 64.8447 50.9557C64.7564 50.6744 64.7109 50.3563 64.7137 50.004L64.728 44.4392C64.728 44.2489 64.7507 44.0443 64.7963 43.8256C64.8418 43.6069 64.913 43.391 65.0069 43.1779C65.1036 42.9649 65.226 42.7604 65.3797 42.5672C65.5333 42.374 65.7183 42.2008 65.9318 42.0502C66.1452 41.8997 66.3928 41.7803 66.6745 41.6923C66.9563 41.6042 67.2721 41.5588 67.625 41.5588L75.0555 41.5758L75.0498 43.6325L67.6193 43.6154C67.349 43.6154 67.1441 43.6864 67.0018 43.8285C66.8595 43.9705 66.7884 44.1807 66.7855 44.4591L66.7741 50.0097C66.7741 50.2739 66.8453 50.4784 66.9904 50.6233C67.1355 50.7682 67.3404 50.842 67.6051 50.842L75.0355 50.8591L75.0298 52.9157L75.027 52.91Z" fill="#F2F2F2"/>
<path d="M88.1093 45.4249L83.6214 44.7574L82.2497 53.9384L80.2121 53.6344L81.5838 44.4534L77.0874 43.783L77.3919 41.7491L88.4138 43.391L88.1093 45.4249Z" fill="#F2F2F2"/>
<path d="M100.309 48.7343L92.3581 46.5271L89.8681 55.4695L87.8845 54.9184L90.6478 44.9931C90.6848 44.8568 90.7474 44.7346 90.8328 44.6267C90.9182 44.5188 91.0178 44.4307 91.1316 44.3654C91.2454 44.2972 91.3706 44.2574 91.5072 44.2404C91.6438 44.2233 91.7833 44.2347 91.9256 44.2745L100.861 46.7543L100.309 48.7343ZM98.1778 52.9669L91.9057 51.2255L92.4606 49.2286L98.7328 50.9699L98.1778 52.9669Z" fill="#F2F2F2"/>
<path d="M113.503 217.628L103.255 219.571L102.543 215.836C102.506 215.645 102.489 215.438 102.495 215.214C102.495 214.989 102.526 214.765 102.578 214.535C102.632 214.305 102.714 214.08 102.825 213.861C102.936 213.643 103.084 213.438 103.266 213.251C103.448 213.063 103.668 212.898 103.927 212.759C104.185 212.62 104.487 212.515 104.834 212.45L109.393 211.586C109.667 211.535 109.857 211.427 109.965 211.265C110.071 211.103 110.099 210.89 110.048 210.626L109.877 209.734C109.826 209.458 109.718 209.265 109.558 209.152C109.396 209.038 109.186 209.004 108.927 209.055L102.43 210.288L102.045 208.268L108.542 207.035C108.884 206.97 109.203 206.956 109.493 206.993C109.783 207.03 110.051 207.101 110.287 207.209C110.526 207.317 110.737 207.453 110.924 207.615C111.112 207.777 111.272 207.956 111.408 208.146C111.545 208.336 111.653 208.538 111.738 208.743C111.824 208.95 111.883 209.146 111.918 209.333L112.091 210.242C112.191 210.765 112.179 211.225 112.06 211.62C111.937 212.015 111.758 212.353 111.516 212.631C111.274 212.91 110.998 213.131 110.688 213.296C110.378 213.458 110.079 213.569 109.795 213.623L105.219 214.492C105.053 214.523 104.925 214.572 104.834 214.637C104.743 214.702 104.681 214.779 104.641 214.867C104.601 214.955 104.578 215.052 104.57 215.154C104.561 215.256 104.561 215.358 104.564 215.461L104.891 217.177L113.116 215.617L113.5 217.637L113.503 217.628Z" fill="#F2F2F2"/>
<path d="M127.009 205.962C127.225 206.371 127.379 206.785 127.47 207.209C127.561 207.632 127.592 208.047 127.567 208.461C127.541 208.873 127.464 209.274 127.333 209.66C127.203 210.046 127.029 210.407 126.813 210.745C126.596 211.083 126.337 211.393 126.036 211.671C125.734 211.95 125.404 212.185 125.04 212.379L121.758 214.117C121.391 214.313 121.007 214.455 120.606 214.549C120.207 214.64 119.806 214.682 119.402 214.671C118.998 214.66 118.602 214.6 118.21 214.492C117.817 214.384 117.444 214.222 117.088 214.012C116.733 213.799 116.408 213.54 116.107 213.228C115.808 212.918 115.549 212.558 115.333 212.149L114.465 210.515C114.137 209.902 113.955 209.277 113.913 208.64C113.873 208.007 113.947 207.402 114.137 206.825C114.328 206.251 114.621 205.726 115.017 205.249C115.412 204.774 115.885 204.391 116.437 204.098L119.718 202.36C120.082 202.166 120.464 202.024 120.862 201.934C121.26 201.843 121.662 201.8 122.066 201.811C122.47 201.823 122.865 201.882 123.258 201.99C123.651 202.098 124.027 202.257 124.382 202.468C124.738 202.678 125.068 202.939 125.367 203.249C125.666 203.558 125.925 203.919 126.141 204.328L127.009 205.962ZM124.305 205.3C124.115 204.942 123.876 204.649 123.591 204.425C123.304 204.2 122.996 204.041 122.669 203.948C122.342 203.854 122.003 203.825 121.662 203.865C121.317 203.905 120.99 204.01 120.68 204.178L117.399 205.916C117.094 206.072 116.827 206.28 116.596 206.541C116.368 206.802 116.198 207.095 116.087 207.419C115.976 207.743 115.933 208.089 115.956 208.456C115.979 208.822 116.09 209.186 116.28 209.549L117.148 211.183C117.342 211.546 117.581 211.839 117.868 212.063C118.156 212.288 118.463 212.444 118.793 212.535C119.123 212.626 119.462 212.651 119.806 212.612C120.153 212.572 120.481 212.467 120.791 212.296L124.072 210.558C124.431 210.367 124.724 210.137 124.954 209.862C125.182 209.589 125.344 209.294 125.438 208.976C125.532 208.657 125.558 208.322 125.515 207.973C125.472 207.623 125.358 207.274 125.176 206.93L124.308 205.297L124.305 205.3ZM122.809 204.391C122.934 204.456 123.039 204.541 123.124 204.649C123.21 204.757 123.272 204.871 123.309 204.999C123.346 205.126 123.358 205.257 123.344 205.393C123.329 205.53 123.287 205.66 123.216 205.788L120.045 211.666C119.997 211.768 119.94 211.853 119.869 211.921C119.798 211.989 119.718 212.046 119.63 212.095C119.479 212.174 119.32 212.214 119.146 212.217C118.972 212.217 118.81 212.177 118.659 212.092C118.534 212.026 118.429 211.941 118.343 211.833C118.258 211.728 118.196 211.612 118.156 211.487C118.116 211.362 118.102 211.231 118.113 211.097C118.124 210.964 118.167 210.833 118.238 210.705L121.423 204.822C121.488 204.697 121.573 204.592 121.682 204.507C121.79 204.422 121.906 204.359 122.032 204.323C122.16 204.286 122.288 204.274 122.424 204.286C122.558 204.297 122.689 204.337 122.814 204.402L122.809 204.391Z" fill="#F2F2F2"/>
<path d="M139.923 200.942L132.134 207.868L129.599 205.027C129.468 204.882 129.348 204.712 129.234 204.519C129.124 204.325 129.03 204.115 128.956 203.891C128.884 203.666 128.839 203.431 128.819 203.186C128.802 202.942 128.822 202.692 128.882 202.436C128.941 202.181 129.047 201.928 129.195 201.675C129.345 201.422 129.55 201.178 129.815 200.942L133.281 197.86C133.489 197.675 133.6 197.485 133.606 197.292C133.614 197.099 133.526 196.9 133.35 196.701L132.743 196.022C132.556 195.815 132.365 195.701 132.169 195.687C131.972 195.673 131.776 195.752 131.577 195.928L126.639 200.32L125.27 198.786L130.208 194.394C130.47 194.164 130.731 193.988 131.002 193.869C131.272 193.75 131.534 193.676 131.796 193.645C132.055 193.613 132.308 193.622 132.553 193.664C132.797 193.71 133.028 193.778 133.241 193.872C133.455 193.966 133.654 194.079 133.833 194.213C134.013 194.346 134.166 194.483 134.292 194.625L134.909 195.315C135.265 195.713 135.49 196.113 135.592 196.514C135.692 196.914 135.712 197.298 135.646 197.661C135.584 198.025 135.458 198.357 135.276 198.655C135.094 198.954 134.895 199.201 134.679 199.394L131.201 202.487C131.076 202.601 130.99 202.706 130.948 202.808C130.905 202.911 130.888 203.01 130.899 203.104C130.911 203.2 130.939 203.294 130.988 203.385C131.036 203.479 131.084 203.567 131.141 203.652L132.305 204.956L138.555 199.397L139.923 200.931V200.942Z" fill="#F2F2F2"/>
<path d="M146.452 188.492C146.605 188.614 146.75 188.759 146.893 188.929C147.035 189.099 147.157 189.287 147.266 189.497C147.374 189.707 147.456 189.929 147.516 190.17C147.576 190.409 147.599 190.659 147.581 190.92C147.567 191.182 147.507 191.449 147.402 191.724C147.297 192 147.138 192.272 146.921 192.545L142.226 198.445L140.612 197.167L145.308 191.267C145.467 191.065 145.53 190.861 145.493 190.653C145.456 190.446 145.345 190.267 145.157 190.119L144.437 189.548C144.226 189.381 144.021 189.307 143.825 189.327C143.629 189.347 143.444 189.463 143.273 189.676L140.384 193.304C140.051 193.721 139.699 194.014 139.317 194.179C138.939 194.346 138.563 194.429 138.196 194.426C137.829 194.423 137.479 194.358 137.152 194.227C136.821 194.096 136.545 193.943 136.318 193.761L133.33 191.389L139.232 183.972L140.843 185.25L136.221 191.057L137.598 192.147C137.815 192.318 138.019 192.389 138.216 192.363C138.412 192.338 138.594 192.219 138.762 192.008L141.659 188.369C141.836 188.148 142.072 187.935 142.362 187.736C142.652 187.537 142.977 187.395 143.335 187.313C143.694 187.23 144.078 187.227 144.488 187.307C144.898 187.387 145.31 187.591 145.729 187.923L146.449 188.494L146.452 188.492Z" fill="#F2F2F2"/>
</g>
<defs>
<clipPath id="clip0_12_538">
<rect width="163" height="221" fill="white"/>
</clipPath>
</defs>
</svg>
