<svg width="106" height="108" viewBox="0 0 106 108" fill="none" xmlns="http://www.w3.org/2000/svg">
<g clip-path="url(#clip0_13_467)">
<path d="M20.5975 89.2107C19.8262 88.4471 17.8673 86.4559 15.7278 83.5796C13.5517 80.6546 12.1917 78.1652 11.6111 77.0552C11.2741 76.409 10.9879 75.8317 10.7565 75.3436C9.02093 71.6813 8.03033 68.3999 7.43354 65.88C7.43354 65.88 7.33813 65.479 7.25085 65.0799C6.09177 59.777 6.447 51.4437 6.68653 47.4918C4.45769 50.3722 2.22884 53.2526 0 56.1329C0.0629273 57.9803 0.22735 60.336 0.625213 63.0523C0.813995 64.3325 1.1469 66.5667 1.85534 69.2405C2.09893 70.154 3.14636 73.9864 5.50918 78.7162C7.07425 81.8457 9.62382 86.1825 13.6857 90.7643C15.4172 92.7028 17.8571 95.1517 21.0746 97.6331C22.0408 98.3765 23.6728 99.5857 25.7657 100.876C28.5954 102.62 32.8379 104.866 38.4993 106.623C36.6257 103.712 34.7521 100.803 32.8785 97.8923C26.876 94.9066 22.9035 91.4935 20.5935 89.2107H20.5975Z" fill="#F3F3F3"/>
<path d="M86.3282 94.9897C86.3282 94.9897 80.2019 98.3157 72.6993 100.189C71.4895 100.491 67.7504 101.364 63.0532 102.176C62.6472 102.245 62.3163 102.302 62.0991 102.339L70.6024 106.546C72.0315 106.108 73.4849 105.596 74.9525 104.996C87.8262 99.7397 96.1732 90.1729 101.236 82.5567C95.7145 89.2735 89.9921 93.0026 86.3282 94.9917V94.9897Z" fill="#F3F3F3"/>
<path d="M37.9188 2.67377C37.9918 2.65149 38.0466 2.63529 38.0852 2.62516C39.8776 2.0904 45.7177 0.376761 52.4002 0.0546939C60.9075 -0.352448 68.0264 1.62452 71.0551 2.59072C77.7883 4.73784 82.9077 7.81875 86.3484 10.2981C83.4599 8.97536 79.4061 7.33869 74.3963 5.9937C69.7336 4.74189 63.3353 3.07686 54.9173 3.48198C46.3531 3.89317 40.2227 6.22664 38.7003 6.83027C34.4801 8.50137 31.557 10.3933 29.7524 11.5742C27.4261 13.0954 26.0783 14.2419 24.907 15.4815C23.7114 16.7414 22.8609 17.9284 22.2945 18.7974C18.1758 20.1687 14.0612 21.54 9.9425 22.9114C12.827 18.8663 17.5851 13.3385 24.838 8.70798C30.5522 5.06396 35.6392 3.36044 37.9188 2.6758V2.67377Z" fill="#F3F3F3"/>
<path d="M88.8696 20.5333C74.8551 43.1672 58.8147 60.4211 45.2914 72.8014C48.4256 66.3317 51.5598 59.86 54.692 53.3903C64.0316 44.9416 74.7109 33.9407 84.96 20.1566C83.1046 19.8892 81.0037 19.4679 78.6348 18.8318C78.5049 18.7974 78.3689 18.7569 78.2369 18.7204C73.7934 24.467 68.6821 30.5741 62.7771 36.8818C57.0467 42.9991 48.9372 51.0528 38.2821 59.8519L47.5081 44.2752C56.4153 36.58 65.6372 27.7343 74.6927 17.6428C74.4511 17.5618 74.2136 17.4848 73.966 17.3998C73.1033 17.104 72.2182 16.8569 71.319 16.6503C60.0124 28.822 48.245 38.9297 37.1799 47.2204C41.1037 41.0201 45.0275 34.8218 48.9514 28.6215C53.9815 25.0402 59.4805 20.8068 65.1846 15.8563C51.3385 15.285 36.5161 21.8317 36.5161 21.8317C36.5161 21.8317 23.9022 27.6188 16.1947 33.8151L17.7374 36.5496L10.0867 28.8301C10.0867 28.8301 9.56091 28.822 9.22598 29.1542C8.89104 29.4884 5.81978 32.8489 5.81978 32.8489C5.81978 32.8489 5.6716 33.1831 5.93346 33.4424C6.19532 33.7037 39.222 61.9241 50.8554 107.996L56.6691 106.351L46.2414 77.5595C46.2414 77.5595 55.3273 69.6901 60.0042 69.3478C64.6812 69.0075 76.2212 72.0013 76.2212 72.0013C76.2212 72.0013 85.9627 75.8155 105.614 71.8069L106.002 71.7299L96.0311 19.7393C96.0311 19.7393 93.786 20.7339 88.8736 20.5252L88.8696 20.5333Z" fill="#EE2E53"/>
</g>
<defs>
<clipPath id="clip0_13_467">
<rect width="106" height="108" fill="white"/>
</clipPath>
</defs>
</svg>
