<svg width="117" height="157" viewBox="0 0 117 157" fill="none" xmlns="http://www.w3.org/2000/svg">
<path d="M24.6618 128.695C21.6587 126.159 19.6161 123.81 18.7024 122.712C15.8902 119.336 13.9958 116.113 12.741 113.617C10.1887 108.541 9.09426 103.343 8.8303 102.09C7.01507 93.5151 7.83335 84.9647 8.13182 82.313C6.00594 85.556 3.88005 88.801 1.75214 92.0439C1.76838 94.0377 1.9166 96.6672 2.44655 99.7104C2.55214 100.316 2.99883 102.824 4.12371 106.426C4.80797 108.618 6.02218 112.503 8.32269 116.799C12.2821 124.197 16.8486 128.524 18.0689 129.646C20.8871 132.128 25.21 135.889 31.8597 139.538C37.1003 142.414 41.9084 144.19 45.6485 145.31C42.8668 142.363 40.083 139.415 37.3013 136.469C31.4719 133.958 27.3074 130.927 24.6638 128.695H24.6618Z" fill="black"/>
<path d="M84.0383 133.823C82.2515 134.858 76.6352 137.96 68.8769 139.584C63.2383 140.765 58.4018 140.763 55.7784 140.654C55.1409 140.628 54.6129 140.593 54.2535 140.569C57.884 142.024 61.5124 143.479 65.1429 144.932C67.0089 144.779 68.9094 144.482 70.8322 144.012C86.9763 140.057 96.156 125.949 99.7438 119.548C96.9784 123.394 91.9875 129.222 84.0403 133.823H84.0383Z" fill="black"/>
<path d="M38.0546 44.3178C42.152 42.996 47.4109 41.8618 53.5267 41.9082C72.6515 42.0515 85.9347 53.6128 90.0261 57.4894C87.3824 55.4229 83.5388 52.8338 78.4992 50.6907C75.7622 49.5263 69.5632 47.1712 61.2322 46.6627C58.0363 46.4669 49.4414 46.2329 39.8556 49.7664C34.8404 51.6149 31.1429 53.9074 29.8333 54.7509C27.145 56.4824 25.1734 58.1271 24.2881 58.8899C22.9115 60.0745 21.7805 61.1824 20.8973 62.1046C16.8851 63.8623 12.8729 65.618 8.86072 67.3757C15.1653 56.7548 25.2871 48.3195 38.0526 44.3198L38.0546 44.3178Z" fill="black"/>
<path d="M93.1083 60.0906C77.5185 85.1685 59.6749 104.283 44.6312 118.002C48.1175 110.834 51.6038 103.664 55.0881 96.4957C65.4779 87.1361 77.3581 74.9473 88.7571 59.6749C86.6921 59.3782 84.355 58.9121 81.7215 58.2078C81.5774 58.1694 81.4251 58.125 81.2789 58.0847C76.3368 64.4515 70.6495 71.218 64.081 78.2064C57.7074 84.9849 48.6861 93.9066 36.8323 103.656L47.0942 86.3975C57.0028 77.8714 67.2606 68.0719 77.3337 56.89C77.0657 56.8012 76.7997 56.7144 76.5256 56.6216C75.5652 56.2947 74.5825 56.0202 73.5815 55.7922C61.0048 69.2786 47.9145 80.4766 35.6059 89.6627C39.9713 82.7933 44.3348 75.926 48.7003 69.0567C54.2962 65.0892 60.4119 60.3973 66.7571 54.9144C51.3541 54.2807 34.8668 61.5355 34.8668 61.5355C34.8668 61.5355 20.8343 67.9468 12.2617 74.8121L13.9775 77.8411L5.46784 69.2887C5.46784 69.2887 4.88307 69.2786 4.5115 69.6479C4.13992 70.0172 0.722669 73.7405 0.722669 73.7405C0.722669 73.7405 0.558202 74.1098 0.848557 74.3984C1.13891 74.6869 37.8779 105.954 50.8201 157L57.2871 155.178L45.6871 123.279C45.6871 123.279 55.7947 114.559 60.9967 114.182C66.1987 113.804 79.0353 117.122 79.0353 117.122C79.0353 117.122 89.8718 121.348 111.732 116.906L112.162 116.821L101.07 59.2188C101.07 59.2188 98.5723 60.3206 93.1083 60.0906Z" fill="#FF204E"/>
<path d="M102.351 18.5133C106.296 12.2312 109.772 6.04196 112.842 0C106.503 10.7904 97.557 23.7783 85.0251 37.295C78.8951 43.9061 72.7246 49.7583 66.7591 54.9144C69.0779 55.0092 71.3723 55.2837 73.5814 55.7902C83.7317 44.905 93.5489 32.5305 102.351 18.5153V18.5133Z" fill="#FF204E"/>
<path d="M103.029 26.1092C108.02 17.9745 111.827 11.0467 114.404 6.1691C110.716 12.5178 106.621 19.0239 102.063 25.6289C94.1642 37.0771 85.8149 47.4699 77.3337 56.886C78.7144 57.3421 80.0302 57.7396 81.2809 58.0827C91.1632 45.347 98.0586 34.2095 103.029 26.1071V26.1092Z" fill="#FF204E"/>
<path d="M96.3631 54.7146C105.356 39.4281 111.724 24.971 116.296 12.1909C111.108 24.2263 103.795 38.3283 93.3764 53.2757C91.8494 55.4673 90.3083 57.5983 88.7591 59.6749C90.3774 59.907 91.8251 60.0361 93.1104 60.0906C94.2068 58.3268 95.2911 56.5369 96.3631 54.7146Z" fill="#FF204E"/>
<path d="M5.7257 52.406L3.88611 55.0537L9.34397 58.8011L8.50945 60.0018L3.05159 56.2544L1.20794 58.9061L-0.000183105 58.0766L4.51961 51.5746L5.72773 52.404L5.7257 52.406Z" fill="black"/>
<path d="M14.6272 52.4948L12.8262 54.428C12.682 54.5814 12.5034 54.7227 12.2881 54.8478C12.0729 54.9729 11.8353 55.0577 11.5734 55.098C11.3115 55.1384 11.0394 55.1202 10.7551 55.0415C10.4709 54.9628 10.1887 54.7953 9.91048 54.539L6.94196 51.8066L7.94094 50.7351L10.9095 53.4675C11.0496 53.5966 11.1917 53.6592 11.3359 53.6531C11.48 53.6471 11.6181 53.5724 11.7541 53.4271L13.547 51.5019L14.6252 52.4948H14.6272ZM16.4567 51.3909C16.6414 51.5604 16.7856 51.738 16.8912 51.9196C16.9947 52.1033 17.0678 52.2829 17.1084 52.4645C17.149 52.6441 17.1612 52.8217 17.145 52.9952C17.1287 53.1688 17.0942 53.3343 17.0414 53.4917C16.9866 53.6491 16.9196 53.7944 16.8384 53.9296C16.7572 54.0648 16.6678 54.1818 16.5744 54.2827L14.7734 56.216L13.6952 55.2231L15.4963 53.2899C15.6282 53.1466 15.6912 53.0053 15.6831 52.8661C15.6749 52.7248 15.5998 52.5916 15.4597 52.4605L10.546 47.9381L11.545 46.8665L16.4587 51.3889L16.4567 51.3909Z" fill="black"/>
<path d="M21.5815 45.4902C21.6485 45.573 21.6952 45.6597 21.7216 45.7526C21.748 45.8454 21.7582 45.9382 21.748 46.0311C21.7379 46.1239 21.7095 46.2107 21.6648 46.2954C21.6201 46.3802 21.5572 46.4528 21.478 46.5174L18.8892 48.5879C18.7491 48.7009 18.5846 48.8058 18.3998 48.9007C18.215 48.9975 18.014 49.0702 17.8008 49.1247C17.5876 49.1792 17.3643 49.2074 17.1308 49.2135C16.8973 49.2215 16.6617 49.1893 16.4282 49.1206C16.1927 49.052 15.9592 48.941 15.7277 48.7897C15.4963 48.6383 15.277 48.4345 15.0678 48.1782L12.942 45.5528L14.0871 44.6366L16.213 47.262C16.3328 47.4114 16.4668 47.5244 16.615 47.6011C16.7612 47.6778 16.9135 47.7242 17.0699 47.7383C17.2262 47.7524 17.3826 47.7343 17.5369 47.6838C17.6912 47.6334 17.8394 47.5547 17.9775 47.4437L19.9795 45.8414L17.0699 42.2493L18.213 41.3331L21.5795 45.4882L21.5815 45.4902Z" fill="black"/>
<path d="M27.6465 42.7942L26.3572 43.4964L24.41 39.9649C24.3186 39.7974 24.2028 39.6945 24.0668 39.6561C23.9287 39.6178 23.7724 39.646 23.5978 39.7409L21.9226 40.653L24.1521 44.6971L22.8627 45.3994L20.278 40.7095C20.2292 40.6207 20.2008 40.5299 20.1907 40.4331C20.1805 40.3382 20.1907 40.2454 20.2191 40.1546C20.2455 40.0658 20.2922 39.981 20.3531 39.9064C20.414 39.8297 20.4891 39.7691 20.5785 39.7187L22.9034 38.4534C23.082 38.3565 23.2912 38.2839 23.5308 38.2334C23.7704 38.185 24.0201 38.1789 24.282 38.2153L24.0648 37.8217L25.8089 36.8713C25.9308 36.8047 26.0668 36.7482 26.2191 36.7017C26.3693 36.6553 26.5277 36.6271 26.6942 36.613C26.8607 36.5988 27.0313 36.6049 27.2039 36.6331C27.3785 36.6594 27.547 36.7159 27.7135 36.7986C27.88 36.8814 28.0384 36.9944 28.1907 37.1376C28.3429 37.2809 28.479 37.4625 28.6008 37.6825L30.548 41.214L29.2587 41.9163L27.3115 38.3848C27.2201 38.2173 27.1064 38.1123 26.9744 38.072C26.8424 38.0316 26.6881 38.0579 26.5135 38.1527L25.3541 38.7843C25.4841 38.9196 25.5998 39.077 25.7013 39.2606L27.6485 42.7921L27.6465 42.7942Z" fill="black"/>
<path d="M36.485 35.0086C36.548 35.2003 36.5825 35.4183 36.5886 35.6625C36.5947 35.9066 36.5541 36.1488 36.4647 36.3889C36.3754 36.6291 36.2312 36.8531 36.0282 37.0609C35.8251 37.2688 35.549 37.4323 35.1977 37.5473L32.682 38.3747L32.2434 37.0569L34.7591 36.2295C34.948 36.167 35.0759 36.062 35.1409 35.9107C35.2058 35.7613 35.2099 35.5999 35.153 35.4304C35.0942 35.2488 34.9886 35.1257 34.8363 35.0611C34.684 34.9965 34.5277 34.9905 34.3632 35.0449L31.8475 35.8723C31.6586 35.9349 31.5307 36.0398 31.4657 36.1892C31.4008 36.3385 31.3967 36.4999 31.4536 36.6694L32.0972 38.6047C32.1581 38.7904 32.2637 38.9135 32.416 38.9801C32.5662 39.0447 32.7287 39.0487 32.8992 38.9922L35.4048 38.1688L35.8454 39.4906L33.3297 40.318C33.1368 40.3806 32.9175 40.4169 32.6698 40.423C32.4241 40.429 32.1805 40.3887 31.9388 40.2999C31.6972 40.2111 31.4718 40.0678 31.2627 39.866C31.0536 39.6642 30.8891 39.3897 30.7734 39.0426L30.1256 37.0952C30.0627 36.9035 30.0282 36.6856 30.0221 36.4414C30.016 36.1972 30.0566 35.9551 30.1459 35.7149C30.2353 35.4748 30.3815 35.2508 30.5825 35.0429C30.7855 34.8351 31.0617 34.6736 31.4129 34.5566L33.9287 33.7292C34.1216 33.6666 34.3409 33.6303 34.5886 33.6242C34.8343 33.6182 35.0779 33.6586 35.3195 33.7473C35.5612 33.8361 35.7865 33.9794 35.9957 34.1812C36.2068 34.383 36.3693 34.6575 36.485 35.0046V35.0086Z" fill="black"/>
<path d="M45.1226 37.6523L43.6708 37.8823L43.1348 34.5546C43.1043 34.3669 43.0454 34.2014 42.9561 34.0622C42.8667 33.923 42.7591 33.8079 42.6292 33.7191C42.4992 33.6303 42.3551 33.5678 42.1967 33.5355C42.0363 33.5012 41.8698 33.4992 41.6952 33.5274L39.1571 33.931L39.8921 38.4837L38.4404 38.7137L37.5896 33.4346C37.5733 33.3337 37.5774 33.2388 37.5997 33.146C37.6241 33.0532 37.6627 32.9684 37.7195 32.8938C37.7764 32.8191 37.8454 32.7545 37.9287 32.7041C38.0119 32.6536 38.1033 32.6193 38.2048 32.6032L41.4739 32.0825C41.6566 32.0543 41.8515 32.0422 42.0607 32.0523C42.2698 32.0603 42.481 32.0946 42.6942 32.1532C42.9074 32.2117 43.1165 32.2964 43.3195 32.4054C43.5226 32.5144 43.7094 32.6577 43.8799 32.8332C44.0505 33.0088 44.1987 33.2187 44.3226 33.4649C44.4464 33.7111 44.5337 33.9956 44.5865 34.3225L45.1226 37.6502V37.6523Z" fill="black"/>
<path d="M53.5267 37.5877L48.2252 37.5756C48.0891 37.5756 47.9429 37.5594 47.7866 37.5271C47.6302 37.4948 47.4759 37.4444 47.3236 37.3778C47.1713 37.3092 47.0252 37.2224 46.8871 37.1154C46.747 37.0085 46.6252 36.8793 46.5175 36.728C46.4099 36.5766 46.3246 36.399 46.2617 36.1993C46.1988 35.9995 46.1663 35.7735 46.1683 35.5232L46.1785 31.5699C46.1785 31.4347 46.1947 31.2894 46.2272 31.134C46.2597 30.9786 46.3104 30.8253 46.3774 30.6739C46.4444 30.5226 46.5338 30.3773 46.6434 30.24C46.7531 30.1028 46.8851 29.9797 47.0373 29.8728C47.1896 29.7658 47.3663 29.6811 47.5673 29.6185C47.7683 29.5559 47.9937 29.5237 48.2455 29.5237L53.547 29.5358L53.5429 30.9968L48.2414 30.9847C48.0485 30.9847 47.9023 31.0351 47.8008 31.136C47.6993 31.2369 47.6485 31.3863 47.6465 31.584L47.6384 35.5273C47.6384 35.7149 47.6891 35.8602 47.7927 35.9632C47.8962 36.0661 48.0424 36.1185 48.2312 36.1185L53.5328 36.1306L53.5287 37.5917L53.5267 37.5877Z" fill="black"/>
<path d="M62.8627 32.2702L59.6586 31.7959L58.68 38.3182L57.2261 38.1022L58.2048 31.58L54.9967 31.1037L55.214 29.6588L63.0779 30.8253L62.8607 32.2702H62.8627Z" fill="black"/>
<path d="M71.5672 34.6212L65.8941 33.0532L64.1175 39.4059L62.7023 39.0144L64.6738 31.9634C64.7002 31.8666 64.7449 31.7798 64.8058 31.7031C64.8667 31.6264 64.9378 31.5639 65.019 31.5175C65.1002 31.469 65.1896 31.4408 65.287 31.4287C65.3845 31.4166 65.484 31.4246 65.5855 31.4529L71.9611 33.2146L71.5672 34.6212ZM70.0444 37.628L65.5693 36.391L65.9652 34.9723L70.4403 36.2094L70.0444 37.628Z" fill="black"/>
<path d="M80.9804 154.605L73.6687 155.985L73.1611 153.331C73.1347 153.196 73.1226 153.049 73.1266 152.889C73.1286 152.73 73.149 152.57 73.1855 152.407C73.2241 152.244 73.283 152.084 73.3621 151.929C73.4413 151.773 73.5469 151.628 73.6769 151.495C73.8068 151.362 73.9632 151.245 74.1479 151.146C74.3327 151.047 74.5479 150.972 74.7956 150.926L78.0484 150.312C78.2454 150.276 78.3814 150.199 78.4566 150.084C78.5317 149.969 78.552 149.818 78.5154 149.63L78.3936 148.997C78.3571 148.801 78.2799 148.664 78.1642 148.583C78.0484 148.502 77.8982 148.478 77.7134 148.514L73.0779 149.39L72.8038 147.955L77.4393 147.079C77.683 147.033 77.9104 147.023 78.1175 147.049C78.3246 147.075 78.5154 147.126 78.684 147.203C78.8525 147.279 79.0048 147.376 79.1388 147.491C79.2728 147.606 79.3865 147.733 79.484 147.868C79.5814 148.004 79.6586 148.147 79.7215 148.292C79.7824 148.44 79.8251 148.579 79.8494 148.712L79.9733 149.358C80.0444 149.729 80.0362 150.056 79.951 150.336C79.8637 150.617 79.7357 150.857 79.5631 151.055C79.3906 151.253 79.1936 151.41 78.9723 151.527C78.751 151.642 78.5378 151.721 78.3347 151.759L75.0698 152.375C74.952 152.397 74.8606 152.431 74.7956 152.478C74.7327 152.524 74.686 152.579 74.6576 152.641C74.6292 152.704 74.6129 152.772 74.6068 152.845C74.6007 152.918 74.6007 152.99 74.6028 153.063L74.8363 154.282L80.7043 153.174L80.9784 154.609L80.9804 154.605Z" fill="black"/>
<path d="M90.6169 146.317C90.7712 146.607 90.8809 146.904 90.9459 147.202C91.0108 147.501 91.0332 147.798 91.0149 148.092C90.9966 148.385 90.9418 148.67 90.8484 148.942C90.755 149.216 90.6311 149.473 90.4768 149.713C90.3225 149.953 90.1377 150.173 89.9225 150.371C89.7073 150.569 89.4718 150.736 89.2119 150.873L86.8707 152.108C86.6088 152.248 86.3347 152.348 86.0484 152.415C85.7621 152.482 85.4779 152.51 85.1895 152.502C84.9012 152.494 84.619 152.451 84.3388 152.375C84.0586 152.298 83.7926 152.183 83.5388 152.034C83.285 151.882 83.0535 151.699 82.8383 151.479C82.6251 151.259 82.4403 151.002 82.286 150.712L81.6667 149.551C81.4332 149.116 81.3032 148.672 81.2728 148.22C81.2444 147.77 81.2971 147.34 81.4312 146.93C81.5672 146.522 81.7763 146.149 82.0586 145.81C82.3408 145.473 82.6779 145.201 83.0718 144.993L85.4129 143.758C85.6728 143.621 85.9449 143.52 86.2291 143.455C86.5134 143.39 86.7997 143.36 87.088 143.368C87.3763 143.376 87.6586 143.419 87.9388 143.495C88.219 143.572 88.487 143.685 88.7408 143.834C88.9946 143.984 89.2301 144.169 89.4433 144.389C89.6565 144.609 89.8413 144.866 89.9956 145.156L90.6149 146.317H90.6169ZM88.688 145.846C88.552 145.592 88.3814 145.384 88.1784 145.225C87.9733 145.065 87.754 144.952 87.5205 144.886C87.287 144.819 87.0474 144.799 86.8017 144.827C86.556 144.856 86.3225 144.93 86.1012 145.049L83.7601 146.284C83.5408 146.395 83.352 146.543 83.1875 146.728C83.0251 146.914 82.9032 147.122 82.8241 147.352C82.7449 147.582 82.7144 147.828 82.7306 148.088C82.7469 148.349 82.8261 148.607 82.9621 148.865L83.5814 150.026C83.7195 150.284 83.89 150.492 84.0951 150.651C84.3002 150.811 84.5195 150.922 84.755 150.986C84.9905 151.051 85.2322 151.069 85.4779 151.041C85.7235 151.013 85.9591 150.938 86.1804 150.817L88.5215 149.582C88.7773 149.447 88.9865 149.283 89.1509 149.087C89.3134 148.894 89.4291 148.684 89.4961 148.458C89.5631 148.232 89.5814 147.994 89.5509 147.745C89.5205 147.497 89.4393 147.249 89.3093 147.005L88.69 145.844L88.688 145.846ZM87.62 145.201C87.7093 145.247 87.7844 145.308 87.8454 145.384C87.9063 145.461 87.9509 145.544 87.9773 145.632C88.0037 145.723 88.0119 145.816 88.0017 145.913C87.9916 146.01 87.9611 146.103 87.9103 146.193L85.6484 150.369C85.6139 150.441 85.5733 150.502 85.5225 150.55C85.4718 150.599 85.4149 150.639 85.352 150.673C85.2443 150.73 85.1306 150.758 85.0068 150.76C84.8829 150.76 84.7672 150.732 84.6576 150.671C84.5682 150.625 84.4931 150.565 84.4322 150.488C84.3713 150.413 84.3266 150.33 84.2982 150.242C84.2697 150.153 84.2596 150.06 84.2677 149.965C84.2758 149.87 84.3063 149.777 84.357 149.687L86.6291 145.507C86.6758 145.419 86.7367 145.344 86.8139 145.283C86.8911 145.223 86.9743 145.178 87.0636 145.152C87.155 145.126 87.2464 145.118 87.3438 145.126C87.4413 145.134 87.5327 145.162 87.622 145.209L87.62 145.201Z" fill="black"/>
<path d="M99.8311 142.751L94.2738 147.671L92.4647 145.653C92.3713 145.55 92.286 145.429 92.2048 145.291C92.1256 145.154 92.0586 145.005 92.0058 144.845C91.955 144.686 91.9205 144.519 91.9083 144.345C91.8961 144.171 91.9104 143.994 91.953 143.812C91.9956 143.631 92.0708 143.451 92.1763 143.271C92.284 143.092 92.4301 142.918 92.619 142.751L95.0921 140.561C95.2403 140.43 95.3195 140.295 95.3235 140.158C95.3296 140.02 95.2667 139.879 95.1408 139.738L94.7083 139.256C94.5743 139.108 94.4383 139.028 94.2982 139.017C94.1581 139.007 94.018 139.064 93.8758 139.189L90.353 142.309L89.3763 141.219L92.8992 138.099C93.086 137.936 93.2728 137.811 93.4657 137.726C93.6565 137.641 93.8454 137.589 94.0322 137.566C94.2169 137.544 94.3977 137.55 94.5723 137.581C94.7469 137.613 94.9114 137.661 95.0636 137.728C95.218 137.795 95.3581 137.875 95.486 137.97C95.6139 138.065 95.7235 138.162 95.8129 138.263L96.2535 138.753C96.5073 139.036 96.6697 139.32 96.7408 139.605C96.8119 139.889 96.8261 140.162 96.7794 140.42C96.7347 140.678 96.6454 140.914 96.5154 141.126C96.3855 141.338 96.2433 141.514 96.089 141.651L93.6078 143.849C93.5185 143.929 93.4576 144.004 93.4271 144.077C93.3966 144.149 93.3845 144.22 93.3926 144.286C93.4007 144.355 93.421 144.422 93.4555 144.486C93.49 144.553 93.5246 144.615 93.5652 144.676L94.3956 145.602L98.8545 141.653L99.8311 142.743V142.751Z" fill="black"/>
<path d="M104.489 133.906C104.599 133.993 104.704 134.095 104.804 134.217C104.905 134.338 104.993 134.471 105.07 134.62C105.147 134.769 105.206 134.929 105.248 135.098C105.291 135.268 105.307 135.446 105.295 135.631C105.285 135.817 105.242 136.007 105.167 136.202C105.094 136.398 104.978 136.592 104.824 136.785L101.474 140.977L100.323 140.069L103.673 135.877C103.787 135.734 103.831 135.589 103.805 135.439C103.778 135.292 103.699 135.165 103.565 135.06L103.051 134.654C102.901 134.535 102.755 134.483 102.615 134.497C102.475 134.511 102.343 134.594 102.221 134.745L100.16 137.322C99.9225 137.619 99.6687 137.827 99.3987 137.944C99.1286 138.063 98.8606 138.121 98.5987 138.119C98.3368 138.119 98.087 138.071 97.8535 137.978C97.618 137.885 97.421 137.776 97.2586 137.647L95.1266 135.964L99.3378 130.695L100.487 131.603L97.1896 135.728L98.1723 136.503C98.3246 136.624 98.4728 136.674 98.6129 136.656C98.753 136.638 98.883 136.553 99.0028 136.404L101.07 133.819C101.196 133.662 101.364 133.51 101.571 133.369C101.778 133.228 102.01 133.127 102.266 133.068C102.522 133.01 102.796 133.008 103.088 133.064C103.38 133.121 103.675 133.266 103.973 133.502L104.487 133.908L104.489 133.906Z" fill="black"/>
</svg>
