<svg width="106" height="108" viewBox="0 0 106 108" fill="none" xmlns="http://www.w3.org/2000/svg">
<path d="M20.5433 89.2049C19.7831 88.4443 17.8228 86.4426 15.6825 83.5803C13.5221 80.658 12.1619 78.156 11.5818 77.0551C11.2418 76.4146 10.9617 75.8341 10.7217 75.3337C8.98142 71.6708 8.00127 68.3881 7.40118 65.8661C7.40118 65.8661 7.30116 65.4658 7.22115 65.0654C6.06096 59.7612 6.42102 51.4345 6.66106 47.4713C4.4407 50.3536 2.22035 53.2359 0 56.1182C0.0600095 57.9597 0.220033 60.3216 0.620097 63.0438C0.800125 64.3248 1.14018 66.5667 1.84029 69.2288C2.08033 70.1495 3.12049 73.9726 5.48087 78.6964C7.04112 81.8189 9.58152 86.1624 13.6422 90.7461C15.3624 92.6877 17.8028 95.1296 21.0033 97.6116C21.9635 98.3522 23.6037 99.5732 25.6841 100.854C28.5045 102.596 32.7452 104.837 38.3861 106.599C36.5258 103.697 34.6455 100.774 32.7852 97.8718C26.8043 94.8894 22.8436 91.4667 20.5433 89.1849V89.2049Z" fill="#010101"/>
<path d="M86.0937 94.9895C86.0937 94.9895 79.9928 98.3122 72.4916 100.194C71.2914 100.494 67.5508 101.375 62.8701 102.175C62.47 102.235 62.1299 102.295 61.9099 102.335L70.3913 106.539C71.8115 106.098 73.2717 105.578 74.7319 104.998C87.574 99.7334 95.8953 90.1656 100.936 82.5595C95.4352 89.2849 89.7143 93.0079 86.0738 94.9895H86.0937Z" fill="#010101"/>
<path d="M37.8061 2.65523C37.8861 2.63521 37.9261 2.61519 37.9661 2.61519C39.7464 2.07476 45.5873 0.373389 52.2484 0.0531315C60.7297 -0.347191 67.8309 1.61439 70.8514 2.59518C77.5724 4.7369 82.6732 7.81938 86.1138 10.3014C83.2333 8.98032 79.1927 7.339 74.1919 5.99792C69.5511 4.7369 63.1501 3.07556 54.7688 3.4959C46.2274 3.91624 40.1065 6.23811 38.5862 6.83859C34.3856 8.51995 31.4651 10.4015 29.6648 11.5824C27.3444 13.1036 26.0042 14.2446 24.824 15.4856C23.6239 16.7466 22.7837 17.9275 22.2236 18.8082C18.123 20.1893 14.0023 21.5504 9.90167 22.9315C12.7821 18.8883 17.5229 13.3638 24.764 8.72011C30.4649 5.07718 35.5257 3.37581 37.8061 2.69526V2.65523Z" fill="#010101"/>
<path d="M88.6342 20.5096C74.652 43.1478 58.6495 60.4017 45.1673 72.7917C48.2878 66.3265 51.4283 59.8412 54.5488 53.376C63.8703 44.9292 74.512 33.9204 84.7336 20.1293C82.8733 19.8691 80.793 19.4487 78.4326 18.8082C78.3126 18.7682 78.1726 18.7282 78.0326 18.6881C73.5919 24.4327 68.511 30.5377 62.6101 36.8427C56.8892 42.9677 48.8079 51.0141 38.1862 59.8212L47.3877 44.2487C56.2691 36.5425 65.4706 27.7154 74.492 17.6072C74.252 17.5272 74.0119 17.4471 73.7719 17.3671C72.9118 17.0668 72.0316 16.8266 71.1315 16.6265C59.8497 28.7963 48.1278 38.9044 37.0861 47.1911C41.0067 40.9861 44.9073 34.8011 48.8279 28.5961C53.8487 25.0132 59.3296 20.7698 65.0105 15.8258C51.2083 15.2453 36.426 21.8106 36.426 21.8106C36.426 21.8106 23.844 27.5953 16.1627 33.8003L17.703 36.5425L10.0818 28.8163C10.0818 28.8163 9.56169 28.8163 9.22163 29.1365C8.88158 29.4768 5.82109 32.8395 5.82109 32.8395C5.82109 32.8395 5.68107 33.1798 5.94111 33.44C6.20115 33.7002 39.1464 61.9229 50.7482 108L56.5491 106.359L46.1475 77.5555C46.1475 77.5555 55.2089 69.6892 59.8697 69.3489C64.5304 69.0086 76.0522 72.011 76.0522 72.011C76.0522 72.011 85.7738 75.8341 105.357 71.8109L105.737 71.7308L95.7954 19.729C95.7954 19.729 93.555 20.7298 88.6542 20.5096H88.6342Z" fill="#EE2E53"/>
</svg>
