<svg width="505" height="531" viewBox="0 0 505 531" fill="none" xmlns="http://www.w3.org/2000/svg">
<rect x="53" width="452" height="456" fill="white"/>
<path d="M350.217 102H207.783C177.527 102 153 126.527 153 156.783V299.217C153 329.473 177.527 354 207.783 354H350.217C380.473 354 405 329.473 405 299.217V156.783C405 126.527 380.473 102 350.217 102Z" fill="black"/>
<path d="M52.9625 454.89L52.9625 282L300.5 454.89L52.9625 454.89Z" fill="#EE2E53"/>
<path d="M289.696 179H262.6V253.181C235.05 236.55 227.156 220.104 225.522 179H197C205.793 258.616 226.108 282.457 289.696 288V248.639C311.386 250.04 320.043 260.65 332.478 288H361C356.65 266.099 350.82 253.826 319.644 231.986C341.89 216.086 348.68 204.117 353.869 179H326.774C317.188 204.57 308.992 213.252 289.696 219.875V179Z" fill="white" stroke="white"/>
</svg>
