<svg width="1035" height="832" viewBox="0 0 1035 832" fill="none" xmlns="http://www.w3.org/2000/svg">
<g clip-path="url(#clip0_96_860)">
<path d="M931.104 656.008L887.713 580.252H974.494L931.104 656.008Z" fill="#FF204E"/>
<circle cx="931.5" cy="558.5" r="48.5" fill="#FF204E"/>
<circle cx="931.5" cy="558.5" r="22.8471" fill="white"/>
</g>
<path d="M441.517 573.866C427.556 562.022 418.059 551.055 413.811 545.93C400.736 530.167 391.929 515.12 386.095 503.465C374.229 479.769 369.141 455.498 367.913 449.647C359.474 409.613 363.278 369.692 364.666 357.312C354.782 372.453 344.899 387.603 335.005 402.744C335.081 412.053 335.77 424.33 338.234 438.538C338.725 441.365 340.802 453.076 346.031 469.895C349.213 480.127 354.858 498.264 365.553 518.323C383.961 552.864 405.192 573.065 410.866 578.303C423.968 589.892 444.066 607.455 474.982 624.49C499.347 637.916 521.701 646.207 539.09 651.436C526.157 637.68 513.215 623.915 500.282 610.159C473.179 598.438 453.818 584.286 441.527 573.866H441.517Z" fill="#F2F2F2"/>
<path d="M717.573 597.807C709.266 602.64 683.155 617.122 647.084 624.706C620.869 630.218 598.383 630.209 586.187 629.7C583.222 629.577 580.768 629.417 579.097 629.304C595.976 636.097 612.845 642.891 629.724 649.674C638.4 648.958 647.235 647.573 656.175 645.378C731.233 626.911 773.911 561.042 790.592 531.156C777.735 549.114 754.531 576.325 717.583 597.807H717.573Z" fill="#F2F2F2"/>
<path d="M503.784 179.915C522.834 173.744 547.284 168.449 575.717 168.665C664.633 169.334 726.39 223.313 745.412 241.412C733.121 231.764 715.251 219.676 691.82 209.67C679.095 204.233 650.275 193.238 611.542 190.863C596.684 189.95 556.724 188.857 512.157 205.354C488.841 213.985 471.65 224.688 465.561 228.627C453.063 236.711 443.896 244.39 439.781 247.951C433.38 253.482 428.122 258.654 424.016 262.96C405.362 271.167 386.709 279.364 368.055 287.57C397.367 237.983 444.425 198.599 503.775 179.925L503.784 179.915Z" fill="#F2F2F2"/>
<path d="M759.741 253.557C687.261 370.643 604.301 459.888 534.36 523.938C550.569 490.472 566.777 456.995 582.976 423.529C631.281 379.83 686.515 322.921 739.511 251.616C729.911 250.231 719.045 248.055 706.801 244.766C706.131 244.587 705.423 244.38 704.743 244.192C681.766 273.918 655.325 305.51 624.786 338.138C595.154 369.786 553.212 411.44 498.101 456.958L545.811 376.381C591.878 336.574 639.569 290.821 686.401 238.614C685.155 238.199 683.919 237.794 682.644 237.361C678.179 235.834 673.61 234.553 668.956 233.488C610.485 296.455 549.625 348.737 492.399 391.626C512.695 359.554 532.982 327.491 553.278 295.419C579.295 276.895 607.728 254.989 637.228 229.39C565.616 226.431 488.963 260.303 488.963 260.303C488.963 260.303 423.723 290.237 383.867 322.29L391.844 336.432L352.281 296.502C352.281 296.502 349.562 296.455 347.834 298.179C346.107 299.903 330.219 317.287 330.219 317.287C330.219 317.287 329.454 319.011 330.804 320.359C332.154 321.706 502.963 467.689 563.133 706.017L593.2 697.509L539.269 548.577C539.269 548.577 586.261 507.865 610.447 506.103C634.632 504.341 694.312 519.83 694.312 519.83C694.312 519.83 744.694 539.56 846.325 518.822L848.327 518.427L796.756 249.487C796.756 249.487 785.144 254.631 759.741 253.557Z" fill="#FF204E"/>
<path d="M802.713 59.4369C821.055 30.1064 837.217 1.20929 851.49 -27C822.018 23.3791 780.425 84.0187 722.161 147.127C693.662 177.993 664.974 205.317 637.239 229.39C648.019 229.833 658.687 231.114 668.957 233.479C716.148 182.657 761.791 124.882 802.713 59.4463V59.4369Z" fill="#FF204E"/>
<path d="M805.866 94.9012C829.07 56.9213 846.77 24.5758 858.749 1.80298C841.606 31.4444 822.566 61.8207 801.373 92.6588C764.651 146.109 725.833 194.632 686.402 238.595C692.822 240.725 698.939 242.581 704.754 244.182C750.698 184.721 782.757 132.721 805.866 94.8918V94.9012Z" fill="#FF204E"/>
<path d="M774.875 228.457C816.685 157.086 846.289 89.5871 867.548 29.918C843.429 86.1104 809.426 151.951 760.989 221.739C753.89 231.971 746.725 241.921 739.522 251.616C747.046 252.7 753.776 253.303 759.752 253.557C764.85 245.322 769.891 236.965 774.875 228.457Z" fill="#FF204E"/>
<path d="M353.48 217.678L344.927 230.04L370.302 247.536L366.422 253.142L341.047 235.646L332.475 248.026L326.859 244.154L347.872 213.796L353.489 217.669L353.48 217.678Z" fill="#F2F2F2"/>
<path d="M394.865 218.093L386.492 227.119C385.821 227.835 384.991 228.495 383.99 229.079C382.989 229.663 381.885 230.059 380.667 230.247C379.449 230.435 378.184 230.351 376.863 229.983C375.541 229.616 374.229 228.834 372.936 227.637L359.134 214.88L363.779 209.877L377.58 222.634C378.231 223.237 378.892 223.529 379.563 223.501C380.233 223.473 380.875 223.124 381.507 222.446L389.843 213.457L394.855 218.093H394.865ZM403.37 212.939C404.229 213.73 404.9 214.559 405.39 215.407C405.872 216.265 406.212 217.103 406.401 217.951C406.589 218.79 406.646 219.619 406.57 220.429C406.495 221.24 406.334 222.012 406.089 222.747C405.834 223.482 405.523 224.16 405.145 224.792C404.767 225.423 404.352 225.969 403.918 226.441L395.545 235.467L390.532 230.831L398.905 221.805C399.519 221.136 399.811 220.476 399.774 219.826C399.736 219.167 399.387 218.545 398.735 217.933L375.89 196.818L380.535 191.815L403.38 212.929L403.37 212.939Z" fill="#F2F2F2"/>
<path d="M427.197 185.389C427.508 185.776 427.725 186.181 427.848 186.614C427.971 187.048 428.018 187.481 427.971 187.915C427.924 188.348 427.791 188.753 427.584 189.149C427.376 189.544 427.083 189.884 426.715 190.185L414.679 199.852C414.028 200.38 413.263 200.87 412.404 201.313C411.545 201.765 410.611 202.104 409.619 202.358C408.628 202.613 407.59 202.745 406.504 202.773C405.419 202.811 404.323 202.66 403.238 202.339C402.143 202.019 401.057 201.501 399.981 200.794C398.905 200.088 397.885 199.136 396.913 197.939L387.029 185.681L392.353 181.404L402.237 193.662C402.794 194.359 403.417 194.887 404.106 195.245C404.786 195.603 405.494 195.82 406.221 195.885C406.948 195.951 407.675 195.867 408.392 195.631C409.11 195.396 409.799 195.028 410.441 194.51L419.748 187.029L406.221 170.258L411.536 165.98L427.187 185.38L427.197 185.389Z" fill="#F2F2F2"/>
<path d="M455.394 172.801L449.4 176.08L440.347 159.592C439.922 158.81 439.384 158.329 438.752 158.15C438.11 157.971 437.383 158.103 436.571 158.546L428.783 162.805L439.148 181.686L433.154 184.965L421.136 163.068C420.91 162.654 420.778 162.23 420.73 161.778C420.683 161.335 420.73 160.901 420.863 160.477C420.985 160.063 421.203 159.667 421.486 159.319C421.769 158.961 422.118 158.678 422.534 158.442L433.342 152.535C434.173 152.083 435.145 151.743 436.259 151.508C437.373 151.282 438.534 151.253 439.752 151.423L438.742 149.586L446.851 145.148C447.418 144.837 448.05 144.573 448.758 144.357C449.457 144.14 450.193 144.008 450.967 143.942C451.741 143.876 452.534 143.904 453.336 144.036C454.148 144.159 454.932 144.422 455.706 144.809C456.48 145.195 457.216 145.723 457.924 146.392C458.632 147.061 459.265 147.909 459.831 148.936L468.884 165.424L462.89 168.703L453.837 152.214C453.412 151.432 452.883 150.942 452.27 150.754C451.656 150.566 450.939 150.688 450.127 151.131L444.737 154.08C445.341 154.711 445.879 155.446 446.351 156.304L455.404 172.792L455.394 172.801Z" fill="#F2F2F2"/>
<path d="M496.487 136.452C496.78 137.347 496.94 138.364 496.968 139.504C496.997 140.644 496.808 141.775 496.393 142.896C495.977 144.017 495.307 145.063 494.363 146.034C493.419 147.004 492.135 147.767 490.502 148.304L478.806 152.167L476.767 146.015L488.463 142.152C489.341 141.86 489.936 141.37 490.238 140.663C490.54 139.966 490.559 139.212 490.294 138.421C490.021 137.573 489.53 136.998 488.822 136.697C488.114 136.395 487.387 136.367 486.622 136.621L474.926 140.484C474.048 140.776 473.453 141.266 473.151 141.963C472.849 142.661 472.83 143.414 473.095 144.206L476.087 153.241C476.37 154.108 476.861 154.683 477.569 154.994C478.268 155.295 479.023 155.314 479.816 155.05L491.465 151.206L493.513 157.378L481.817 161.241C480.92 161.533 479.901 161.702 478.749 161.731C477.607 161.759 476.474 161.57 475.351 161.156C474.227 160.741 473.179 160.072 472.207 159.13C471.235 158.188 470.47 156.907 469.932 155.286L466.921 146.194C466.628 145.299 466.468 144.281 466.439 143.141C466.411 142.001 466.6 140.87 467.015 139.749C467.43 138.628 468.11 137.582 469.045 136.612C469.989 135.641 471.273 134.888 472.906 134.341L484.602 130.478C485.499 130.186 486.518 130.016 487.67 129.988C488.812 129.96 489.945 130.148 491.068 130.563C492.192 130.977 493.24 131.646 494.212 132.589C495.194 133.531 495.949 134.812 496.487 136.433V136.452Z" fill="#F2F2F2"/>
<path d="M536.646 148.794L529.896 149.868L527.404 134.332C527.262 133.455 526.988 132.683 526.573 132.033C526.158 131.383 525.657 130.846 525.053 130.431C524.449 130.016 523.779 129.724 523.043 129.574C522.297 129.413 521.523 129.404 520.711 129.536L508.911 131.42L512.328 152.676L505.578 153.75L501.623 129.103C501.548 128.631 501.566 128.189 501.67 127.755C501.784 127.322 501.963 126.926 502.227 126.577C502.492 126.229 502.813 125.927 503.2 125.692C503.587 125.456 504.011 125.296 504.483 125.221L519.682 122.79C520.531 122.658 521.438 122.601 522.41 122.648C523.382 122.686 524.364 122.846 525.355 123.12C526.347 123.393 527.319 123.789 528.263 124.297C529.207 124.806 530.075 125.475 530.868 126.295C531.661 127.114 532.35 128.094 532.926 129.244C533.502 130.393 533.908 131.722 534.153 133.248L536.646 148.785V148.794Z" fill="#F2F2F2"/>
<path d="M575.718 148.493L551.07 148.436C550.437 148.436 549.758 148.361 549.031 148.21C548.304 148.059 547.586 147.824 546.878 147.513C546.17 147.193 545.491 146.787 544.849 146.288C544.197 145.789 543.631 145.186 543.131 144.479C542.63 143.772 542.234 142.943 541.941 142.011C541.649 141.078 541.498 140.023 541.507 138.854L541.554 120.397C541.554 119.765 541.63 119.087 541.781 118.361C541.932 117.636 542.168 116.92 542.479 116.213C542.791 115.507 543.206 114.828 543.716 114.188C544.226 113.547 544.839 112.972 545.547 112.473C546.255 111.973 547.077 111.578 548.011 111.286C548.946 110.994 549.994 110.843 551.164 110.843L575.812 110.899L575.793 117.721L551.145 117.664C550.248 117.664 549.569 117.9 549.097 118.371C548.625 118.842 548.389 119.539 548.379 120.463L548.342 138.873C548.342 139.749 548.578 140.428 549.059 140.908C549.54 141.389 550.22 141.634 551.098 141.634L575.746 141.69L575.727 148.512L575.718 148.493Z" fill="#F2F2F2"/>
<path d="M619.123 123.666L604.227 121.452L599.677 151.903L592.918 150.895L597.468 120.444L582.552 118.22L583.563 111.474L620.124 116.92L619.114 123.666H619.123Z" fill="#F2F2F2"/>
<path d="M659.593 134.643L633.217 127.322L624.957 156.982L618.377 155.154L627.544 122.234C627.666 121.782 627.874 121.377 628.157 121.018C628.441 120.66 628.771 120.368 629.149 120.152C629.526 119.926 629.941 119.794 630.395 119.737C630.848 119.681 631.31 119.718 631.782 119.85L661.424 128.076L659.593 134.643ZM652.513 148.681L631.707 142.906L633.548 136.282L654.353 142.058L652.513 148.681Z" fill="#F2F2F2"/>
<path d="M271.224 638.018L142 801.496C247.253 760.378 405.087 648.542 509.5 562C501 544 492.5 527 478 504C401.778 560.664 323.243 613.492 271.224 638.018Z" fill="#FF204E" stroke="#FF204E"/>
<path d="M220.439 551.099L80.9998 705.956C190.099 671.216 358.31 566.436 468 486.339L431 432.5C352.702 483.079 272.926 530.352 220.439 551.099Z" fill="#FF204E" stroke="#FF204E"/>
<path d="M153.247 474.986L1.99997 618.332C118.897 591.07 306.644 492.208 421.5 419.829C406.368 401.027 397.458 390.181 380 369.711C295.746 415.381 208.742 457.986 153.247 474.986Z" fill="#FF204E" stroke="#FF204E"/>
<ellipse cx="944.546" cy="398.486" rx="59.5457" ry="59.4855" fill="#FF204E"/>
<path d="M928.498 405.624C922.92 409.213 908.251 402.035 908.871 402.234C909.491 402.433 907.322 401.536 908.871 399.841C910.111 398.485 912.625 397.481 913.726 397.149L946.782 383.29L957.629 379.003L964.653 376.41C965.686 375.978 968.042 375.134 969.199 375.214C970.645 375.314 972.917 375.114 973.021 378.105C973.103 380.498 971.953 388.741 971.368 392.563L966.409 420.879C966.031 422.441 965.211 425.585 963.724 426.462C961.864 427.559 958.869 426.562 956.596 425.366C954.778 424.408 943.649 416.99 938.312 413.401C937.451 412.67 935.853 410.908 936.349 409.712C936.969 408.216 937.485 407.947 954.737 391.865C958.075 388.753 957.112 388.674 956.803 388.475C955.77 388.076 939.488 398.083 928.498 405.624Z" fill="white" stroke="white"/>
<rect x="843" y="193" width="102.261" height="102.261" rx="31" fill="#FF204E"/>
<path d="M898.48 224.123H887.461V254.381C876.258 247.598 873.048 240.89 872.383 224.123H860.785C864.361 256.598 872.622 266.324 898.48 268.584V252.529C907.3 253.1 910.821 257.428 915.878 268.584H927.477C925.707 259.651 923.337 254.645 910.659 245.736C919.705 239.251 922.467 234.368 924.577 224.123H913.558C909.66 234.553 906.327 238.095 898.48 240.796V224.123Z" fill="white" stroke="white"/>
<path d="M378.5 369C437 437 458 463.5 512 567" stroke="#1C1C1C"/>
<path d="M703.414 696.771L669.339 703.241L666.973 690.801C666.85 690.167 666.793 689.477 666.812 688.729C666.812 687.982 666.916 687.235 667.086 686.468C667.266 685.702 667.541 684.955 667.91 684.226C668.279 683.498 668.771 682.817 669.376 682.192C669.982 681.568 670.711 681.019 671.572 680.556C672.433 680.092 673.436 679.742 674.59 679.524L689.75 676.649C690.658 676.478 691.292 676.119 691.652 675.58C692.002 675.04 692.097 674.331 691.926 673.451L691.358 670.48C691.188 669.563 690.829 668.92 690.299 668.541C689.759 668.163 689.059 668.049 688.198 668.219L666.594 672.325L665.317 665.599L686.92 661.493C688.056 661.276 689.116 661.228 690.081 661.351C691.046 661.474 691.936 661.711 692.721 662.07C693.516 662.43 694.216 662.884 694.841 663.423C695.465 663.962 695.995 664.558 696.449 665.192C696.904 665.826 697.263 666.498 697.547 667.179C697.831 667.869 698.03 668.522 698.143 669.147L698.721 672.174C699.052 673.915 699.014 675.447 698.616 676.762C698.21 678.077 697.613 679.203 696.809 680.13C696.005 681.057 695.087 681.795 694.055 682.344C693.024 682.883 692.03 683.252 691.084 683.432L675.868 686.326C675.319 686.43 674.893 686.591 674.59 686.809C674.288 687.026 674.079 687.282 673.947 687.575C673.814 687.868 673.739 688.19 673.71 688.531C673.682 688.871 673.682 689.212 673.691 689.552L674.78 695.266L702.127 690.073L703.405 696.799L703.414 696.771Z" fill="#F2F2F2"/>
<path d="M748.325 657.917C749.044 659.28 749.555 660.661 749.858 662.07C750.16 663.48 750.265 664.861 750.179 666.242C750.094 667.614 749.839 668.948 749.403 670.235C748.968 671.521 748.391 672.723 747.672 673.848C746.953 674.974 746.091 676.005 745.088 676.932C744.085 677.86 742.988 678.645 741.776 679.288L730.866 685.078C729.645 685.731 728.368 686.204 727.033 686.516C725.709 686.818 724.374 686.96 723.031 686.923C721.687 686.885 720.372 686.686 719.066 686.327C717.76 685.967 716.52 685.428 715.337 684.728C714.155 684.018 713.076 683.157 712.073 682.117C711.079 681.086 710.218 679.884 709.499 678.522L706.613 673.082C705.524 671.039 704.919 668.957 704.777 666.838C704.644 664.729 704.89 662.714 705.524 660.793C706.158 658.882 707.133 657.132 708.448 655.543C709.764 653.963 711.335 652.686 713.17 651.711L724.081 645.922C725.292 645.278 726.56 644.805 727.885 644.503C729.21 644.2 730.544 644.058 731.888 644.096C733.232 644.134 734.547 644.332 735.853 644.692C737.159 645.051 738.408 645.581 739.591 646.281C740.773 646.981 741.871 647.852 742.865 648.883C743.858 649.914 744.719 651.115 745.439 652.478L748.325 657.917ZM739.335 655.713C738.701 654.521 737.906 653.547 736.96 652.799C736.004 652.052 734.982 651.522 733.894 651.21C732.806 650.898 731.68 650.803 730.544 650.936C729.399 651.068 728.311 651.418 727.279 651.976L716.369 657.766C715.356 658.286 714.467 658.977 713.7 659.847C712.943 660.718 712.376 661.692 712.006 662.77C711.637 663.849 711.495 665.003 711.571 666.223C711.647 667.444 712.016 668.655 712.65 669.866L715.536 675.305C716.18 676.516 716.974 677.491 717.93 678.238C718.886 678.985 719.908 679.506 721.006 679.808C722.103 680.111 723.229 680.196 724.374 680.064C725.529 679.931 726.617 679.581 727.648 679.014L738.559 673.224C739.751 672.59 740.726 671.824 741.493 670.906C742.25 669.998 742.789 669.014 743.101 667.955C743.413 666.895 743.499 665.779 743.357 664.615C743.215 663.452 742.836 662.288 742.231 661.143L739.344 655.704L739.335 655.713ZM734.358 652.686C734.774 652.903 735.124 653.187 735.408 653.547C735.692 653.906 735.9 654.285 736.023 654.71C736.146 655.136 736.184 655.571 736.137 656.025C736.089 656.479 735.947 656.915 735.711 657.34L725.169 676.914C725.008 677.254 724.819 677.538 724.583 677.765C724.346 677.992 724.081 678.181 723.788 678.342C723.286 678.607 722.756 678.739 722.179 678.749C721.602 678.749 721.062 678.616 720.561 678.333C720.144 678.115 719.794 677.831 719.51 677.472C719.227 677.122 719.018 676.734 718.886 676.318C718.753 675.901 718.706 675.466 718.744 675.021C718.782 674.577 718.924 674.142 719.16 673.716L729.749 654.124C729.967 653.707 730.251 653.357 730.61 653.074C730.97 652.79 731.358 652.582 731.774 652.459C732.2 652.336 732.626 652.298 733.08 652.336C733.525 652.374 733.96 652.506 734.377 652.724L734.358 652.686Z" fill="#F2F2F2"/>
<path d="M791.267 641.201L765.367 664.265L756.936 654.805C756.501 654.322 756.103 653.755 755.725 653.111C755.356 652.468 755.043 651.768 754.797 651.021C754.561 650.273 754.409 649.488 754.343 648.675C754.286 647.861 754.353 647.028 754.551 646.177C754.75 645.326 755.1 644.484 755.592 643.642C756.094 642.8 756.775 641.986 757.655 641.201L769.181 630.937C769.871 630.322 770.241 629.688 770.259 629.045C770.288 628.401 769.994 627.739 769.408 627.077L767.392 624.816C766.768 624.125 766.134 623.747 765.481 623.699C764.828 623.652 764.175 623.917 763.513 624.504L747.095 639.129L742.543 634.021L758.961 619.395C759.831 618.629 760.702 618.042 761.601 617.645C762.5 617.247 763.371 617.002 764.241 616.897C765.102 616.793 765.944 616.822 766.758 616.964C767.572 617.115 768.339 617.342 769.048 617.654C769.758 617.966 770.42 618.345 771.016 618.79C771.613 619.234 772.124 619.688 772.54 620.161L774.593 622.46C775.776 623.785 776.524 625.118 776.864 626.452C777.196 627.786 777.262 629.063 777.044 630.274C776.836 631.485 776.42 632.592 775.814 633.585C775.209 634.579 774.546 635.402 773.827 636.045L762.263 646.347C761.847 646.726 761.563 647.076 761.421 647.416C761.279 647.757 761.223 648.088 761.26 648.4C761.298 648.722 761.393 649.034 761.554 649.337C761.715 649.649 761.875 649.942 762.065 650.226L765.935 654.568L786.715 636.055L791.267 641.163V641.201Z" fill="#F2F2F2"/>
<path d="M812.974 599.737C813.485 600.143 813.968 600.626 814.441 601.193C814.914 601.761 815.321 602.385 815.681 603.086C816.04 603.786 816.315 604.524 816.513 605.328C816.712 606.122 816.788 606.955 816.731 607.825C816.684 608.695 816.485 609.585 816.135 610.502C815.785 611.42 815.255 612.328 814.536 613.236L798.922 632.885L793.557 628.628L809.17 608.979C809.7 608.308 809.908 607.626 809.785 606.936C809.662 606.245 809.293 605.649 808.669 605.157L806.275 603.256C805.574 602.698 804.893 602.452 804.24 602.518C803.587 602.584 802.972 602.972 802.404 603.681L792.8 615.762C791.692 617.153 790.519 618.127 789.251 618.676C787.992 619.234 786.743 619.509 785.523 619.499C784.302 619.49 783.138 619.272 782.05 618.837C780.952 618.402 780.034 617.891 779.277 617.285L769.341 609.386L788.967 584.685L794.323 588.942L778.956 608.279L783.535 611.912C784.255 612.48 784.936 612.716 785.589 612.631C786.242 612.546 786.847 612.148 787.406 611.448L797.039 599.33C797.626 598.592 798.411 597.882 799.376 597.22C800.341 596.558 801.42 596.085 802.612 595.811C803.805 595.536 805.082 595.527 806.445 595.792C807.808 596.057 809.18 596.738 810.571 597.845L812.965 599.746L812.974 599.737Z" fill="#F2F2F2"/>
<path d="M138.82 250.808L95.5659 249.701L95.966 233.909C95.9834 233.104 96.0965 232.247 96.3169 231.341C96.5142 230.43 96.8385 229.546 97.2484 228.657C97.6699 227.77 98.2018 226.931 98.8441 226.14C99.4864 225.35 100.266 224.649 101.169 224.048C102.073 223.446 103.106 222.97 104.278 222.632C105.45 222.294 106.766 222.132 108.231 222.172L127.473 222.668C128.625 222.7 129.493 222.429 130.074 221.866C130.643 221.301 130.946 220.461 130.971 219.344L131.063 215.572C131.097 214.408 130.829 213.529 130.282 212.928C129.725 212.324 128.901 212.001 127.806 211.981L100.382 211.283L100.601 202.745L128.024 203.443C129.466 203.477 130.771 203.699 131.915 204.104C133.06 204.509 134.082 205.032 134.944 205.678C135.819 206.326 136.552 207.064 137.172 207.887C137.791 208.709 138.279 209.576 138.666 210.468C139.052 211.361 139.313 212.275 139.48 213.18C139.643 214.097 139.713 214.946 139.687 215.737L139.591 219.58C139.536 221.79 139.085 223.648 138.253 225.147C137.41 226.643 136.386 227.858 135.16 228.776C133.935 229.694 132.621 230.351 131.219 230.748C129.819 231.133 128.51 231.321 127.309 231.29L107.992 230.802C107.296 230.784 106.734 230.868 106.308 231.053C105.881 231.238 105.56 231.495 105.321 231.817C105.082 232.14 104.905 232.512 104.78 232.92C104.656 233.328 104.566 233.743 104.487 234.161L104.305 241.415L139.019 242.302L138.801 250.841L138.82 250.808Z" fill="#F2F2F2"/>
<path d="M200.52 230.476C200.528 232.397 200.295 234.22 199.815 235.953C199.335 237.686 198.652 239.274 197.759 240.751C196.872 242.219 195.819 243.546 194.594 244.716C193.369 245.887 192.037 246.882 190.591 247.711C189.145 248.539 187.597 249.182 185.952 249.627C184.308 250.072 182.64 250.306 180.93 250.317L165.521 250.412C163.795 250.428 162.109 250.212 160.454 249.786C158.814 249.355 157.257 248.741 155.793 247.922C154.33 247.104 152.99 246.124 151.754 244.972C150.519 243.82 149.46 242.507 148.557 241.05C147.659 239.582 146.964 238.006 146.457 236.276C145.954 234.562 145.697 232.736 145.689 230.814L145.642 223.133C145.62 220.245 146.154 217.594 147.222 215.169C148.294 212.76 149.731 210.675 151.542 208.918C153.347 207.172 155.436 205.8 157.809 204.804C160.176 203.817 162.651 203.313 165.244 203.297L180.652 203.202C182.363 203.191 184.038 203.401 185.677 203.832C187.317 204.263 188.874 204.877 190.338 205.696C191.801 206.514 193.14 207.494 194.376 208.646C195.612 209.799 196.687 211.106 197.59 212.564C198.493 214.021 199.203 215.618 199.706 217.332C200.208 219.046 200.466 220.872 200.474 222.794L200.52 230.476ZM191.856 222.843C191.844 221.159 191.529 219.622 190.914 218.249C190.29 216.871 189.466 215.694 188.444 214.72C187.421 213.746 186.231 212.991 184.899 212.481C183.557 211.965 182.151 211.723 180.688 211.744L165.28 211.839C163.86 211.829 162.478 212.078 161.127 212.598C159.787 213.122 158.596 213.871 157.565 214.85C156.534 215.829 155.71 217.023 155.088 218.416C154.466 219.809 154.175 221.361 154.176 223.066L154.222 230.748C154.234 232.458 154.549 233.995 155.174 235.374C155.799 236.752 156.628 237.918 157.666 238.887C158.705 239.856 159.901 240.601 161.243 241.117C162.596 241.637 164.001 241.879 165.469 241.848L180.878 241.753C182.562 241.742 184.082 241.458 185.46 240.887C186.822 240.32 187.987 239.544 188.945 238.553C189.902 237.562 190.641 236.378 191.157 235.009C191.673 233.641 191.927 232.136 191.919 230.52L191.872 222.838L191.856 222.843ZM188.103 216.62C188.438 217.101 188.661 217.617 188.767 218.179C188.873 218.74 188.884 219.279 188.774 219.82C188.664 220.362 188.455 220.865 188.14 221.34C187.825 221.814 187.417 222.214 186.909 222.547L163.942 238.093C163.568 238.377 163.194 238.581 162.802 238.696C162.409 238.81 162.007 238.866 161.589 238.874C160.882 238.877 160.22 238.717 159.576 238.394C158.938 238.06 158.418 237.602 158.028 236.999C157.693 236.517 157.47 236.001 157.364 235.44C157.252 234.889 157.246 234.34 157.341 233.803C157.435 233.266 157.634 232.758 157.933 232.288C158.232 231.818 158.64 231.419 159.148 231.085L182.178 215.546C182.659 215.212 183.175 214.989 183.736 214.883C184.298 214.777 184.847 214.771 185.379 214.876C185.92 214.986 186.413 215.19 186.893 215.494C187.363 215.793 187.768 216.191 188.102 216.672L188.103 216.62Z" fill="#F2F2F2"/>
<rect x="64.5112" y="318.574" width="47.2463" height="8.73239" rx="2" transform="rotate(-89.7421 64.5112 318.574)" fill="#F2F2F2"/>
<path d="M47.2596 275.452C47.2926 273.041 49.274 271.113 51.6851 271.146L67.9009 271.368C70.3121 271.401 72.24 273.382 72.207 275.793V275.793C72.174 278.205 70.1927 280.132 67.7815 280.099L51.5657 279.878C49.1546 279.845 47.2267 277.863 47.2596 275.452V275.452Z" fill="#F2F2F2"/>
<path d="M112.127 275.871C112.16 273.471 114.123 271.548 116.523 271.565L127.567 271.641C128.478 271.647 129.365 271.938 130.102 272.474V272.474C133.538 274.968 131.753 280.402 127.507 280.373L116.463 280.297C114.04 280.28 112.094 278.293 112.127 275.871V275.871Z" fill="#F2F2F2"/>
<path d="M125.236 292.728L129.219 292.782L128.038 301.588L125.115 301.578L125.236 292.728Z" fill="#F2F2F2"/>
<path d="M80.0931 275.673C80.1261 273.262 82.1075 271.334 84.5186 271.367L101.582 271.601C103.993 271.634 105.921 273.615 105.888 276.026V276.026C105.855 278.437 103.874 280.365 101.463 280.332L84.3992 280.099C81.988 280.066 80.0602 278.085 80.0931 275.673V275.673Z" fill="#F2F2F2"/>
<path d="M80.0931 275.673C80.1261 273.262 82.1075 271.334 84.5186 271.367L101.582 271.601C103.993 271.634 105.921 273.615 105.888 276.026C105.855 278.437 103.874 280.365 101.463 280.332L84.3992 280.099C81.9881 280.066 80.0602 278.085 80.0931 275.673Z" fill="#F2F2F2"/>
<path d="M47.1247 295.793C47.1512 293.86 48.7395 292.315 50.6723 292.341L68.6203 292.587C70.5531 292.613 72.0985 294.201 72.0721 296.134L72.0484 297.866C72.022 299.799 70.4337 301.345 68.5009 301.318L50.5529 301.073C48.6201 301.046 47.0746 299.458 47.1011 297.525L47.1247 295.793Z" fill="#F2F2F2"/>
<path d="M47.1124 302.272L55.8495 302.332L55.7715 318.549L47 318.541L47.1124 302.272Z" fill="#F2F2F2"/>
<path d="M64.6011 302.341L73.3381 302.401L73.2601 318.618L64.4886 318.61L64.6011 302.341Z" fill="#F2F2F2"/>
<rect x="79.481" y="318.577" width="47.158" height="8.73239" rx="4.3662" transform="rotate(-89.7421 79.481 318.577)" fill="#F2F2F2"/>
<path d="M79.571 302.344L88.3081 302.404L88.2301 318.621L79.4586 318.613L79.571 302.344Z" fill="#F2F2F2"/>
<rect width="46.0002" height="8.73239" rx="4.3662" transform="matrix(0.00443523 -0.99999 0.99999 0.00456423 96.9543 318.597)" fill="#F2F2F2"/>
<path d="M97.0306 302.618L105.754 302.678L105.67 318.895L96.8308 318.834L97.0306 302.618Z" fill="#F2F2F2"/>
<path d="M177.926 276.964C178.887 275.056 180.774 273.787 182.903 273.618L194.843 272.67C197.287 272.475 199.369 274.425 199.335 276.877V276.877C199.304 279.176 197.414 281.014 195.115 280.983L178.695 280.758C177.914 280.747 177.245 280.195 177.088 279.43V279.43C177.012 279.063 177.063 278.681 177.231 278.346L177.926 276.964Z" fill="#F2F2F2"/>
<path d="M176.954 281.361C176.987 278.95 178.862 272.015 185.099 272.093L195.688 272.257C197.737 272.285 199.371 274.262 199.338 276.674C199.305 279.085 197.617 281.017 195.568 280.989L181.068 280.79C179.019 280.762 176.921 283.772 176.954 281.361Z" fill="#F2F2F2"/>
<rect x="176.778" y="319.274" width="43.7469" height="8.73239" rx="4.3662" transform="rotate(-89.7421 176.778 319.274)" fill="#F2F2F2"/>
<path d="M176.75 307.523C176.767 305.119 178.729 303.183 181.134 303.2V303.2C183.535 303.216 185.469 305.173 185.457 307.574L185.421 315.028C185.41 317.446 183.452 319.404 181.034 319.417V319.417V319.417C178.623 319.4 176.681 317.432 176.698 315.02L176.75 307.523Z" fill="#F2F2F2"/>
<path d="M194.252 319.295L194.46 272.286L203.193 272.326L202.984 319.335L194.252 319.295Z" fill="#F2F2F2"/>
<path d="M194.327 303.315L203.051 303.376L202.967 319.593L194.128 319.532L194.327 303.315Z" fill="#F2F2F2"/>
<path d="M111.915 318.813L112.134 275.577L120.839 275.637L120.529 318.964L111.915 318.813Z" fill="#F2F2F2"/>
<path d="M151.099 319.214C148.741 319.17 146.856 317.239 146.868 314.881L147.061 276.154C147.073 273.749 149.035 271.811 151.44 271.828V271.828C153.842 271.845 155.775 273.805 155.758 276.207L155.491 314.934C155.474 317.335 153.499 319.259 151.099 319.214V319.214Z" fill="#F2F2F2"/>
<path d="M111.995 302.722L120.644 302.781L120.533 318.946L111.8 318.938L111.995 302.722Z" fill="#F2F2F2"/>
<path d="M150.481 319.172L150.54 310.523L169.192 310.652L169.192 319.384L150.481 319.172Z" fill="#F2F2F2"/>
<path d="M172.925 319.36L172.986 310.628L175.473 310.645L180.41 319.412L172.925 319.36Z" fill="#F2F2F2"/>
<path d="M175.421 319.294L175.481 310.645L181.698 310.688L181.034 319.416L175.421 319.294Z" fill="#F2F2F2"/>
<path d="M151.995 280.509L152.055 271.861L169.463 271.981L169.459 280.714L151.995 280.509Z" fill="#F2F2F2"/>
<path d="M151.866 299.221L151.926 290.572L166.847 290.675L166.835 299.408L151.866 299.221Z" fill="#F2F2F2"/>
<path fill-rule="evenodd" clip-rule="evenodd" d="M112.028 285.955C112.046 283.298 112.777 280.871 114.043 278.8L113.943 293.394C112.706 291.155 112.01 288.609 112.028 285.955ZM127.531 301.581C127.313 301.58 127.097 301.574 126.881 301.563L126.941 292.853C126.941 292.853 126.941 292.853 126.941 292.853C130.53 292.878 133.458 290.091 133.482 286.629C133.506 283.166 130.616 280.339 127.028 280.314C127.028 280.314 127.028 280.314 127.028 280.314L127.088 271.649C127.298 271.643 127.509 271.641 127.721 271.642C136.333 271.702 143.272 277.86 143.214 286.17C143.157 294.481 136.143 301.641 127.531 301.581Z" fill="#F2F2F2"/>
<path d="M241.194 272.546L224.413 272.43L212.147 281.078L241.193 281.278L241.194 272.546Z" fill="#F2F2F2"/>
<path d="M228.042 293.555L223.865 293.554L224.976 302.376L228.001 302L228.042 293.555Z" fill="#F2F2F2"/>
<path d="M240.812 319.823L241.191 276.588L232.486 276.528L232.197 319.855L240.812 319.823Z" fill="#F2F2F2"/>
<path d="M220.967 319.698L228.007 305.003L221.991 300.487L209.116 319.616L220.967 319.698Z" fill="#F2F2F2"/>
<path d="M228.01 304.979L228.032 298.538L221.109 298.494L221.16 304.769L228.01 304.979Z" fill="#F2F2F2"/>
<path d="M240.954 303.732L232.305 303.673L232.194 319.837L240.925 319.95L240.954 303.732Z" fill="#F2F2F2"/>
<path fill-rule="evenodd" clip-rule="evenodd" d="M241.154 286.967C241.172 284.31 240.475 281.872 239.237 279.784L239.136 294.379C240.404 292.158 241.135 289.621 241.154 286.967ZM225.436 302.377C225.654 302.379 225.87 302.376 226.086 302.368L226.146 293.658C222.558 293.634 219.669 290.806 219.692 287.344C219.716 283.881 222.645 281.094 226.233 281.119L226.293 272.454C226.083 272.445 225.872 272.44 225.66 272.439C217.048 272.379 210.025 278.441 209.967 286.751C209.91 295.061 216.824 302.318 225.436 302.377Z" fill="#F2F2F2"/>
<path d="M363.832 530.582C362.892 531.161 361.662 530.868 361.084 529.926L357.658 524.34L356.547 522.527L355.969 521.585L349.491 511.021C348.913 510.079 349.208 508.846 350.148 508.267L352.153 507.032C353.094 506.452 354.324 506.746 354.902 507.688L361.386 518.262L361.964 519.204L363.076 521.017L366.495 526.593C367.072 527.534 366.778 528.767 365.838 529.347L363.832 530.582Z" fill="#1E1E1E"/>
<path d="M325.972 526.204L319.562 529.804L317.968 530.699L317.14 531.164L306.352 537.22L303.212 531.695L314.009 525.633L314.837 525.169L316.431 524.273L322.832 520.679L325.972 526.204Z" fill="#1E1E1E"/>
<path d="M326.75 556.769L321.839 548.082L320.618 545.922L319.984 544.8L311.72 530.184L317.25 527.053L325.521 541.682L326.155 542.804L327.376 544.964L332.28 553.637L326.75 556.769Z" fill="#1E1E1E"/>
<path d="M348.639 509.583C347.734 508.08 348.219 506.127 349.722 505.222L359.832 499.134C361.336 498.228 363.288 498.713 364.194 500.216V500.216C365.099 501.72 364.614 503.672 363.111 504.578L353.001 510.666C351.497 511.571 349.545 511.087 348.639 509.583V509.583Z" fill="#1E1E1E"/>
<rect x="375.86" y="529.619" width="34.3836" height="6.35503" rx="2" transform="rotate(-121.582 375.86 529.619)" fill="#1E1E1E"/>
<path d="M356.691 522.75C355.785 521.247 356.27 519.294 357.774 518.389L367.884 512.3C369.387 511.395 371.34 511.88 372.245 513.383V513.383C373.151 514.887 372.666 516.839 371.162 517.745L361.052 523.833C359.549 524.738 357.596 524.254 356.691 522.75V522.75Z" fill="#1E1E1E"/>
<path d="M358.845 526.22L364.27 522.903L370.448 532.959L365.022 536.322L358.845 526.22Z" fill="#1E1E1E"/>
<path d="M369.684 519.549L375.109 516.231L381.287 526.288L375.861 529.65L369.684 519.549Z" fill="#1E1E1E"/>
<path d="M202.494 589.05C201.688 587.5 202.284 585.591 203.828 584.775L210.935 581.019C211.521 580.709 212.189 580.591 212.846 580.68V580.68C215.908 581.095 216.636 585.194 213.904 586.638L206.798 590.393C205.239 591.217 203.307 590.614 202.494 589.05V589.05Z" fill="#1E1E1E"/>
<path d="M216.704 595.34L219.277 594.003L221.553 600.055L219.675 601.055L216.704 595.34Z" fill="#1E1E1E"/>
<path d="M217.151 616.651L202.396 588.859L207.997 585.898L222.725 613.78L217.151 616.651Z" fill="#1E1E1E"/>
<path fill-rule="evenodd" clip-rule="evenodd" d="M205.904 595.548C205.001 593.838 204.633 592.031 204.732 590.267L209.694 599.657C208.13 598.647 206.807 597.255 205.904 595.548ZM221.226 600.224C221.086 600.298 220.945 600.369 220.803 600.437L217.841 594.832C217.841 594.832 217.841 594.832 217.841 594.832C220.15 593.612 221.067 590.817 219.89 588.589C218.712 586.361 215.886 585.544 213.577 586.764C213.577 586.764 213.577 586.764 213.577 586.765L210.63 581.189C210.763 581.113 210.897 581.038 211.034 580.966C216.575 578.038 223.145 579.595 225.971 584.942C228.797 590.289 226.767 597.296 221.226 600.224Z" fill="#1E1E1E"/>
<path d="M326.657 521.787C325.763 520.287 326.248 518.346 327.743 517.443L334.621 513.284C335.188 512.94 335.849 512.783 336.51 512.835V512.835C339.59 513.073 340.553 517.123 337.909 518.721L331.031 522.881C329.522 523.793 327.559 523.302 326.657 521.787V521.787Z" fill="#1E1E1E"/>
<path d="M341.206 527.248L343.697 525.765L346.319 531.675L344.502 532.782L341.206 527.248Z" fill="#1E1E1E"/>
<path d="M342.881 548.497L326.549 521.602L331.97 518.324L348.28 545.31L342.881 548.497Z" fill="#1E1E1E"/>
<path d="M382.256 518.855L367.017 494.625L372.385 491.261L387.6 515.577L382.256 518.855Z" fill="#1E1E1E"/>
<path d="M392.618 512.142L377.379 487.912L382.747 484.547L397.963 508.864L392.618 512.142Z" fill="#1E1E1E"/>
<path d="M382.234 518.823C381.291 517.314 381.742 515.326 383.244 514.373L393.477 507.879C394.997 506.915 397.011 507.365 397.975 508.886V508.886C398.941 510.409 398.486 512.428 396.959 513.389L386.702 519.845C385.187 520.799 383.184 520.341 382.234 518.823V518.823Z" fill="#1E1E1E"/>
<path d="M393.275 511.797C392.35 510.329 392.787 508.388 394.254 507.46L396.702 505.91C398.173 504.978 400.121 505.415 401.054 506.885V506.885C401.995 508.365 401.547 510.328 400.059 511.256L397.6 512.788C396.131 513.704 394.199 513.26 393.275 511.797V511.797Z" fill="#1E1E1E"/>
<path fill-rule="evenodd" clip-rule="evenodd" d="M330.436 528.078C329.436 526.424 328.964 524.641 328.961 522.875L334.457 531.962C332.837 531.045 331.436 529.731 330.436 528.078ZM346.002 531.864C345.866 531.946 345.73 532.025 345.592 532.1L342.312 526.676C342.312 526.676 342.312 526.676 342.312 526.676C344.547 525.325 345.301 522.481 343.997 520.325C342.693 518.169 339.824 517.516 337.59 518.867C337.59 518.867 337.59 518.868 337.59 518.868L334.326 513.471C334.454 513.388 334.585 513.306 334.717 513.226C340.08 509.983 346.728 511.159 349.858 516.334C352.988 521.509 351.365 528.621 346.002 531.864Z" fill="#1E1E1E"/>
<path d="M245.157 601.818C243.651 602.642 241.763 602.103 240.918 600.609L227.052 576.072C226.191 574.548 226.73 572.615 228.256 571.757V571.757C229.779 570.9 231.709 571.441 232.566 572.964L246.385 597.528C247.242 599.05 246.69 600.98 245.157 601.818V601.818Z" fill="#1E1E1E"/>
<path d="M244.751 602.015L241.664 596.529L253.495 589.873L256.649 595.391L244.751 602.015Z" fill="#1E1E1E"/>
<path d="M231.742 577.041L228.656 571.555L239.697 565.343L242.849 570.862L231.742 577.041Z" fill="#1E1E1E"/>
<path d="M264.537 591.503C263.032 592.327 261.143 591.788 260.299 590.294L246.432 565.757C245.571 564.233 246.111 562.3 247.636 561.442V561.442C249.16 560.585 251.089 561.125 251.946 562.648L265.766 587.212C266.623 588.735 266.07 590.664 264.537 591.503V591.503Z" fill="#1E1E1E"/>
<path d="M251.123 566.726L248.036 561.24L259.078 555.028L262.23 560.547L251.123 566.726Z" fill="#1E1E1E"/>
<path d="M262.235 554.11L267.7 550.986L273.988 561.984L268.491 565.174L262.235 554.11Z" fill="#1E1E1E"/>
<path d="M255.611 582.005L261.076 578.881L267.364 589.879L261.867 593.069L255.611 582.005Z" fill="#1E1E1E"/>
<path d="M238.42 588.91L235.333 583.424L244.798 578.099L247.944 583.621L238.42 588.91Z" fill="#1E1E1E"/>
<path d="M278.087 580.521C279.379 581.386 281.029 581.513 282.439 580.856L290.34 577.176C291.957 576.423 292.577 574.442 291.677 572.901V572.901C290.833 571.456 288.977 570.969 287.532 571.814L277.213 577.843C276.723 578.13 276.497 578.719 276.672 579.26V579.26C276.755 579.52 276.924 579.744 277.151 579.895L278.087 580.521Z" fill="#1E1E1E"/>
<path d="M275.895 578.086C276.78 579.601 280.454 583.32 284.376 581.034L291.023 577.134C292.311 576.382 292.637 574.544 291.751 573.029C290.866 571.513 289.104 570.895 287.817 571.647L278.705 576.972C277.417 577.724 275.009 576.57 275.895 578.086Z" fill="#1E1E1E"/>
<rect width="31.8369" height="6.35503" rx="3.17751" transform="matrix(0.496562 0.868001 0.868001 -0.496562 262.191 554.137)" fill="#1E1E1E"/>
<path d="M273.25 547.859L290.236 577.556L295.752 574.4L278.765 544.703L273.25 547.859Z" fill="#1E1E1E"/>
<path fill-rule="evenodd" clip-rule="evenodd" d="M300.443 533.029L290.047 538.934C289.314 539.353 288.725 539.845 288.268 540.405C287.812 540.965 287.472 541.564 287.249 542.203C287.026 542.841 286.895 543.504 286.859 544.181C286.822 544.858 286.861 545.53 286.978 546.187C287.095 546.843 287.263 547.48 287.488 548.094C287.714 548.708 287.966 549.258 288.244 549.745L296.356 564.002C296.866 564.907 297.426 565.667 298.021 566.282C298.615 566.897 299.229 567.395 299.854 567.761C300.479 568.127 301.1 568.389 301.728 568.541C302.35 568.697 302.954 568.766 303.539 568.76C304.12 568.746 304.673 568.671 305.194 568.527C305.716 568.383 306.175 568.198 306.571 567.972L317.026 562.033L314.025 556.785L303.588 562.713C303.038 563.028 302.505 563.082 301.991 562.884C301.478 562.685 301.031 562.246 300.644 561.57L292.547 547.353C292.145 546.637 291.986 546.015 292.073 545.482C292.161 544.95 292.483 544.525 293.044 544.204L303.452 538.292L300.443 533.029Z" fill="#1E1E1E"/>
<path fill-rule="evenodd" clip-rule="evenodd" d="M287.646 547.301C286.774 545.778 287.303 543.837 288.826 542.965C290.349 542.094 292.29 542.622 293.162 544.145L293.221 544.249C292.726 544.871 292.63 545.757 293.049 546.489L301.658 561.547C302.078 562.281 302.892 562.648 303.681 562.534L303.754 562.66C304.625 564.183 304.097 566.125 302.573 566.996C301.05 567.867 299.109 567.339 298.237 565.816L287.646 547.301Z" fill="#1E1E1E"/>
<path fill-rule="evenodd" clip-rule="evenodd" d="M403.992 511.521L398.69 514.894C398.668 514.862 398.646 514.829 398.625 514.796L396.092 510.798C395.159 509.326 395.596 507.376 397.067 506.442C398.547 505.502 400.509 505.948 401.438 507.434L403.947 511.447C403.963 511.471 403.978 511.496 403.992 511.521Z" fill="#1E1E1E"/>
<path d="M387.521 481.775L392.76 478.286L399.783 488.83L394.517 492.387L387.521 481.775Z" fill="#1E1E1E"/>
<path d="M405.136 507.045C406.484 507.819 408.139 507.833 409.5 507.082L417.133 502.872C418.695 502.01 419.178 499.992 418.175 498.516V498.516C417.234 497.132 415.35 496.773 413.966 497.714L404.082 504.432C403.612 504.752 403.427 505.355 403.638 505.883V505.883C403.739 506.136 403.923 506.348 404.16 506.484L405.136 507.045Z" fill="#1E1E1E"/>
<path d="M402.783 504.764C403.769 506.215 407.689 509.676 411.445 507.128L417.811 502.784C419.044 501.946 419.245 500.09 418.258 498.638C417.271 497.187 415.472 496.69 414.238 497.528L405.51 503.461C404.277 504.3 401.796 503.313 402.783 504.764Z" fill="#1E1E1E"/>
<rect width="31.8369" height="6.35503" rx="3.17751" transform="matrix(0.554563 0.832142 0.832142 -0.554563 387.479 481.805)" fill="#1E1E1E"/>
<path d="M398.084 474.788L417.054 503.258L422.343 499.734L403.372 471.264L398.084 474.788Z" fill="#1E1E1E"/>
<path d="M424.266 457.093L414.061 463.803L410.131 473.993L427.794 462.379L424.266 457.093Z" fill="#1E1E1E"/>
<path d="M424.794 475.123L422.265 476.81L426.502 481.701L428.181 480.251L424.794 475.123Z" fill="#1E1E1E"/>
<path d="M443.137 485.863L425.897 459.54L420.604 463.021L437.935 489.364L443.137 485.863Z" fill="#1E1E1E"/>
<path d="M431.074 493.806L429.398 482.066L423.931 481.764L423.868 498.544L431.074 493.806Z" fill="#1E1E1E"/>
<path d="M429.39 482.051L426.801 478.143L422.593 480.914L425.159 484.691L429.39 482.051Z" fill="#1E1E1E"/>
<path d="M436.721 476.066L431.462 479.524L437.926 489.354L443.256 485.894L436.721 476.066Z" fill="#1E1E1E"/>
<path fill-rule="evenodd" clip-rule="evenodd" d="M430.068 465.838C429.006 464.222 427.599 463.028 426.006 462.265L431.842 471.139C431.712 469.282 431.129 467.451 430.068 465.838ZM426.781 481.516C426.913 481.429 427.043 481.34 427.171 481.248L423.688 475.952C423.688 475.952 423.688 475.952 423.688 475.952C421.506 477.386 418.615 476.843 417.23 474.737C415.846 472.631 416.492 469.761 418.674 468.327C418.674 468.327 418.674 468.327 418.674 468.327L415.209 463.058C415.079 463.137 414.949 463.219 414.82 463.304C409.583 466.747 407.781 473.254 411.104 478.308C414.427 483.361 421.544 484.96 426.781 481.516Z" fill="#1E1E1E"/>
<path d="M391.088 621.609C390.183 622.242 388.937 622.02 388.307 621.113L384.439 615.555L383.192 613.764L382.545 612.834L375.257 602.361C374.626 601.454 374.848 600.206 375.754 599.573L377.817 598.131C378.722 597.498 379.968 597.72 380.599 598.627L387.895 609.111L388.542 610.041L389.788 611.831L393.649 617.379C394.28 618.286 394.057 619.534 393.152 620.167L391.088 621.609Z" fill="#1E1E1E"/>
<path d="M374.329 600.981C373.313 599.495 373.694 597.467 375.179 596.451L385.17 589.617C386.655 588.601 388.683 588.982 389.699 590.467V590.467C390.715 591.953 390.335 593.981 388.849 594.997L378.859 601.83C377.373 602.847 375.345 602.466 374.329 600.981V600.981Z" fill="#1E1E1E"/>
<rect x="403.388" y="619.88" width="35.2632" height="6.5176" rx="2" transform="rotate(-124.898 403.388 619.88)" fill="#1E1E1E"/>
<path d="M383.354 613.985C382.337 612.499 382.718 610.471 384.203 609.455L394.194 602.621C395.679 601.605 397.707 601.986 398.724 603.471V603.471C399.74 604.957 399.359 606.985 397.874 608.001L387.883 614.835C386.398 615.851 384.37 615.47 383.354 613.985V613.985Z" fill="#1E1E1E"/>
<path d="M385.766 617.41L391.123 613.692L398.045 623.621L392.689 627.386L385.766 617.41Z" fill="#1E1E1E"/>
<path d="M396.467 609.936L401.825 606.218L408.747 616.147L403.39 619.912L396.467 609.936Z" fill="#1E1E1E"/>
<path d="M473.092 563.245C472.213 563.915 470.96 563.745 470.292 562.865L466.197 557.472L464.878 555.734L464.193 554.832L456.476 544.669C455.808 543.79 455.979 542.534 456.857 541.864L458.859 540.337C459.738 539.668 460.991 539.838 461.659 540.718L469.383 550.891L470.068 551.793L471.387 553.53L475.475 558.913C476.143 559.793 475.972 561.049 475.094 561.719L473.092 563.245Z" fill="#1E1E1E"/>
<path d="M455.493 543.329C454.416 541.887 454.712 539.845 456.154 538.768L465.853 531.526C467.295 530.45 469.337 530.746 470.414 532.188V532.188C471.491 533.63 471.195 535.672 469.752 536.749L460.054 543.991C458.611 545.067 456.569 544.771 455.493 543.329V543.329Z" fill="#1E1E1E"/>
<rect x="485.31" y="561.008" width="35.2632" height="6.5176" rx="2" transform="rotate(-127.272 485.31 561.008)" fill="#1E1E1E"/>
<path d="M465.048 555.948C463.971 554.506 464.267 552.464 465.709 551.387L475.408 544.146C476.85 543.069 478.892 543.365 479.969 544.807V544.807C481.046 546.249 480.75 548.291 479.308 549.368L469.609 556.61C468.167 557.686 466.125 557.39 465.048 555.948V555.948Z" fill="#1E1E1E"/>
<path d="M467.6 559.27L472.799 555.334L480.126 564.968L474.93 568.951L467.6 559.27Z" fill="#1E1E1E"/>
<path d="M477.982 551.359L483.181 547.423L490.509 557.057L485.313 561.04L477.982 551.359Z" fill="#1E1E1E"/>
<path d="M353.341 653.799C351.848 654.731 349.882 654.291 348.93 652.811L333.285 628.506C332.313 626.996 332.751 624.985 334.263 624.017V624.017C335.772 623.05 337.779 623.489 338.747 624.998L354.345 649.333C355.312 650.842 354.861 652.85 353.341 653.799V653.799Z" fill="#1E1E1E"/>
<path d="M338.144 629.222L334.661 623.788L345.599 616.776L349.152 622.24L338.144 629.222Z" fill="#1E1E1E"/>
<path d="M343.641 644.601L349.052 641.08L356.139 651.97L350.699 655.56L343.641 644.601Z" fill="#1E1E1E"/>
<path d="M439.98 594.55L434.633 598.167L427.353 587.405L432.728 583.718L439.98 594.55Z" fill="#1E1E1E"/>
<path d="M421.73 568.764C420.342 567.98 418.645 567.977 417.254 568.757L409.458 573.131C407.862 574.026 407.381 576.1 408.42 577.606V577.606C409.395 579.018 411.33 579.373 412.743 578.398L422.83 571.435C423.31 571.104 423.495 570.484 423.275 569.944V569.944C423.169 569.685 422.979 569.469 422.735 569.332L421.73 568.764Z" fill="#1E1E1E"/>
<path d="M424.16 571.086C423.138 569.604 419.093 566.084 415.259 568.725L408.762 573.226C407.504 574.095 407.312 576 408.334 577.481C409.357 578.962 411.206 579.459 412.465 578.59L421.373 572.441C422.631 571.573 425.183 572.567 424.16 571.086Z" fill="#1E1E1E"/>
<rect width="32.6514" height="6.5176" rx="3.2588" transform="matrix(-0.560478 -0.828169 -0.828169 0.560478 440.024 594.519)" fill="#1E1E1E"/>
<path d="M428.835 602.354L423.488 605.971L416.208 595.208L421.583 591.522L428.835 602.354Z" fill="#1E1E1E"/>
<path d="M410.585 576.567C409.196 575.783 407.499 575.781 406.109 576.561L398.312 580.934C396.716 581.829 396.236 583.903 397.275 585.409V585.409C398.25 586.822 400.185 587.176 401.598 586.201L411.685 579.239C412.165 578.908 412.35 578.287 412.129 577.748V577.748C412.024 577.489 411.834 577.273 411.59 577.135L410.585 576.567Z" fill="#1E1E1E"/>
<path d="M413.015 578.889C411.993 577.408 407.948 573.888 404.114 576.528L397.617 581.029C396.358 581.898 396.167 583.803 397.189 585.285C398.211 586.766 400.061 587.262 401.319 586.393L410.227 580.245C411.486 579.376 414.037 580.37 413.015 578.889Z" fill="#1E1E1E"/>
<rect width="32.6514" height="6.5176" rx="3.2588" transform="matrix(-0.560478 -0.828169 -0.828169 0.560478 428.878 602.323)" fill="#1E1E1E"/>
<path d="M418.053 609.596L398.39 580.537L392.993 584.191L412.656 613.25L418.053 609.596Z" fill="#1E1E1E"/>
<path d="M470.986 572.081L465.733 575.832L458.183 565.257L463.463 561.436L470.986 572.081Z" fill="#1E1E1E"/>
<path d="M452.09 546.764C450.682 546.016 448.986 546.056 447.615 546.871L439.932 551.44C438.359 552.376 437.931 554.461 439.008 555.94V555.94C440.019 557.327 441.962 557.633 443.349 556.623L453.257 549.407C453.729 549.064 453.898 548.439 453.664 547.905V547.905C453.552 547.649 453.356 547.438 453.109 547.307L452.09 546.764Z" fill="#1E1E1E"/>
<path d="M454.578 549.024C453.519 547.569 449.386 544.152 445.62 546.889L439.239 551.553C438.003 552.454 437.86 554.363 438.919 555.818C439.979 557.273 441.84 557.722 443.076 556.822L451.826 550.45C453.062 549.55 455.638 550.479 454.578 549.024Z" fill="#1E1E1E"/>
<rect width="32.6514" height="6.5176" rx="3.2588" transform="matrix(-0.581251 -0.813724 -0.813724 0.581251 471.029 572.049)" fill="#1E1E1E"/>
<path d="M460.043 580.163L454.789 583.914L447.239 573.34L452.519 569.518L460.043 580.163Z" fill="#1E1E1E"/>
<path d="M441.146 554.848C439.738 554.099 438.042 554.14 436.671 554.955L428.988 559.524C427.415 560.459 426.987 562.545 428.064 564.024V564.024C429.075 565.411 431.018 565.717 432.405 564.707L442.313 557.491C442.785 557.148 442.954 556.523 442.72 555.989V555.989C442.608 555.733 442.413 555.522 442.166 555.39L441.146 554.848Z" fill="#1E1E1E"/>
<path d="M443.634 557.108C442.575 555.653 438.442 552.236 434.676 554.973L428.295 559.637C427.059 560.537 426.916 562.447 427.975 563.901C429.035 565.356 430.896 565.806 432.132 564.906L440.882 558.534C442.118 557.633 444.694 558.562 443.634 557.108Z" fill="#1E1E1E"/>
<rect width="32.6514" height="6.5176" rx="3.2588" transform="matrix(-0.581251 -0.813724 -0.813724 0.581251 460.085 580.131)" fill="#1E1E1E"/>
<path d="M449.448 587.677L429.055 559.125L423.752 562.914L444.144 591.466L449.448 587.677Z" fill="#1E1E1E"/>
<path d="M351.787 616.265C350.794 614.774 351.191 612.762 352.675 611.759L359.506 607.145C360.069 606.764 360.738 606.569 361.418 606.587V606.587C364.586 606.673 365.78 610.772 363.154 612.545L356.323 617.16C354.825 618.172 352.789 617.77 351.787 616.265V616.265Z" fill="#1E1E1E"/>
<path d="M366.971 621.109L369.446 619.461L372.436 625.38L370.632 626.608L366.971 621.109Z" fill="#1E1E1E"/>
<path d="M369.78 642.789L351.667 616.081L357.051 612.444L375.147 639.246L369.78 642.789Z" fill="#1E1E1E"/>
<path fill-rule="evenodd" clip-rule="evenodd" d="M355.982 622.514C354.872 620.871 354.297 619.068 354.203 617.259L360.301 626.286C358.594 625.429 357.091 624.156 355.982 622.514ZM372.121 625.59C371.986 625.681 371.85 625.769 371.713 625.853L368.074 620.466C368.074 620.466 368.074 620.466 368.074 620.466C370.293 618.967 370.92 616.016 369.473 613.874C368.026 611.732 365.054 611.212 362.835 612.711C362.835 612.711 362.835 612.711 362.835 612.711L359.215 607.352C359.342 607.259 359.471 607.169 359.602 607.08C364.928 603.482 371.799 604.345 375.271 609.484C378.743 614.624 377.447 621.992 372.121 625.59Z" fill="#1E1E1E"/>
<path d="M266.954 670.441C266.01 668.908 266.486 666.901 268.018 665.956L278.861 659.273C280.393 658.328 282.4 658.805 283.345 660.337V660.337C284.289 661.869 283.813 663.876 282.281 664.821L271.439 671.505C269.906 672.449 267.899 671.973 266.954 670.441V670.441Z" fill="#1E1E1E"/>
<path d="M266.954 670.441C266.01 668.908 266.486 666.901 268.018 665.956L278.861 659.273C280.393 658.328 282.4 658.805 283.345 660.337C284.289 661.869 283.813 663.876 282.281 664.821L271.439 671.505C269.906 672.449 267.899 671.973 266.954 670.441Z" fill="#1E1E1E"/>
<rect x="283.744" y="697.713" width="35.1973" height="6.5176" rx="3.2588" transform="rotate(-122.177 283.744 697.713)" fill="#1E1E1E"/>
<path d="M277.302 687.45L282.83 683.991L289.273 694.238L283.744 697.744L277.302 687.45Z" fill="#1E1E1E"/>
<rect width="34.3331" height="6.5176" rx="3.2588" transform="matrix(-0.532594 -0.846371 0.84644 -0.532485 294.759 690.73)" fill="#1E1E1E"/>
<path d="M288.411 680.634L293.93 677.18L300.369 687.429L294.776 690.929L288.411 680.634Z" fill="#1E1E1E"/>
<path d="M287.51 657.452C286.57 655.927 287.037 653.93 288.556 652.98L295.543 648.607C296.12 648.246 296.795 648.075 297.473 648.117V648.117C300.636 648.312 301.687 652.45 299.001 654.132L292.013 658.505C290.48 659.464 288.459 658.992 287.51 657.452V657.452Z" fill="#1E1E1E"/>
<path d="M302.516 662.824L305.047 661.263L307.828 667.283L305.982 668.447L302.516 662.824Z" fill="#1E1E1E"/>
<path d="M304.567 684.588L287.397 657.264L292.904 653.818L310.054 681.235L304.567 684.588Z" fill="#1E1E1E"/>
<path fill-rule="evenodd" clip-rule="evenodd" d="M291.484 663.844C290.432 662.163 289.921 660.341 289.89 658.53L295.669 667.764C293.993 666.849 292.535 665.523 291.484 663.844ZM307.506 667.481C307.368 667.568 307.229 667.651 307.089 667.73L303.641 662.22C303.641 662.22 303.641 662.22 303.641 662.22C305.911 660.799 306.64 657.871 305.269 655.68C303.898 653.489 300.946 652.865 298.676 654.286C298.676 654.286 298.676 654.286 298.676 654.286L295.245 648.803C295.374 648.716 295.506 648.63 295.641 648.546C301.089 645.136 307.926 646.237 311.216 651.495C314.507 656.753 312.955 664.072 307.506 667.481Z" fill="#1E1E1E"/>
<path fill-rule="evenodd" clip-rule="evenodd" d="M333.098 666.824L340.409 662.295C340.808 662.05 341.198 661.725 341.581 661.322C341.964 660.918 342.298 660.449 342.589 659.922C342.876 659.388 343.102 658.797 343.257 658.143C343.419 657.486 343.475 656.778 343.438 656.012C343.401 655.246 343.238 654.42 342.957 653.551C342.676 652.682 342.246 651.769 341.657 650.826L332.427 635.893C332.112 635.382 331.726 634.861 331.27 634.332C330.813 633.803 330.307 633.315 329.759 632.863C329.21 632.411 328.61 632.023 327.97 631.702C327.329 631.38 326.656 631.153 325.961 631.022C325.266 630.892 324.552 630.89 323.817 631.016C323.083 631.142 322.348 631.426 321.61 631.88L314.359 636.372L317.759 641.897L325.023 637.398C325.588 637.05 326.133 636.978 326.665 637.176C327.198 637.375 327.694 637.848 328.16 638.592L337.361 653.491C337.798 654.201 337.987 654.842 337.923 655.418C337.86 655.994 337.553 656.455 337 656.796L329.707 661.313L333.098 666.824Z" fill="#1E1E1E"/>
<path fill-rule="evenodd" clip-rule="evenodd" d="M319.441 633.236L314.073 636.517C313.336 636.971 312.751 637.5 312.308 638.098C311.864 638.697 311.544 639.336 311.347 640.015C311.15 640.694 311.05 641.398 311.048 642.114C311.046 642.831 311.123 643.541 311.279 644.235C311.435 644.928 311.643 645.599 311.91 646.246C312.176 646.892 312.467 647.471 312.781 647.982L321.952 662.952C322.529 663.902 323.15 664.698 323.799 665.34C324.448 665.982 325.111 666.5 325.779 666.878C326.446 667.257 327.104 667.526 327.763 667.678C328.416 667.833 329.047 667.898 329.652 667.883C330.253 667.86 330.823 667.773 331.356 667.613C331.889 667.454 332.355 667.251 332.753 667.006L338.18 663.688L334.789 658.178L329.38 661.485C328.827 661.825 328.277 661.89 327.734 661.688C327.191 661.485 326.704 661.027 326.267 660.317L317.114 645.389C316.66 644.638 316.461 643.982 316.523 643.417C316.586 642.852 316.897 642.398 317.462 642.05L322.841 638.762L319.441 633.236Z" fill="#1E1E1E"/>
<path fill-rule="evenodd" clip-rule="evenodd" d="M331.827 667.606L339.138 663.077C339.537 662.832 339.927 662.508 340.31 662.104C340.693 661.7 341.027 661.231 341.318 660.705C341.605 660.171 341.831 659.579 341.987 658.925C342.148 658.268 342.204 657.56 342.167 656.794C342.13 656.028 341.967 655.202 341.686 654.333C341.405 653.464 340.975 652.551 340.386 651.608L331.156 636.675C330.841 636.164 330.456 635.644 329.999 635.114C329.542 634.585 329.036 634.097 328.488 633.645C327.939 633.194 327.34 632.805 326.699 632.484C326.059 632.162 325.385 631.935 324.691 631.805C323.996 631.675 323.281 631.672 322.547 631.798C321.812 631.924 321.077 632.208 320.339 632.662L313.088 637.154L316.488 642.679L323.752 638.18C324.317 637.832 324.862 637.76 325.394 637.958C325.927 638.157 326.423 638.63 326.889 639.375L336.09 654.273C336.527 654.983 336.716 655.624 336.652 656.2C336.589 656.776 336.283 657.238 335.729 657.578L328.436 662.096L331.827 667.606Z" fill="#1E1E1E"/>
<path fill-rule="evenodd" clip-rule="evenodd" d="M320.712 632.454L315.344 635.735C314.607 636.189 314.022 636.717 313.579 637.316C313.135 637.915 312.815 638.554 312.618 639.233C312.421 639.912 312.321 640.615 312.319 641.332C312.317 642.048 312.394 642.759 312.55 643.452C312.706 644.145 312.914 644.817 313.181 645.463C313.447 646.109 313.738 646.688 314.052 647.2L323.223 662.169C323.8 663.119 324.421 663.915 325.07 664.558C325.719 665.2 326.382 665.718 327.05 666.096C327.717 666.474 328.375 666.743 329.034 666.895C329.687 667.051 330.318 667.116 330.923 667.101C331.524 667.078 332.094 666.991 332.627 666.831C333.16 666.671 333.626 666.469 334.024 666.224L339.451 662.906L336.06 657.396L330.651 660.702C330.098 661.043 329.548 661.108 329.005 660.905C328.462 660.703 327.975 660.245 327.538 659.535L318.385 644.607C317.931 643.855 317.732 643.199 317.794 642.634C317.857 642.07 318.168 641.616 318.733 641.268L324.112 637.98L320.712 632.454Z" fill="#1E1E1E"/>
<path d="M349.392 414.241L343.374 417.636L341.878 418.48L341.101 418.919L330.974 424.631L328.013 419.444L338.148 413.727L338.925 413.289L340.422 412.445L346.431 409.055L349.392 414.241Z" fill="#1E1E1E"/>
<path d="M350.18 442.964L345.549 434.81L344.397 432.782L343.799 431.729L336.006 418.008L341.197 415.055L348.997 428.788L349.595 429.841L350.747 431.869L355.372 440.011L350.18 442.964Z" fill="#1E1E1E"/>
<path d="M207.156 481.413L209.593 480.193L211.645 485.913L209.867 486.826L207.156 481.413Z" fill="#1E1E1E"/>
<path d="M197.716 522.065C196.253 522.745 194.515 522.123 193.816 520.67L182.328 496.804C181.614 495.322 182.239 493.542 183.723 492.832V492.832C185.204 492.122 186.98 492.748 187.69 494.23L199.133 518.118C199.842 519.599 199.205 521.374 197.716 522.065V522.065Z" fill="#1E1E1E"/>
<path d="M197.323 522.225L194.767 516.89L206.272 511.379L208.889 516.748L197.323 522.225Z" fill="#1E1E1E"/>
<path d="M186.666 498.003L184.111 492.668L194.848 487.524L197.463 492.894L186.666 498.003Z" fill="#1E1E1E"/>
<path d="M192.195 509.545L189.64 504.21L198.844 499.801L201.453 505.173L192.195 509.545Z" fill="#1E1E1E"/>
<path d="M190.581 524.997L185.178 527.405L180.33 516.531L185.769 514.064L190.581 524.997Z" fill="#1E1E1E"/>
<path d="M178.236 498.812C177.109 497.883 175.578 497.609 174.199 498.091L166.465 500.791C164.882 501.344 164.116 503.138 164.814 504.663V504.663C165.467 506.093 167.157 506.722 168.587 506.069L178.802 501.399C179.288 501.177 179.554 500.647 179.441 500.124V500.124C179.387 499.874 179.25 499.649 179.053 499.486L178.236 498.812Z" fill="#1E1E1E"/>
<path d="M180.058 501.296C179.372 499.796 176.285 495.973 172.404 497.743L165.822 500.766C164.548 501.348 164.07 503.037 164.756 504.537C165.442 506.037 167.031 506.78 168.305 506.197L177.326 502.074C178.6 501.491 180.744 502.796 180.058 501.296Z" fill="#1E1E1E"/>
<rect width="29.9199" height="5.97237" rx="2.98619" transform="matrix(-0.40741 -0.913245 -0.913245 0.40741 190.625 524.975)" fill="#1E1E1E"/>
<path d="M179.277 530.256L173.874 532.665L169.026 521.79L174.465 519.323L179.277 530.256Z" fill="#1E1E1E"/>
<path d="M166.932 504.072C165.805 503.142 164.274 502.869 162.895 503.35L155.161 506.05C153.578 506.603 152.813 508.397 153.51 509.922V509.922C154.164 511.352 155.853 511.982 157.283 511.328L167.498 506.658C167.984 506.436 168.25 505.906 168.138 505.384V505.384C168.084 505.133 167.947 504.908 167.749 504.745L166.932 504.072Z" fill="#1E1E1E"/>
<path d="M168.754 506.555C168.068 505.055 164.982 501.232 161.1 503.002L154.519 506.025C153.244 506.608 152.766 508.296 153.452 509.796C154.138 511.296 155.727 512.039 157.002 511.457L166.022 507.333C167.297 506.75 169.44 508.055 168.754 506.555Z" fill="#1E1E1E"/>
<rect width="29.9199" height="5.97237" rx="2.98619" transform="matrix(-0.40741 -0.913245 -0.913245 0.40741 179.321 530.234)" fill="#1E1E1E"/>
<path d="M168.391 535.067L155.294 505.704L149.84 508.138L162.937 537.501L168.391 535.067Z" fill="#1E1E1E"/>
<path d="M286.594 441.613L291.847 438.892L297.323 449.464L292.038 452.246L286.594 441.613Z" fill="#1E1E1E"/>
<path d="M300.452 467.03C301.632 467.891 303.176 468.075 304.525 467.513L312.087 464.365C313.636 463.721 314.294 461.885 313.509 460.403V460.403C312.772 459.013 311.049 458.484 309.66 459.221L299.736 464.481C299.264 464.731 299.029 465.276 299.172 465.79V465.79C299.241 466.038 299.391 466.254 299.598 466.405L300.452 467.03Z" fill="#1E1E1E"/>
<path d="M298.488 464.657C299.26 466.114 302.566 469.75 306.337 467.756L312.73 464.353C313.969 463.696 314.346 461.983 313.574 460.526C312.802 459.068 311.172 458.419 309.933 459.076L301.17 463.721C299.932 464.377 297.716 463.2 298.488 464.657Z" fill="#1E1E1E"/>
<rect width="29.9199" height="5.97237" rx="2.98619" transform="matrix(0.460204 0.887814 0.887814 -0.460204 286.552 441.637)" fill="#1E1E1E"/>
<path d="M297.18 436.172L311.974 464.718L317.276 461.969L302.482 433.424L297.18 436.172Z" fill="#1E1E1E"/>
<path d="M348.269 407.067L353.372 404.076L359.393 414.348L354.259 417.401L348.269 407.067Z" fill="#1E1E1E"/>
<path d="M363.433 431.726C364.656 432.526 366.207 432.628 367.525 431.997L374.913 428.459C376.425 427.735 376.988 425.867 376.126 424.428V424.428C375.318 423.079 373.569 422.64 372.22 423.448L362.584 429.218C362.126 429.493 361.92 430.049 362.09 430.556V430.556C362.171 430.799 362.332 431.007 362.547 431.148L363.433 431.726Z" fill="#1E1E1E"/>
<path d="M361.347 429.46C362.195 430.875 365.685 434.333 369.348 432.145L375.554 428.413C376.757 427.693 377.045 425.962 376.197 424.547C375.35 423.132 373.688 422.569 372.486 423.289L363.977 428.385C362.774 429.105 360.5 428.045 361.347 429.46Z" fill="#1E1E1E"/>
<rect width="29.9199" height="5.97237" rx="2.98619" transform="matrix(0.505872 0.862608 0.862608 -0.505872 348.227 407.093)" fill="#1E1E1E"/>
<path d="M358.556 401.082L374.819 428.817L379.97 425.795L363.708 398.06L358.556 401.082Z" fill="#1E1E1E"/>
<path d="M367.74 395.654L372.844 392.663L378.864 402.935L373.731 405.988L367.74 395.654Z" fill="#1E1E1E"/>
<path d="M382.904 420.314C384.127 421.113 385.679 421.215 386.997 420.584L394.385 417.046C395.897 416.322 396.459 414.454 395.598 413.015V413.015C394.79 411.666 393.041 411.227 391.692 412.035L382.056 417.806C381.598 418.08 381.392 418.636 381.561 419.143V419.143C381.643 419.386 381.804 419.595 382.018 419.735L382.904 420.314Z" fill="#1E1E1E"/>
<path d="M380.819 418.047C381.666 419.462 385.157 422.92 388.819 420.732L395.026 417C396.229 416.28 396.516 414.549 395.669 413.134C394.822 411.719 393.16 411.156 391.958 411.876L383.449 416.972C382.246 417.692 379.972 416.632 380.819 418.047Z" fill="#1E1E1E"/>
<rect width="29.9199" height="5.97237" rx="2.98619" transform="matrix(0.505872 0.862608 0.862608 -0.505872 367.699 395.68)" fill="#1E1E1E"/>
<path d="M378.028 389.669L394.29 417.404L399.442 414.383L383.179 386.648L378.028 389.669Z" fill="#1E1E1E"/>
<path d="M325.041 421.076L314.988 426.615L310.558 435.874L327.959 426.288L325.041 421.076Z" fill="#1E1E1E"/>
<path d="M324.213 438.008L321.721 439.403L325.331 444.296L327.011 443.061L324.213 438.008Z" fill="#1E1E1E"/>
<path d="M340.611 449.416L326.39 423.489L321.175 426.362L335.481 452.314L340.611 449.416Z" fill="#1E1E1E"/>
<path d="M328.727 455.973L328.018 444.851L322.918 444.167L321.628 459.884L328.727 455.973Z" fill="#1E1E1E"/>
<path d="M328.011 444.836L325.873 440.985L321.727 443.272L323.853 447L328.011 444.836Z" fill="#1E1E1E"/>
<path d="M335.319 439.767L330.138 442.621L335.473 452.304L340.721 449.454L335.319 439.767Z" fill="#1E1E1E"/>
<path fill-rule="evenodd" clip-rule="evenodd" d="M329.836 429.695C328.959 428.104 327.729 426.882 326.292 426.05L331.109 434.792C331.123 433.043 330.712 431.285 329.836 429.695ZM325.606 444.144C325.736 444.072 325.865 443.997 325.991 443.921L323.116 438.703C320.967 439.887 318.298 439.166 317.155 437.091C316.012 435.017 316.828 432.376 318.978 431.191L316.118 426.001C315.99 426.065 315.862 426.133 315.735 426.203C310.577 429.045 308.411 435.009 311.153 439.988C313.896 444.966 320.447 446.986 325.606 444.144Z" fill="#1E1E1E"/>
<path d="M245.906 465.691C245.168 464.217 245.765 462.423 247.239 461.684L257.675 456.458C259.15 455.719 260.944 456.316 261.682 457.79V457.79C262.421 459.265 261.824 461.059 260.349 461.798L249.914 467.024C248.439 467.763 246.645 467.166 245.906 465.691V465.691Z" fill="#1E1E1E"/>
<path d="M245.906 465.691C245.168 464.217 245.765 462.423 247.239 461.684L257.675 456.458C259.15 455.719 260.944 456.316 261.682 457.79C262.421 459.265 261.824 461.059 260.349 461.798L249.914 467.024C248.439 467.763 246.645 467.166 245.906 465.691Z" fill="#1E1E1E"/>
<rect x="259.032" y="491.938" width="32.2529" height="5.97237" rx="2.98619" transform="rotate(-117.128 259.032 491.938)" fill="#1E1E1E"/>
<path d="M253.98 482.052L259.305 479.34L264.359 489.213L259.03 491.967L253.98 482.052Z" fill="#1E1E1E"/>
<rect width="31.461" height="5.97237" rx="2.98619" transform="matrix(-0.456042 -0.889958 0.890017 -0.455927 269.65 486.454)" fill="#1E1E1E"/>
<path d="M264.669 476.726L269.986 474.018L275.036 483.893L269.649 486.636L264.669 476.726Z" fill="#1E1E1E"/>
<path d="M200.796 487.87C200.097 486.385 200.728 484.614 202.208 483.905L209.02 480.642C209.582 480.373 210.215 480.286 210.828 480.394V480.394C213.688 480.898 214.219 484.774 211.6 486.028L204.788 489.292C203.294 490.007 201.502 489.369 200.796 487.87V487.87Z" fill="#1E1E1E"/>
<path d="M213.907 494.304L216.372 493.143L218.285 498.911L216.485 499.781L213.907 494.304Z" fill="#1E1E1E"/>
<path d="M213.536 514.333L200.712 487.687L206.081 485.115L218.877 511.844L213.536 514.333Z" fill="#1E1E1E"/>
<path fill-rule="evenodd" clip-rule="evenodd" d="M203.758 494.099C202.973 492.46 202.694 490.749 202.852 489.097L207.164 498.099C205.733 497.093 204.542 495.736 203.758 494.099ZM217.972 499.059C217.838 499.123 217.703 499.185 217.567 499.243L214.993 493.87C214.993 493.87 214.993 493.87 214.994 493.87C217.207 492.81 218.172 490.219 217.149 488.083C216.126 485.947 213.502 485.075 211.288 486.135C211.288 486.135 211.288 486.136 211.288 486.136L208.728 480.791C208.855 480.724 208.984 480.659 209.115 480.597C214.427 478.052 220.539 479.758 222.994 484.884C225.45 490.01 223.284 496.514 217.972 499.059Z" fill="#1E1E1E"/>
<path d="M265.717 455.493C264.982 454.026 265.569 452.24 267.032 451.495L273.763 448.067C274.318 447.784 274.948 447.682 275.564 447.775V447.775C278.435 448.209 279.061 452.071 276.473 453.389L269.742 456.817C268.265 457.569 266.459 456.975 265.717 455.493V455.493Z" fill="#1E1E1E"/>
<path d="M278.981 461.606L281.417 460.386L283.47 466.105L281.691 467.018L278.981 461.606Z" fill="#1E1E1E"/>
<path d="M279.097 481.638L265.628 455.312L270.933 452.61L284.376 479.02L279.097 481.638Z" fill="#1E1E1E"/>
<path fill-rule="evenodd" clip-rule="evenodd" d="M268.829 461.648C268.004 460.029 267.684 458.325 267.802 456.669L272.332 465.563C270.877 464.593 269.653 463.265 268.829 461.648ZM283.16 466.26C283.027 466.328 282.894 466.393 282.759 466.454L280.056 461.146C282.243 460.032 283.144 457.418 282.069 455.308C280.995 453.198 278.35 452.39 276.164 453.504L273.474 448.223C273.6 448.153 273.727 448.085 273.856 448.019C279.105 445.346 285.256 446.903 287.836 451.968C290.415 457.032 288.408 463.587 283.16 466.26Z" fill="#1E1E1E"/>
<path fill-rule="evenodd" clip-rule="evenodd" d="M242.533 501.076L249.52 497.43C249.9 497.233 250.279 496.963 250.656 496.619C251.033 496.276 251.371 495.87 251.672 495.409C251.97 494.94 252.216 494.415 252.403 493.828C252.594 493.238 252.694 492.595 252.711 491.892C252.729 491.19 252.636 490.424 252.438 489.611C252.24 488.798 251.908 487.934 251.434 487.033L244.006 472.764C243.753 472.275 243.435 471.774 243.053 471.26C242.672 470.745 242.242 470.265 241.772 469.815C241.301 469.365 240.779 468.97 240.215 468.633C239.652 468.296 239.052 468.043 238.426 467.877C237.799 467.711 237.146 467.661 236.467 467.726C235.787 467.792 235.096 468.002 234.391 468.367L227.462 471.983L230.197 477.262L237.138 473.64C237.677 473.36 238.181 473.331 238.654 473.548C239.127 473.765 239.548 474.231 239.924 474.943L247.328 489.179C247.679 489.857 247.809 490.455 247.712 490.977C247.615 491.499 247.304 491.901 246.775 492.175L239.806 495.811L242.533 501.076Z" fill="#1E1E1E"/>
<path fill-rule="evenodd" clip-rule="evenodd" d="M232.317 469.461L227.191 472.097C226.487 472.462 225.916 472.905 225.471 473.423C225.026 473.94 224.69 474.502 224.464 475.11C224.238 475.717 224.099 476.353 224.049 477.008C223.999 477.662 224.021 478.317 224.117 478.961C224.213 479.605 224.358 480.233 224.558 480.841C224.758 481.45 224.984 481.998 225.237 482.487L232.609 496.785C233.071 497.693 233.585 498.462 234.135 499.093C234.685 499.723 235.256 500.241 235.841 500.632C236.425 501.023 237.008 501.313 237.6 501.496C238.187 501.683 238.758 501.784 239.313 501.811C239.864 501.831 240.39 501.79 240.888 501.68C241.386 501.57 241.825 501.416 242.206 501.219L247.389 498.553L244.661 493.289L239.495 495.946C238.967 496.22 238.46 496.242 237.977 496.02C237.495 495.799 237.081 495.347 236.73 494.669L229.372 480.41C229.007 479.692 228.87 479.079 228.965 478.567C229.06 478.056 229.375 477.661 229.914 477.382L235.052 474.74L232.317 469.461Z" fill="#1E1E1E"/>
<path fill-rule="evenodd" clip-rule="evenodd" d="M241.319 501.705L248.305 498.059C248.686 497.862 249.065 497.592 249.442 497.249C249.819 496.905 250.156 496.499 250.458 496.038C250.755 495.569 251.002 495.044 251.188 494.457C251.38 493.868 251.479 493.224 251.497 492.521C251.515 491.819 251.421 491.053 251.223 490.24C251.025 489.427 250.693 488.563 250.219 487.662L242.791 473.393C242.538 472.905 242.221 472.403 241.839 471.889C241.457 471.374 241.028 470.894 240.557 470.444C240.086 469.994 239.564 469.599 239.001 469.262C238.437 468.925 237.837 468.672 237.211 468.506C236.585 468.34 235.932 468.29 235.252 468.356C234.573 468.421 233.881 468.631 233.177 468.996L226.247 472.612L228.982 477.891L235.923 474.269C236.463 473.989 236.966 473.96 237.439 474.177C237.912 474.395 238.334 474.861 238.71 475.572L246.113 489.808C246.464 490.486 246.594 491.085 246.497 491.606C246.4 492.128 246.089 492.53 245.561 492.804L238.591 496.44L241.319 501.705Z" fill="#1E1E1E"/>
<path fill-rule="evenodd" clip-rule="evenodd" d="M233.532 468.831L228.405 471.468C227.701 471.833 227.131 472.276 226.685 472.794C226.24 473.311 225.904 473.873 225.678 474.481C225.452 475.088 225.313 475.724 225.263 476.379C225.214 477.033 225.235 477.688 225.331 478.332C225.427 478.976 225.572 479.604 225.772 480.212C225.972 480.821 226.199 481.369 226.452 481.858L233.823 496.156C234.286 497.063 234.8 497.833 235.35 498.464C235.9 499.094 236.471 499.612 237.055 500.003C237.64 500.394 238.222 500.684 238.814 500.867C239.401 501.054 239.973 501.155 240.527 501.182C241.078 501.202 241.604 501.161 242.102 501.051C242.6 500.941 243.039 500.787 243.42 500.59L248.603 497.924L245.876 492.66L240.71 495.317C240.181 495.591 239.674 495.613 239.192 495.391C238.709 495.169 238.295 494.718 237.944 494.04L230.586 479.781C230.221 479.063 230.084 478.45 230.179 477.938C230.274 477.427 230.589 477.032 231.129 476.753L236.266 474.11L233.532 468.831Z" fill="#1E1E1E"/>
<path fill-rule="evenodd" clip-rule="evenodd" d="M134.53 548.876L141.832 545.913C142.23 545.753 142.633 545.52 143.041 545.214C143.449 544.908 143.823 544.536 144.167 544.106C144.508 543.667 144.804 543.168 145.045 542.602C145.292 542.033 145.452 541.402 145.537 540.704C145.622 540.006 145.601 539.236 145.482 538.407C145.362 537.579 145.114 536.688 144.728 535.745L138.693 520.834C138.487 520.323 138.219 519.794 137.888 519.245C137.557 518.697 137.176 518.178 136.75 517.685C136.324 517.193 135.842 516.749 135.313 516.36C134.784 515.971 134.211 515.662 133.604 515.437C132.996 515.213 132.351 515.1 131.668 515.101C130.985 515.101 130.277 515.244 129.541 515.54L122.298 518.48L124.518 523.995L131.773 521.051C132.337 520.824 132.841 520.843 133.291 521.104C133.741 521.366 134.116 521.87 134.422 522.614L140.436 537.49C140.721 538.199 140.794 538.807 140.647 539.317C140.501 539.828 140.153 540.198 139.601 540.42L132.317 543.376L134.53 548.876Z" fill="#1E1E1E"/>
<path fill-rule="evenodd" clip-rule="evenodd" d="M127.372 516.432L122.018 518.568C121.282 518.864 120.672 519.251 120.179 519.724C119.687 520.196 119.299 520.724 119.016 521.307C118.734 521.89 118.535 522.51 118.423 523.157C118.311 523.804 118.27 524.458 118.304 525.108C118.338 525.758 118.423 526.397 118.564 527.022C118.705 527.646 118.878 528.214 119.083 528.724L125.059 543.66C125.433 544.607 125.872 545.422 126.359 546.102C126.847 546.783 127.366 547.353 127.91 547.797C128.455 548.242 129.007 548.586 129.579 548.825C130.145 549.067 130.705 549.222 131.254 549.302C131.8 549.374 132.328 549.383 132.834 549.321C133.34 549.259 133.792 549.148 134.19 548.988L139.603 546.828L137.39 541.328L131.995 543.481C131.443 543.703 130.935 543.677 130.476 543.41C130.017 543.143 129.648 542.654 129.363 541.946L123.397 527.051C123.102 526.302 123.024 525.678 123.167 525.178C123.311 524.678 123.662 524.315 124.226 524.088L129.591 521.947L127.372 516.432Z" fill="#1E1E1E"/>
<path fill-rule="evenodd" clip-rule="evenodd" d="M133.261 549.387L140.563 546.423C140.961 546.263 141.363 546.031 141.771 545.725C142.18 545.419 142.554 545.047 142.898 544.616C143.239 544.178 143.535 543.679 143.776 543.112C144.023 542.544 144.183 541.913 144.268 541.215C144.352 540.517 144.332 539.746 144.213 538.918C144.093 538.09 143.845 537.198 143.459 536.256L137.424 521.344C137.218 520.834 136.95 520.304 136.619 519.756C136.288 519.208 135.907 518.688 135.481 518.196C135.055 517.703 134.573 517.26 134.044 516.871C133.515 516.482 132.942 516.172 132.334 515.948C131.727 515.723 131.082 515.611 130.399 515.611C129.716 515.612 129.008 515.755 128.272 516.051L121.03 518.99L123.249 524.506L130.503 521.562C131.067 521.335 131.571 521.353 132.021 521.615C132.472 521.876 132.847 522.38 133.153 523.125L139.167 538.001C139.452 538.709 139.524 539.317 139.378 539.828C139.231 540.338 138.884 540.708 138.332 540.93L131.048 543.886L133.261 549.387Z" fill="#1E1E1E"/>
<path fill-rule="evenodd" clip-rule="evenodd" d="M128.641 515.921L123.287 518.057C122.551 518.353 121.941 518.74 121.449 519.213C120.956 519.686 120.568 520.214 120.286 520.796C120.003 521.379 119.804 521.999 119.692 522.646C119.58 523.293 119.539 523.947 119.573 524.597C119.607 525.247 119.692 525.886 119.833 526.511C119.974 527.136 120.147 527.703 120.353 528.214L126.328 543.149C126.703 544.097 127.141 544.912 127.628 545.592C128.116 546.272 128.635 546.842 129.18 547.287C129.724 547.731 130.276 548.076 130.848 548.315C131.415 548.556 131.974 548.711 132.523 548.791C133.07 548.864 133.597 548.872 134.104 548.81C134.61 548.748 135.062 548.637 135.459 548.477L140.873 546.317L138.66 540.817L133.264 542.97C132.712 543.192 132.205 543.166 131.746 542.899C131.287 542.633 130.917 542.144 130.632 541.435L124.666 526.54C124.372 525.791 124.293 525.168 124.437 524.667C124.58 524.167 124.931 523.804 125.495 523.577L130.861 521.437L128.641 515.921Z" fill="#1E1E1E"/>
<path d="M49 308.976C47.8954 308.972 47.005 308.073 47.0112 306.969L47.066 297.216L47.0825 294.294L47.091 292.776L47.1909 275C47.1971 273.896 48.0976 273.003 49.2021 273.007L53.9345 273.024C55.039 273.028 55.9294 273.927 55.9232 275.032L55.8232 292.824L55.8147 294.342L55.7983 297.265L55.7435 307C55.7373 308.105 54.8369 308.997 53.7323 308.993L49 308.976Z" fill="#F2F2F2"/>
<defs>
<clipPath id="clip0_96_860">
<rect width="346" height="532" fill="white" transform="translate(689 172)"/>
</clipPath>
</defs>
</svg>
